<?xml version="1.0" encoding="UTF-8"?>
<!DOCTYPE svg PUBLIC "-//W3C//DTD SVG 1.1//EN" "http://www.w3.org/Graphics/SVG/1.1/DTD/svg11.dtd">
<svg xmlns="http://www.w3.org/2000/svg" version="1.1" width="500px" height="500px" style="shape-rendering:geometricPrecision; text-rendering:geometricPrecision; image-rendering:optimizeQuality; fill-rule:evenodd; clip-rule:evenodd" xmlns:xlink="http://www.w3.org/1999/xlink">
<g><path style="opacity:0.662" fill="#6593d2" d="M 276.5,15.5 C 271.833,15.5 267.167,15.5 262.5,15.5C 248.203,14.4603 233.869,14.4603 219.5,15.5C 228.952,13.9819 238.619,13.3152 248.5,13.5C 258.052,13.2982 267.385,13.9649 276.5,15.5 Z"/></g>
<g><path style="opacity:1" fill="#0155d1" d="M 262.5,15.5 C 264.969,16.3171 267.635,16.8171 270.5,17C 271.071,18.2051 271.738,19.3717 272.5,20.5C 275.127,19.08 278.293,18.4133 282,18.5C 286.866,19.5667 291.532,21.2333 296,23.5C 296.333,23.1667 296.667,22.8333 297,22.5C 300.856,23.3389 304.69,24.3389 308.5,25.5C 310.524,24.9788 312.524,24.8122 314.5,25C 312.699,25.3173 312.366,25.984 313.5,27C 314.938,27.2189 316.271,27.7189 317.5,28.5C 317.291,29.086 316.957,29.586 316.5,30C 318.843,29.8761 321.177,29.3761 323.5,28.5C 326.148,29.463 328.814,30.463 331.5,31.5C 333.854,31.838 336.187,32.338 338.5,33C 346.894,36.5356 355.228,40.0356 363.5,43.5C 396.926,61.9239 423.926,87.2572 444.5,119.5C 445.83,125.816 448.83,131.15 453.5,135.5C 454.265,138.096 454.599,140.763 454.5,143.5C 455.5,143.5 456.5,143.5 457.5,143.5C 458.654,147.172 458.821,150.838 458,154.5C 459.396,156.527 461.062,156.86 463,155.5C 463.2,157.32 464.034,158.653 465.5,159.5C 466.434,160.568 466.768,161.901 466.5,163.5C 468.91,169.575 470.41,175.908 471,182.5C 471.708,183.381 472.542,184.047 473.5,184.5C 474.338,184.842 474.672,185.508 474.5,186.5C 474.758,192.528 476.092,198.194 478.5,203.5C 480.382,225.795 480.882,248.128 480,270.5C 478.298,283.533 476.465,296.533 474.5,309.5C 473.537,314.05 472.203,318.383 470.5,322.5C 469.533,323.806 468.199,324.473 466.5,324.5C 465.833,329.167 465.167,333.833 464.5,338.5C 462.127,340.579 460.794,343.246 460.5,346.5C 458.1,354.305 454.434,361.305 449.5,367.5C 448.178,367.33 447.011,367.663 446,368.5C 446.152,373.009 444.485,376.675 441,379.5C 440.51,380.793 440.343,382.127 440.5,383.5C 419.422,413.585 392.755,437.251 360.5,454.5C 354.261,456.981 347.927,459.314 341.5,461.5C 340.133,462.84 338.8,464.173 337.5,465.5C 337.5,466.167 337.167,466.5 336.5,466.5C 334.653,465.427 332.653,465.427 330.5,466.5C 327.746,466.113 325.246,465.779 323,465.5C 318.916,468.374 314.416,469.041 309.5,467.5C 304.192,468.998 299.859,471.831 296.5,476C 292.105,476.263 287.772,475.763 283.5,474.5C 280.249,474.891 277.249,476.058 274.5,478C 248.382,479.987 222.382,479.154 196.5,475.5C 188.844,473.611 181.177,471.944 173.5,470.5C 171.044,468.132 168.044,467.132 164.5,467.5C 118.023,450.012 81.0225,420.679 53.5,379.5C 53.0046,377.518 52.5046,375.518 52,373.5C 48.3962,369.291 45.5628,364.624 43.5,359.5C 42.4822,358.807 41.4822,358.141 40.5,357.5C 39.3995,356.395 38.7329,355.062 38.5,353.5C 38.7989,351.396 38.4656,349.396 37.5,347.5C 35.6265,343.323 33.4598,339.323 31,335.5C 29.8212,328.826 27.3212,322.826 23.5,317.5C 23.5,316.833 23.5,316.167 23.5,315.5C 21.6435,302.722 19.3102,290.055 16.5,277.5C 15.8888,262.834 15.7221,248.168 16,233.5C 16.3333,230.5 16.6667,227.5 17,224.5C 18.3561,223.62 19.8561,223.286 21.5,223.5C 21.6602,221.801 21.4935,220.134 21,218.5C 20.3333,219.833 19.6667,219.833 19,218.5C 18.8333,217.167 18.6667,215.833 18.5,214.5C 19.7535,207.543 20.7535,200.543 21.5,193.5C 22.086,193.291 22.586,192.957 23,192.5C 23.4988,188.514 23.6655,184.514 23.5,180.5C 24.5,180.5 25.5,180.5 26.5,180.5C 26.868,175.443 27.5347,170.443 28.5,165.5C 28.5,165.167 28.5,164.833 28.5,164.5C 32.369,159.912 34.7023,154.578 35.5,148.5C 36.3764,148.631 37.0431,148.298 37.5,147.5C 39.1616,144.17 40.8283,140.836 42.5,137.5C 44.4509,136.284 45.9509,134.618 47,132.5C 49.37,128.077 51.37,123.411 53,118.5C 57.1057,114.236 60.6057,109.569 63.5,104.5C 64.325,103.614 65.325,103.281 66.5,103.5C 66.7678,101.901 66.4345,100.568 65.5,99.5C 79.2794,82.7174 94.9461,68.0507 112.5,55.5C 113.251,56.5735 114.251,56.7401 115.5,56C 120.228,52.2744 125.228,48.9411 130.5,46C 131.252,45.3292 131.586,44.4959 131.5,43.5C 132.391,42.8902 133.391,42.5569 134.5,42.5C 138.827,41.4489 143.16,40.2823 147.5,39C 148.337,37.9887 148.67,36.8221 148.5,35.5C 158.339,34.7593 167.006,31.426 174.5,25.5C 183.156,24.1897 191.822,22.6897 200.5,21C 202.618,19.9179 204.618,18.7512 206.5,17.5C 207.263,16.7321 208.263,16.2321 209.5,16C 212.817,15.5017 216.15,15.335 219.5,15.5C 233.869,14.4603 248.203,14.4603 262.5,15.5 Z M 278.5,103.5 C 279.167,103.833 279.833,104.167 280.5,104.5C 288.267,105.32 295.934,106.654 303.5,108.5C 310.011,111.342 316.678,114.009 323.5,116.5C 347.743,128.402 367.743,145.402 383.5,167.5C 363.867,179.989 343.867,191.989 323.5,203.5C 316.052,194.382 307.386,186.715 297.5,180.5C 290.249,176.639 282.582,173.972 274.5,172.5C 264.377,170.213 254.043,169.88 243.5,171.5C 242.833,171.5 242.5,171.833 242.5,172.5C 233.282,173.9 224.949,177.233 217.5,182.5C 193.685,197.601 181.019,219.434 179.5,248C 179.818,254.086 180.818,259.919 182.5,265.5C 185.051,277.941 190.718,288.608 199.5,297.5C 212.016,311.926 227.683,320.926 246.5,324.5C 256.774,326.069 266.774,325.402 276.5,322.5C 288.489,320.17 299.156,315.17 308.5,307.5C 312.5,304.167 316.167,300.5 319.5,296.5C 321.2,294.79 322.533,292.79 323.5,290.5C 324.365,289.417 325.365,289.251 326.5,290C 345.584,301.626 364.75,313.126 384,324.5C 384.315,325.908 383.982,327.241 383,328.5C 377.022,337.305 370.188,345.305 362.5,352.5C 355.765,358.576 348.765,364.243 341.5,369.5C 322.816,380.726 302.816,388.393 281.5,392.5C 266.166,393.807 250.832,393.807 235.5,392.5C 229.225,390.912 222.892,389.578 216.5,388.5C 200.148,382.991 184.815,375.324 170.5,365.5C 140.361,343.348 121.028,314.015 112.5,277.5C 110.839,266.566 109.839,255.566 109.5,244.5C 109.5,243.5 109.5,242.5 109.5,241.5C 110.861,227.693 113.527,214.027 117.5,200.5C 118.167,200.5 118.5,200.167 118.5,199.5C 120.891,193.051 123.558,186.718 126.5,180.5C 127.401,179.71 128.068,178.71 128.5,177.5C 131.179,172.806 133.845,168.139 136.5,163.5C 141.433,157.228 146.767,151.228 152.5,145.5C 158.02,140.255 163.686,135.255 169.5,130.5C 176.841,126.163 184.175,121.83 191.5,117.5C 204.248,111.696 217.581,107.696 231.5,105.5C 232.167,105.5 232.5,105.167 232.5,104.5C 247.792,102.35 263.125,102.017 278.5,103.5 Z"/></g>
<g><path style="opacity:0.971" fill="#567fcc" d="M 290.5,17.5 C 299.255,18.2464 307.588,20.2464 315.5,23.5C 313.409,23.3184 311.409,23.6518 309.5,24.5C 308.713,23.7579 308.047,22.9246 307.5,22C 303.558,21.0071 299.558,20.3404 295.5,20C 293.685,19.2432 292.019,18.4098 290.5,17.5 Z"/></g>
<g><path style="opacity:1" fill="#3769c3" d="M 206.5,17.5 C 204.618,18.7512 202.618,19.9179 200.5,21C 191.822,22.6897 183.156,24.1897 174.5,25.5C 184.568,21.0445 195.235,18.3778 206.5,17.5 Z"/></g>
<g><path style="opacity:1" fill="#1959c7" d="M 262.5,15.5 C 267.167,15.5 271.833,15.5 276.5,15.5C 281.453,15.1228 286.119,15.7895 290.5,17.5C 292.019,18.4098 293.685,19.2432 295.5,20C 299.558,20.3404 303.558,21.0071 307.5,22C 308.047,22.9246 308.713,23.7579 309.5,24.5C 311.409,23.6518 313.409,23.3184 315.5,23.5C 318.927,26.0933 322.927,27.4267 327.5,27.5C 327.833,27.5 328.167,27.5 328.5,27.5C 329.789,28.6366 330.789,29.9699 331.5,31.5C 328.814,30.463 326.148,29.463 323.5,28.5C 321.177,29.3761 318.843,29.8761 316.5,30C 316.957,29.586 317.291,29.086 317.5,28.5C 316.271,27.7189 314.938,27.2189 313.5,27C 312.366,25.984 312.699,25.3173 314.5,25C 312.524,24.8122 310.524,24.9788 308.5,25.5C 304.69,24.3389 300.856,23.3389 297,22.5C 296.667,22.8333 296.333,23.1667 296,23.5C 291.532,21.2333 286.866,19.5667 282,18.5C 278.293,18.4133 275.127,19.08 272.5,20.5C 271.738,19.3717 271.071,18.2051 270.5,17C 267.635,16.8171 264.969,16.3171 262.5,15.5 Z"/></g>
<g><path style="opacity:0.992" fill="#577bc6" d="M 315.5,23.5 C 317.199,23.3398 318.866,23.5065 320.5,24C 322.97,25.0214 325.304,26.1881 327.5,27.5C 322.927,27.4267 318.927,26.0933 315.5,23.5 Z"/></g>
<g><path style="opacity:1" fill="#587fcc" d="M 328.5,27.5 C 340.893,31.5347 352.56,36.868 363.5,43.5C 355.228,40.0356 346.894,36.5356 338.5,33C 336.187,32.338 333.854,31.838 331.5,31.5C 330.789,29.9699 329.789,28.6366 328.5,27.5 Z"/></g>
<g><path style="opacity:1" fill="#3666c7" d="M 174.5,25.5 C 167.006,31.426 158.339,34.7593 148.5,35.5C 156.572,30.8063 165.238,27.4729 174.5,25.5 Z"/></g>
<g><path style="opacity:1" fill="#416dc3" d="M 148.5,35.5 C 148.67,36.8221 148.337,37.9887 147.5,39C 143.16,40.2823 138.827,41.4489 134.5,42.5C 138.818,39.6744 143.484,37.3411 148.5,35.5 Z"/></g>
<g><path style="opacity:0.882" fill="#2758a9" d="M 131.5,43.5 C 131.586,44.4959 131.252,45.3292 130.5,46C 125.228,48.9411 120.228,52.2744 115.5,56C 114.251,56.7401 113.251,56.5735 112.5,55.5C 118.839,51.4911 125.173,47.4911 131.5,43.5 Z"/></g>
<g><path style="opacity:1" fill="#1759c3" d="M 278.5,103.5 C 263.125,102.017 247.792,102.35 232.5,104.5C 233.911,102.461 235.911,101.461 238.5,101.5C 237.833,99.5 237.167,97.5 236.5,95.5C 241.677,97.7524 247.01,98.5858 252.5,98C 253.833,98.6667 253.833,99.3333 252.5,100C 261.504,100.619 270.504,101.286 279.5,102C 278.944,102.383 278.611,102.883 278.5,103.5 Z"/></g>
<g><path style="opacity:0.651" fill="#1c59b3" d="M 280.5,104.5 C 281.449,103.848 282.615,103.514 284,103.5C 291.047,103.749 297.547,105.416 303.5,108.5C 295.934,106.654 288.267,105.32 280.5,104.5 Z"/></g>
<g><path style="opacity:1" fill="#195ac0" d="M 231.5,105.5 C 217.581,107.696 204.248,111.696 191.5,117.5C 191.062,117.565 190.728,117.399 190.5,117C 192.833,116 194.5,114.333 195.5,112C 197.473,111.505 199.473,111.338 201.5,111.5C 201.5,110.5 201.5,109.5 201.5,108.5C 205.531,108.063 209.364,107.063 213,105.5C 219.226,104.869 225.393,104.869 231.5,105.5 Z"/></g>
<g><path style="opacity:0.678" fill="#235aaf" d="M 303.5,108.5 C 309.062,109.11 314.395,110.61 319.5,113C 321.319,113.74 322.652,114.907 323.5,116.5C 316.678,114.009 310.011,111.342 303.5,108.5 Z"/></g>
<g><path style="opacity:0.992" fill="#547cc6" d="M 444.5,119.5 C 448.538,124.242 451.538,129.575 453.5,135.5C 448.83,131.15 445.83,125.816 444.5,119.5 Z"/></g>
<g><path style="opacity:1" fill="#2f63bc" d="M 65.5,99.5 C 66.4345,100.568 66.7678,101.901 66.5,103.5C 65.325,103.281 64.325,103.614 63.5,104.5C 60.6057,109.569 57.1057,114.236 53,118.5C 51.37,123.411 49.37,128.077 47,132.5C 45.9509,134.618 44.4509,136.284 42.5,137.5C 43.8832,135.022 44.8832,132.355 45.5,129.5C 51.1521,118.874 57.8187,108.874 65.5,99.5 Z"/></g>
<g><path style="opacity:0.894" fill="#6b93d2" d="M 45.5,129.5 C 44.8832,132.355 43.8832,135.022 42.5,137.5C 40.8283,140.836 39.1616,144.17 37.5,147.5C 37.0431,148.298 36.3764,148.631 35.5,148.5C 38.0359,141.662 41.3692,135.329 45.5,129.5 Z"/></g>
<g><path style="opacity:0.192" fill="#245bb1" d="M 169.5,130.5 C 163.686,135.255 158.02,140.255 152.5,145.5C 156.595,138.739 162.262,133.739 169.5,130.5 Z"/></g>
<g><path style="opacity:1" fill="#3e6bca" d="M 453.5,135.5 C 458.535,142.903 462.535,150.903 465.5,159.5C 464.034,158.653 463.2,157.32 463,155.5C 461.062,156.86 459.396,156.527 458,154.5C 458.821,150.838 458.654,147.172 457.5,143.5C 456.5,143.5 455.5,143.5 454.5,143.5C 454.599,140.763 454.265,138.096 453.5,135.5 Z"/></g>
<g><path style="opacity:0.969" fill="#6389d3" d="M 35.5,148.5 C 34.7023,154.578 32.369,159.912 28.5,164.5C 30.3221,158.864 32.6554,153.531 35.5,148.5 Z"/></g>
<g><path style="opacity:0.964" fill="#235cb4" d="M 274.5,172.5 C 263.986,172.828 253.653,172.494 243.5,171.5C 254.043,169.88 264.377,170.213 274.5,172.5 Z"/></g>
<g><path style="opacity:0.439" fill="#1d5aab" d="M 136.5,163.5 C 133.845,168.139 131.179,172.806 128.5,177.5C 127.957,177.44 127.624,177.107 127.5,176.5C 129.359,171.319 132.359,166.986 136.5,163.5 Z"/></g>
<g><path style="opacity:1" fill="#1757be" d="M 274.5,172.5 C 282.582,173.972 290.249,176.639 297.5,180.5C 297.265,181.097 296.765,181.43 296,181.5C 291.64,179.974 287.14,178.974 282.5,178.5C 280.03,176.001 277.363,174.001 274.5,172.5 Z"/></g>
<g><path style="opacity:0.714" fill="#215ab3" d="M 242.5,172.5 C 235.167,174.784 228.167,177.951 221.5,182C 220.207,182.49 218.873,182.657 217.5,182.5C 224.949,177.233 233.282,173.9 242.5,172.5 Z"/></g>
<g><path style="opacity:1" fill="#396ac3" d="M 28.5,165.5 C 27.5347,170.443 26.868,175.443 26.5,180.5C 25.5,180.5 24.5,180.5 23.5,180.5C 24.4108,175.165 26.0775,170.165 28.5,165.5 Z"/></g>
<g><path style="opacity:1" fill="#4071c4" d="M 466.5,163.5 C 470.203,169.949 472.536,176.949 473.5,184.5C 472.542,184.047 471.708,183.381 471,182.5C 470.41,175.908 468.91,169.575 466.5,163.5 Z"/></g>
<g><path style="opacity:0.769" fill="#6b94d9" d="M 474.5,186.5 C 476.579,191.873 477.912,197.539 478.5,203.5C 476.092,198.194 474.758,192.528 474.5,186.5 Z"/></g>
<g><path style="opacity:1" fill="#2157b3" d="M 126.5,180.5 C 123.558,186.718 120.891,193.051 118.5,199.5C 117.522,199.189 116.855,198.522 116.5,197.5C 119.75,192.577 121.917,187.244 123,181.5C 124.011,180.663 125.178,180.33 126.5,180.5 Z"/></g>
<g><path style="opacity:0.878" fill="#5a85ca" d="M 19.5,195.5 C 19.1664,203.121 17.8331,210.455 15.5,217.5C 15.702,209.834 17.0353,202.501 19.5,195.5 Z"/></g>
<g><path style="opacity:0.925" fill="#1a56ae" d="M 117.5,200.5 C 113.527,214.027 110.861,227.693 109.5,241.5C 109.329,227.874 111.162,214.541 115,201.5C 115.671,200.748 116.504,200.414 117.5,200.5 Z"/></g>
<g><path style="opacity:1" fill="#1859c1" d="M 23.5,180.5 C 23.6655,184.514 23.4988,188.514 23,192.5C 22.586,192.957 22.086,193.291 21.5,193.5C 20.7535,200.543 19.7535,207.543 18.5,214.5C 18.6667,215.833 18.8333,217.167 19,218.5C 19.6667,219.833 20.3333,219.833 21,218.5C 21.4935,220.134 21.6602,221.801 21.5,223.5C 19.8561,223.286 18.3561,223.62 17,224.5C 16.6667,227.5 16.3333,230.5 16,233.5C 15.7221,248.168 15.8888,262.834 16.5,277.5C 16.1667,277.5 15.8333,277.5 15.5,277.5C 14.3122,257.829 14.3122,238.162 15.5,218.5C 15.5,218.167 15.5,217.833 15.5,217.5C 17.8331,210.455 19.1664,203.121 19.5,195.5C 20.0526,190.194 21.3859,185.194 23.5,180.5 Z"/></g>
<g><path style="opacity:0.612" fill="#6a96d6" d="M 15.5,218.5 C 14.3122,238.162 14.3122,257.829 15.5,277.5C 13.9554,267.884 13.2887,258.05 13.5,248C 13.2887,237.95 13.9554,228.116 15.5,218.5 Z"/></g>
<g><path style="opacity:1" fill="#527bc5" d="M 478.5,203.5 C 486.089,239.158 484.756,274.491 474.5,309.5C 476.465,296.533 478.298,283.533 480,270.5C 480.882,248.128 480.382,225.795 478.5,203.5 Z"/></g>
<g><path style="opacity:0.9" fill="#1956af" d="M 109.5,244.5 C 109.839,255.566 110.839,266.566 112.5,277.5C 110.925,274.471 109.759,271.138 109,267.5C 108.178,259.655 108.344,251.989 109.5,244.5 Z"/></g>
<g><path style="opacity:0.31" fill="#215ab4" d="M 182.5,265.5 C 185.685,272.859 189.185,280.192 193,287.5C 194.328,289.495 195.995,291.161 198,292.5C 200.184,289.543 201.351,289.877 201.5,293.5C 200.325,293.281 199.325,293.614 198.5,294.5C 199.127,295.417 199.461,296.417 199.5,297.5C 190.718,288.608 185.051,277.941 182.5,265.5 Z"/></g>
<g><path style="opacity:1" fill="#4f7bc9" d="M 15.5,277.5 C 15.8333,277.5 16.1667,277.5 16.5,277.5C 19.3102,290.055 21.6435,302.722 23.5,315.5C 18.7005,303.399 16.0338,290.732 15.5,277.5 Z"/></g>
<g><path style="opacity:1" fill="#195ab7" d="M 319.5,296.5 C 316.167,300.5 312.5,304.167 308.5,307.5C 307.761,307.631 307.094,307.464 306.5,307C 309.044,305.437 309.044,303.937 306.5,302.5C 308.413,301.949 310.413,301.782 312.5,302C 314.131,299.196 316.464,297.362 319.5,296.5 Z"/></g>
<g><path style="opacity:0.11" fill="#1f5cb4" d="M 276.5,322.5 C 266.774,325.402 256.774,326.069 246.5,324.5C 256.39,324.719 266.39,324.052 276.5,322.5 Z"/></g>
<g><path style="opacity:1" fill="#4f7bcc" d="M 470.5,322.5 C 469.469,328.267 467.469,333.601 464.5,338.5C 465.167,333.833 465.833,329.167 466.5,324.5C 468.199,324.473 469.533,323.806 470.5,322.5 Z"/></g>
<g><path style="opacity:0.933" fill="#5883cb" d="M 23.5,317.5 C 27.3212,322.826 29.8212,328.826 31,335.5C 33.4598,339.323 35.6265,343.323 37.5,347.5C 38.4656,349.396 38.7989,351.396 38.5,353.5C 31.9522,342.202 26.9522,330.202 23.5,317.5 Z"/></g>
<g><path style="opacity:0.525" fill="#6893d4" d="M 464.5,338.5 C 463.73,341.496 462.396,344.163 460.5,346.5C 460.794,343.246 462.127,340.579 464.5,338.5 Z"/></g>
<g><path style="opacity:0.765" fill="#1558b9" d="M 362.5,352.5 C 361.047,355.734 358.881,358.401 356,360.5C 355.316,361.784 355.483,362.951 356.5,364C 354.965,364.496 353.465,364.33 352,363.5C 350.274,364.648 350.441,365.815 352.5,367C 348.879,368.138 345.212,368.972 341.5,369.5C 348.765,364.243 355.765,358.576 362.5,352.5 Z"/></g>
<g><path style="opacity:1" fill="#567cc7" d="M 40.5,357.5 C 41.4822,358.141 42.4822,358.807 43.5,359.5C 45.5628,364.624 48.3962,369.291 52,373.5C 52.5046,375.518 53.0046,377.518 53.5,379.5C 48.3869,372.699 44.0536,365.365 40.5,357.5 Z"/></g>
<g><path style="opacity:1" fill="#0f56c1" d="M 170.5,365.5 C 184.815,375.324 200.148,382.991 216.5,388.5C 212.76,388.241 209.094,388.574 205.5,389.5C 203.639,388.472 202.305,386.972 201.5,385C 198.589,384.67 196.089,383.503 194,381.5C 191.877,383.672 189.711,383.839 187.5,382C 189.158,381.275 189.658,380.108 189,378.5C 185.208,379.134 181.541,380.134 178,381.5C 177.167,381.167 176.333,380.833 175.5,380.5C 177.167,379.833 178.833,379.167 180.5,378.5C 179.187,376.482 179.853,375.315 182.5,375C 175.861,375.483 171.861,372.316 170.5,365.5 Z"/></g>
<g><path style="opacity:0.475" fill="#2f5fb7" d="M 449.5,367.5 C 447.304,373.343 444.304,378.677 440.5,383.5C 440.343,382.127 440.51,380.793 441,379.5C 444.485,376.675 446.152,373.009 446,368.5C 447.011,367.663 448.178,367.33 449.5,367.5 Z"/></g>
<g><path style="opacity:1" fill="#1859be" d="M 235.5,392.5 C 250.832,393.807 266.166,393.807 281.5,392.5C 278.512,394.14 275.179,394.974 271.5,395C 260.833,395.333 250.167,395.667 239.5,396C 238.975,396.692 238.308,397.192 237.5,397.5C 236.438,395.978 235.771,394.312 235.5,392.5 Z"/></g>
<g><path style="opacity:0.643" fill="#245cb2" d="M 360.5,454.5 C 353.226,458.97 345.559,462.637 337.5,465.5C 338.8,464.173 340.133,462.84 341.5,461.5C 347.927,459.314 354.261,456.981 360.5,454.5 Z"/></g>
<g><path style="opacity:0.929" fill="#7198d8" d="M 164.5,467.5 C 168.044,467.132 171.044,468.132 173.5,470.5C 170.145,470.31 167.145,469.31 164.5,467.5 Z"/></g>
<g><path style="opacity:1" fill="#5180c9" d="M 336.5,466.5 C 331.157,468.174 325.824,469.84 320.5,471.5C 320.5,470.5 320.5,469.5 320.5,468.5C 324.16,468.841 327.493,468.175 330.5,466.5C 332.653,465.427 334.653,465.427 336.5,466.5 Z"/></g>
<g><path style="opacity:1" fill="#517fcb" d="M 173.5,470.5 C 181.177,471.944 188.844,473.611 196.5,475.5C 198.5,476.5 200.5,477.5 202.5,478.5C 192.386,476.994 182.72,474.327 173.5,470.5 Z"/></g>
<g><path style="opacity:1" fill="#0956c7" d="M 330.5,466.5 C 327.493,468.175 324.16,468.841 320.5,468.5C 320.5,469.5 320.5,470.5 320.5,471.5C 319.833,471.5 319.167,471.5 318.5,471.5C 311.963,473.345 305.297,474.345 298.5,474.5C 298.5,475.5 298.5,476.5 298.5,477.5C 297.833,477.5 297.167,477.5 296.5,477.5C 285.075,477.942 273.742,479.109 262.5,481C 250.171,481.5 237.838,481.667 225.5,481.5C 218.074,479.679 210.408,478.679 202.5,478.5C 200.5,477.5 198.5,476.5 196.5,475.5C 222.382,479.154 248.382,479.987 274.5,478C 277.249,476.058 280.249,474.891 283.5,474.5C 287.772,475.763 292.105,476.263 296.5,476C 299.859,471.831 304.192,468.998 309.5,467.5C 314.416,469.041 318.916,468.374 323,465.5C 325.246,465.779 327.746,466.113 330.5,466.5 Z"/></g>
<g><path style="opacity:0.988" fill="#5279c6" d="M 318.5,471.5 C 312.344,474.614 305.677,476.614 298.5,477.5C 298.5,476.5 298.5,475.5 298.5,474.5C 305.297,474.345 311.963,473.345 318.5,471.5 Z"/></g>
<g><path style="opacity:0.843" fill="#6e98d9" d="M 202.5,478.5 C 210.408,478.679 218.074,479.679 225.5,481.5C 217.552,481.635 209.886,480.635 202.5,478.5 Z"/></g>
<g><path style="opacity:1" fill="#6387cb" d="M 296.5,477.5 C 275.606,482.739 254.273,484.572 232.5,483C 229.964,482.814 227.631,482.314 225.5,481.5C 237.838,481.667 250.171,481.5 262.5,481C 273.742,479.109 285.075,477.942 296.5,477.5 Z"/></g>
</svg>
