<?xml version="1.0" encoding="UTF-8"?>
<svg version="1.1" xmlns="http://www.w3.org/2000/svg" width="1536" height="1536">
<path d="M0 0 C252.12 0 504.24 0 764 0 C759.77190496 42.28095041 747.68083281 83.40434281 739 125 C899.38 125 1059.76 125 1225 125 C1223.87500279 135.12497493 1223.87500279 135.12497493 1222.9984436 139.23892212 C1222.80056055 140.17810454 1222.6026775 141.11728697 1222.39879799 142.08492947 C1222.18292219 143.08766934 1221.96704639 144.09040922 1221.74462891 145.12353516 C1221.51413534 146.21122476 1221.28364178 147.29891436 1221.04616356 148.41956425 C1220.2770948 152.04362231 1219.50182389 155.66632455 1218.7265625 159.2890625 C1218.17450404 161.88442588 1217.62279631 164.47986148 1217.0715332 167.07539368 C1215.88540658 172.65673084 1214.69613012 178.23738915 1213.50469971 183.81759644 C1211.76021823 191.98820311 1210.02072554 200.15986587 1208.28245807 208.33179653 C1205.64966147 220.70873494 1203.01410784 233.08508383 1200.37627149 245.46094906 C1196.64018525 262.98951518 1192.9117445 280.51969564 1189.1875 298.05078125 C1188.09165676 303.20882643 1186.99578277 308.36686507 1185.89990234 313.52490234 C1185.4953309 315.42915985 1185.4953309 315.42915985 1185.08258629 317.37188721 C1182.02834246 331.74703335 1178.97143151 346.12161203 1175.9140625 360.49609375 C1175.77418175 361.15376016 1175.634301 361.81142656 1175.49018145 362.48902225 C1170.85635421 384.27542947 1166.2212998 406.0615756 1161.5859375 427.84765625 C1161.43031947 428.57905838 1161.27470145 429.31046052 1161.11436772 430.06402636 C1157.79558487 445.66222544 1154.47664756 461.26039163 1151.15723896 476.85845757 C1149.58521961 484.24546614 1148.01328091 491.63249188 1146.44140625 499.01953125 C1146.28631175 499.74839775 1146.13121725 500.47726424 1145.97142291 501.2282176 C1141.25690103 523.38436975 1136.54671603 545.54144033 1131.83984375 567.69921875 C1125.49596443 597.56294916 1119.14716217 627.42562805 1112.79044342 657.28662872 C1111.99418819 661.0273029 1111.19810131 664.76801288 1110.40203857 668.50872803 C1107.3639621 682.78341055 1104.32145123 697.0571363 1101.27249146 711.32949829 C1100.34754339 715.65985316 1099.42432308 719.99057061 1098.50265503 724.32162476 C1097.44680729 729.28283833 1096.38746769 734.24329232 1095.32519722 739.20313454 C1094.93997367 741.00470385 1094.55603237 742.80654788 1094.17344475 744.60867882 C1093.65668352 747.0417948 1093.13536919 749.47388915 1092.61279297 751.90576172 C1092.38715872 752.97614323 1092.38715872 752.97614323 1092.15696621 754.06814861 C1091.11417483 758.88582517 1091.11417483 758.88582517 1090 760 C1088.6533851 760.09678279 1087.30172793 760.12447431 1085.95163959 760.1241985 C1085.07214097 760.12644579 1084.19264235 760.12869308 1083.28649226 760.13100848 C1081.81764366 760.12706796 1081.81764366 760.12706796 1080.31912136 760.12304783 C1079.28468282 760.12420167 1078.25024428 760.12535552 1077.18445912 760.12654433 C1073.67157671 760.12921944 1070.15873891 760.12468152 1066.64585876 760.12025452 C1064.12061778 760.12069004 1061.59537683 760.12156459 1059.07013613 760.12284368 C1053.55576635 760.1246214 1048.04141072 760.12326383 1042.52704239 760.11920547 C1034.32729198 760.11318749 1026.12754841 760.11286808 1017.9277962 760.11374746 C1004.13665046 760.11506355 990.3455095 760.11171169 976.55436516 760.10573006 C962.89282139 760.09981978 949.23127961 760.09596548 935.56973457 760.09487724 C934.29717134 760.09477413 934.29717134 760.09477413 932.99889976 760.09466894 C928.69070123 760.09433062 924.3825027 760.09402923 920.07430417 760.09374207 C889.53285181 760.09163979 858.99140206 760.08489724 828.44995117 760.07543945 C798.7731935 760.06626002 769.09643654 760.05917396 739.41967773 760.05493164 C738.0483317 760.05473435 738.0483317 760.05473435 736.6492817 760.05453308 C727.46848057 760.05321459 718.28767944 760.05193877 709.1068783 760.05069422 C690.40332919 760.04815778 671.69978012 760.04533652 652.99623108 760.04234314 C652.13620915 760.04220585 651.27618722 760.04206856 650.39010402 760.04192711 C592.92673492 760.03272126 535.4633673 760.01685472 478 760 C480.0618869 747.35965619 480.0618869 747.35965619 481.26985168 741.83888245 C481.61653145 740.24414345 481.61653145 740.24414345 481.97021484 738.6171875 C482.3403772 736.93604858 482.3403772 736.93604858 482.71801758 735.22094727 C482.98337814 734.00447006 483.24873871 732.78799286 483.5221405 731.53465271 C484.24326954 728.23191451 484.96703151 724.92977607 485.69214463 721.62791181 C486.45780455 718.13883384 487.2203346 714.6490717 487.98332214 711.15940857 C489.26651821 705.29274852 490.5520694 699.42660847 491.83911133 693.56079102 C493.31434262 686.83717418 494.78614293 680.11281371 496.25599557 673.38801914 C497.68295325 666.85976115 499.11214907 660.3319951 500.54239464 653.80445671 C501.14458754 651.0559904 501.74608983 648.30737443 502.3469944 645.55862617 C503.19364244 641.6864483 504.04359013 637.81500115 504.89379883 633.94360352 C505.13450104 632.84106232 505.37520325 631.73852112 505.62319946 630.60256958 C507.94959283 620.03251267 510.49174334 609.53467797 513 599 C302.46 599 91.92 599 -125 599 C-123.87498968 588.87490714 -123.87498968 588.87490714 -122.96289062 584.50738525 C-122.75686596 583.51066646 -122.55084129 582.51394766 -122.33857346 581.48702526 C-122.11340672 580.41912919 -121.88823997 579.35123312 -121.65625 578.25097656 C-121.41574543 577.09372479 -121.17524086 575.93647303 -120.92744827 574.74415302 C-120.26272532 571.55005514 -119.5942437 568.3567717 -118.92408848 565.16381001 C-118.19988258 561.70886465 -117.48048611 558.25291748 -116.76043701 554.79710388 C-115.34373216 548.00172002 -113.92239261 541.20731332 -112.4995234 534.41321784 C-111.32525517 528.8055227 -110.153012 523.19740738 -108.98205566 517.58901978 C-108.81367935 516.78258048 -108.64530303 515.97614118 -108.47182441 515.14526433 C-108.12926988 513.50458447 -107.78671571 511.86390453 -107.44416189 510.22322452 C-96.90993326 459.77449707 -86.30534843 409.34050981 -75.69210815 358.90835571 C-65.29122424 309.48496279 -54.94439285 260.0505254 -44.63988876 210.60694885 C-42.864145 202.08653688 -41.08794503 193.56622001 -39.31176758 185.04589844 C-39.13807298 184.21268271 -38.96437837 183.37946698 -38.7854203 182.52100229 C-37.56792058 176.68066064 -36.35037769 170.840328 -35.1328125 165 C-34.96229268 164.18205239 -34.79177286 163.36410479 -34.61608577 162.52137089 C-27.93452018 130.47152719 -21.24918667 98.42247135 -14.54113293 66.37815952 C-14.24827554 64.97916775 -13.95542026 63.58017553 -13.66256714 62.18118286 C-13.44736092 61.15312099 -13.44736092 61.15312099 -13.2278071 60.10429019 C-12.23048117 55.33922397 -11.23465182 50.57384657 -10.23953247 45.80831909 C-8.93228412 39.54807446 -7.62225217 33.28841686 -6.3101387 27.02919006 C-5.8345965 24.75851705 -5.35999602 22.48764658 -4.8863945 20.21656799 C-4.2470613 17.15156513 -3.60434398 14.08729198 -2.96069336 11.02319336 C-2.77449716 10.12655189 -2.58830095 9.22991041 -2.39646244 8.30609798 C-1.11418529 2.22837059 -1.11418529 2.22837059 0 0 Z " fill="#02262B" transform="translate(218,388)"/>
<path d="M0 0 C37.62 0 75.24 0 114 0 C119.40724994 12.61691652 124.80832163 25.23312534 130.13037109 37.88574219 C131.13147863 40.26539987 132.13403797 42.64444234 133.13671875 45.0234375 C136.69551125 53.47472988 140.22743816 61.93596747 143.69216919 70.42633057 C145.5785687 75.03452594 147.60133382 79.5617004 149.6953125 84.078125 C151.62706727 88.40433029 153.39771781 92.79571702 155.15039062 97.19726562 C157.04363779 101.8824821 159.13612391 106.45854972 161.29296875 111.02734375 C164.74894956 118.36165484 167.95871747 125.78514322 171.08227539 133.26635742 C171.95681643 135.35871497 172.83854971 137.44795143 173.72070312 139.53710938 C174.2816743 140.87482215 174.84223779 142.21270598 175.40234375 143.55078125 C175.90241943 144.74356689 176.40249512 145.93635254 176.91772461 147.1652832 C178 150 178 150 178 152 C180.31 152 182.62 152 185 152 C185.22558594 151.47535156 185.45117188 150.95070313 185.68359375 150.41015625 C187.46620971 147.14643505 189.74790352 144.33212474 192.0625 141.4375 C192.55637207 140.81472168 193.05024414 140.19194336 193.55908203 139.55029297 C197.18195816 134.99338496 200.85206747 130.47603289 204.55078125 125.98046875 C207.56728488 122.30966768 210.56626157 118.62484909 213.5625 114.9375 C214.12694824 114.24285645 214.69139648 113.54821289 215.27294922 112.83251953 C218.81702812 108.466986 222.33831994 104.08414109 225.84375 99.6875 C229.28211275 95.4020044 232.75501727 91.1446273 236.22265625 86.8828125 C239.16322262 83.26680281 242.09444076 79.64426075 245 76 C249.03992386 70.93297685 253.13271376 65.90945383 257.22265625 60.8828125 C260.16322262 57.26680281 263.09444076 53.64426075 266 50 C270.03992386 44.93297685 274.13271376 39.90945383 278.22265625 34.8828125 C281.77772149 30.51115455 285.30952082 26.12216808 288.8203125 21.71484375 C290.63930769 19.44924938 292.46876897 17.19326702 294.3046875 14.94140625 C294.8925 14.22017578 295.4803125 13.49894531 296.0859375 12.75585938 C297.25924597 11.31740368 298.4336866 9.87987054 299.609375 8.44335938 C300.41761719 7.45239258 300.41761719 7.45239258 301.2421875 6.44140625 C301.7254248 5.85045166 302.20866211 5.25949707 302.70654297 4.65063477 C303.87819307 3.15544294 304.94630868 1.58053698 306 0 C308.01085854 -0.36914349 308.01085854 -0.36914349 310.53042603 -0.36076355 C311.48397476 -0.36488754 312.4375235 -0.36901154 313.41996765 -0.3732605 C314.994132 -0.35708176 314.994132 -0.35708176 316.60009766 -0.34057617 C318.25376595 -0.34123329 318.25376595 -0.34123329 319.94084167 -0.34190369 C323.59875974 -0.33980727 327.25622413 -0.31643555 330.9140625 -0.29296875 C333.44468943 -0.28737584 335.9753196 -0.28310431 338.50595093 -0.28010559 C344.49481588 -0.26980657 350.48348495 -0.24614272 356.47227132 -0.21605712 C363.28957719 -0.18255111 370.10689079 -0.1660367 376.92425847 -0.15097082 C390.94959645 -0.11959406 404.97478927 -0.06680989 419 0 C417.28877436 3.63401577 415.20066113 6.12637103 412.4375 9.0625 C409.0046517 12.75363459 405.72061908 16.50410259 402.5625 20.4375 C398.90493736 24.97236161 395.05382973 29.25536183 391.08837891 33.51708984 C387.28601193 37.62779276 383.75729408 41.92275584 380.24609375 46.28515625 C377.11832821 50.06567286 373.78726117 53.64480875 370.46484375 57.25390625 C368.07292703 59.91875166 365.80745116 62.64831825 363.5625 65.4375 C359.90428985 69.97316443 356.05257035 74.2570117 352.08618164 78.51928711 C349.09573 81.75193975 346.26220993 85.06696766 343.5 88.5 C340.30068278 92.47629426 336.97415055 96.26668298 333.5 100 C329.2104224 104.61001639 325.19589103 109.37783236 321.24609375 114.28515625 C318.11832821 118.06567286 314.78726117 121.64480875 311.46484375 125.25390625 C309.07292703 127.91875166 306.80745116 130.64831825 304.5625 133.4375 C300.90428985 137.97316443 297.05257035 142.2570117 293.08618164 146.51928711 C290.09573 149.75193975 287.26220993 153.06696766 284.5 156.5 C281.30068278 160.47629426 277.97415055 164.26668298 274.5 168 C270.2104224 172.61001639 266.19589103 177.37783236 262.24609375 182.28515625 C259.11832821 186.06567286 255.78726117 189.64480875 252.46484375 193.25390625 C250.07292703 195.91875166 247.80745116 198.64831825 245.5625 201.4375 C242.34049725 205.4323288 238.99267629 209.24475286 235.5 213 C225.59144182 222.39250147 225.59144182 222.39250147 220 234 C220.66019849 236.31218033 220.66019849 236.31218033 221.84375 238.67578125 C222.26245361 239.57901123 222.68115723 240.48224121 223.11254883 241.4128418 C223.57040771 242.369729 224.0282666 243.32661621 224.5 244.3125 C225.18968872 245.78940308 225.18968872 245.78940308 225.89331055 247.29614258 C227.25234186 250.20218913 228.62556697 253.10121447 230 256 C230.9915048 258.12050779 231.97857793 260.24301909 232.96484375 262.3659668 C233.74946408 264.05204176 234.54047122 265.73514061 235.33203125 267.41796875 C238.95396155 275.1962125 242.4633905 283.02461765 245.9609375 290.859375 C246.31739853 291.65781326 246.67385956 292.45625153 247.04112244 293.27888489 C248.52263045 296.59802455 250.00391365 299.9172626 251.48339844 303.23730469 C255.10230393 311.35660283 258.72593409 319.47067924 262.5078125 327.515625 C267.0125108 337.09834389 271.28885721 346.7831753 275.59326172 356.45703125 C279.79382509 365.89277952 284.04292994 375.29939534 288.43115234 384.64941406 C292.71129923 393.79051831 296.79081329 403.02016995 300.875 412.25 C305.14691904 421.88518041 309.50711425 431.46631561 314 441 C316.99228836 447.46661709 319.88465137 453.97637149 322.75 460.5 C323.05615234 461.19536865 323.36230469 461.8907373 323.67773438 462.60717773 C324.8923304 465.38334849 326.04115625 468.12346875 327 471 C289.71 471 252.42 471 214 471 C212.68 468.03 211.36 465.06 210 462 C209.18767409 460.21357781 208.37303458 458.42820322 207.5546875 456.64453125 C205.42829506 451.97670186 203.38192797 447.27874206 201.35986328 442.56494141 C197.62565459 433.86360025 193.77203957 425.28920103 189.453125 416.86328125 C187.84037198 413.68546415 186.37640382 410.46679561 184.95703125 407.19921875 C183.8527693 404.66166987 182.70979972 402.14337615 181.5625 399.625 C181.14097656 398.69945312 180.71945312 397.77390625 180.28515625 396.8203125 C179.86105469 395.88960937 179.43695312 394.95890625 179 394 C177.74921535 391.24905307 176.49902054 388.49784213 175.25 385.74609375 C174.42059249 383.92398913 173.58729255 382.10365102 172.75 380.28515625 C170.61737691 375.64003658 168.56261413 370.98005801 166.625 366.25 C164.30042626 360.62810782 161.76140292 355.1226725 159.16796875 349.62109375 C155.78713997 342.44113859 152.489235 335.22233858 149.17553711 328.01123047 C148.67932861 326.93373535 148.18312012 325.85624023 147.671875 324.74609375 C147.2294043 323.78372803 146.78693359 322.8213623 146.33105469 321.82983398 C145.37925147 319.80629196 144.37339837 317.80782341 143.33300781 315.82836914 C142 313 142 313 142 310 C138.7 310 135.4 310 132 310 C131.34 311.32 130.68 312.64 130 314 C128.22176072 316.18926088 126.422536 318.32038348 124.5625 320.4375 C123.47095907 321.69496964 122.37982192 322.95278989 121.2890625 324.2109375 C120.46196777 325.16178223 120.46196777 325.16178223 119.61816406 326.13183594 C117.20112255 328.92230088 114.81765498 331.74056893 112.4375 334.5625 C111.53259644 335.63415204 110.62764847 336.70576658 109.72265625 337.77734375 C109.2755127 338.3069873 108.82836914 338.83663086 108.36767578 339.38232422 C106.97540583 341.02908979 105.57994527 342.67310067 104.18359375 344.31640625 C99.93259941 349.32234652 95.70435708 354.3404038 91.5625 359.4375 C87.1485377 364.85856956 82.60217195 370.15841974 78.04296875 375.45703125 C73.78648075 380.40558716 69.57832994 385.3947854 65.36767578 390.38232422 C63.97540583 392.02908979 62.57994527 393.67310067 61.18359375 395.31640625 C56.95146367 400.30026248 52.74262602 405.29559272 48.625 410.375 C44.45843577 415.49733524 40.13798719 420.47417378 35.79956055 425.45043945 C31.8775046 429.95939957 28.06968135 434.54698064 24.30859375 439.19140625 C21.58655652 442.50298792 18.79850873 445.75304603 16 449 C7.32044797 458.67516727 7.32044797 458.67516727 -0.32669544 469.11397934 C-2 471 -2 471 -4.11828899 471.49219131 C-4.94145013 471.48850414 -5.76461126 471.48481697 -6.61271667 471.48101807 C-8.03248055 471.48926605 -8.03248055 471.48926605 -9.48092651 471.49768066 C-10.5174234 471.48329956 -11.55392029 471.46891846 -12.62182617 471.45410156 C-13.71466415 471.45468567 -14.80750214 471.45526978 -15.93345642 471.45587158 C-19.55361452 471.45307996 -23.1729541 471.42193575 -26.79296875 471.390625 C-29.29974416 471.38316648 -31.8065254 471.37747172 -34.31330872 471.37347412 C-40.24197477 471.35975067 -46.17037723 471.32821025 -52.09890777 471.28807616 C-59.51054755 471.2389905 -66.92222369 471.21749883 -74.33398438 471.1953125 C-87.55613942 471.15238792 -100.77805107 471.08486618 -114 471 C-109.64829594 464.41915767 -109.64829594 464.41915767 -107.08203125 461.51953125 C-106.55472412 460.91874756 -106.02741699 460.31796387 -105.48413086 459.69897461 C-104.93249268 459.07643799 -104.38085449 458.45390137 -103.8125 457.8125 C-99.95036128 453.40777789 -96.12565976 448.99028329 -92.4375 444.4375 C-88.07495546 439.05410409 -83.56878013 433.80336744 -79.05078125 428.55078125 C-72.82477633 421.31183876 -66.6391376 414.04134091 -60.625 406.625 C-56.45843577 401.50266476 -52.13798719 396.52582622 -47.79956055 391.54956055 C-43.87510903 387.03784637 -40.06573217 382.44674445 -36.30078125 377.80078125 C-32.61993587 373.3200238 -28.82486807 368.93840814 -25.04296875 364.54296875 C-20.78648075 359.59441284 -16.57832994 354.6052146 -12.36767578 349.61767578 C-10.97540583 347.97091021 -9.57994527 346.32689933 -8.18359375 344.68359375 C-3.95146367 339.69973752 0.25737398 334.70440728 4.375 329.625 C8.54156423 324.50266476 12.86201281 319.52582622 17.20043945 314.54956055 C21.12489097 310.03784637 24.93426783 305.44674445 28.69921875 300.80078125 C32.38006413 296.3200238 36.17513193 291.93840814 39.95703125 287.54296875 C44.21351925 282.59441284 48.42167006 277.6052146 52.63232422 272.61767578 C54.02459417 270.97091021 55.42005473 269.32689933 56.81640625 267.68359375 C61.04853633 262.69973752 65.25737398 257.70440728 69.375 252.625 C73.0152752 248.14818041 76.77163646 243.78625808 80.5625 239.4375 C82.20476938 237.54005824 83.84558815 235.64137358 85.48583984 233.7421875 C86.85989201 232.16120777 88.25126845 230.59532641 89.64453125 229.03125 C90.38058594 228.1753125 91.11664062 227.319375 91.875 226.4375 C92.51179687 225.71433594 93.14859375 224.99117187 93.8046875 224.24609375 C95.51896354 221.02482341 94.99647162 219.49390467 94 216 C92.84399708 213.00690734 91.53443344 210.09892964 90.1875 207.1875 C89.49348958 205.66015625 88.79947917 204.1328125 88.10546875 202.60546875 C87.75750244 201.84524414 87.40953613 201.08501953 87.05102539 200.30175781 C84.11895726 193.88049454 81.32860244 187.42088281 78.6875 180.875 C75.3903825 172.78370512 71.74635523 164.89087382 68 157 C65.02263794 150.65304855 62.26469335 144.24286416 59.625 137.75 C57.12568141 131.60697375 54.46199625 125.57567708 51.62109375 119.58374023 C49.54301408 115.19264244 47.55826997 110.76916105 45.625 106.3125 C42.98438648 100.22838878 40.29069466 94.17035874 37.5625 88.125 C33.65090286 79.45591971 29.77307777 70.77235559 25.92211914 62.07617188 C25.2836526 60.63865017 24.64199839 59.20254159 23.99780273 57.76757812 C21.79077848 52.84174058 19.7069619 47.88016782 17.6875 42.875 C14.87209536 35.96585311 11.83256319 29.19345146 8.63671875 22.453125 C7.12854632 19.27120512 5.64813509 16.07897374 4.1875 12.875 C3.80980469 12.04742188 3.43210937 11.21984375 3.04296875 10.3671875 C0 3.46067416 0 3.46067416 0 0 Z " fill="#FEFEFE" transform="translate(916,595)"/>
<path d="M0 0 C16.83 0 33.66 0 51 0 C49.80569265 6.56869043 48.6053639 13.11860588 47.265625 19.65625 C47.10729187 20.43250732 46.94895874 21.20876465 46.78582764 22.00854492 C46.27554205 24.50603922 45.76301324 27.00306465 45.25 29.5 C45.07259277 30.36536377 44.89518555 31.23072754 44.71240234 32.12231445 C42.34491255 43.65931514 39.88534262 55.16931143 37.28564453 66.65649414 C35.09886344 76.39037244 33.10883369 86.16077158 31.125 95.9375 C28.56507974 108.55146931 25.89534576 121.13203699 23.0625 133.6875 C19.82666376 148.03152317 16.84232587 162.41822932 13.92752075 176.83065796 C11.26578084 189.97797967 8.46597166 203.08383431 5.51025391 216.16796875 C2.67341996 228.74601059 0.05590784 241.36209252 -2.5 254 C-5.34993488 268.09174963 -8.32180982 282.1444024 -11.48974609 296.16796875 C-14.32658141 308.7460167 -16.94385328 321.36213713 -19.5 334 C-22.35270905 348.10045081 -25.31779643 362.16523466 -28.48168945 376.19909668 C-32.88666093 395.75104644 -36.92250836 415.37707149 -41 435 C-56.84 435 -72.68 435 -89 435 C-87.875 421.5 -87.875 421.5 -86.37109375 415.265625 C-86.21713638 414.61672302 -86.06317902 413.96782104 -85.90455627 413.29925537 C-85.42371336 411.28076823 -84.93092452 409.26544377 -84.4375 407.25 C-84.10401061 405.85956833 -83.77132343 404.468944 -83.43945312 403.078125 C-82.63550831 399.71648545 -81.82084316 396.35755872 -81 393 C-82.65 393 -84.3 393 -86 393 C-86.34804688 393.81791016 -86.34804688 393.81791016 -86.703125 394.65234375 C-94.98991768 409.65343532 -112.23419308 420.31755153 -127 428 C-127.85335937 428.45890625 -128.70671875 428.9178125 -129.5859375 429.390625 C-156.27182521 442.69147755 -189.19527801 444.42231505 -217.55078125 435.9375 C-241.21531398 427.93525534 -262.89124349 412.65227443 -276 391 C-276.96292969 389.46859375 -276.96292969 389.46859375 -277.9453125 387.90625 C-291.61017104 365.25272026 -296.38987459 340.95389493 -296.26074219 314.76733398 C-296.25005524 312.20076648 -296.26068691 309.63490538 -296.2734375 307.06835938 C-296.28257444 295.9215566 -295.48370273 285.04379445 -294 274 C-293.90914627 273.30227478 -293.81829254 272.60454956 -293.72468567 271.88568115 C-287.95226957 228.00718906 -264.44491251 181.2824517 -230 153 C-229.26394531 152.37609375 -228.52789063 151.7521875 -227.76953125 151.109375 C-199.66550179 127.81924945 -163.41201848 115.60208421 -126.86987305 118.39624023 C-98.64000691 121.12122062 -74.71543529 132.41624904 -56 154 C-53.34994933 157.52400356 -51.10256957 161.12805495 -49 165 C-48.50757813 165.88945313 -48.01515625 166.77890625 -47.5078125 167.6953125 C-45.17996033 172.1011344 -43.39846306 175.95280127 -43 181 C-41.35 181 -39.7 181 -38 181 C-37.87109375 180.030625 -37.7421875 179.06125 -37.609375 178.0625 C-36.98075611 173.67535558 -36.12824894 169.34307984 -35.25 165 C-35.07662109 164.13624756 -34.90324219 163.27249512 -34.72460938 162.38256836 C-33.18773274 154.79118525 -31.52912948 147.22817527 -29.86083984 139.66479492 C-28.22363986 132.18144241 -26.77734669 124.67193891 -25.37890625 117.14086914 C-24.37444235 111.79138431 -23.17267582 106.54446941 -21.78125 101.28125 C-20.69440899 96.71651777 -19.85566543 92.11287302 -19 87.5 C-17.79854744 81.02299634 -16.46548174 74.65203963 -14.78125 68.28125 C-13.69440899 63.71651777 -12.85566543 59.11287302 -12 54.5 C-10.79877942 48.02424697 -9.46743914 41.65418587 -7.78125 35.28515625 C-6.48645596 29.84054732 -5.51642088 24.33075337 -4.53320312 18.82226562 C-3.35550976 12.37671564 -1.74071301 6.38261435 0 0 Z " fill="#FDFEFE" transform="translate(832,470)"/>
<path d="M0 0 C7.62455747 7.25705972 13.97857607 14.74927972 19.4609375 23.7734375 C19.80850098 24.3411084 20.15606445 24.9087793 20.51416016 25.49365234 C33.30146921 46.72730004 37.66247929 71.40643183 37.6484375 95.8984375 C37.64835693 97.21344238 37.64827637 98.52844727 37.64819336 99.88330078 C37.59086854 114.29574295 36.2471818 128.48348311 34.4609375 142.7734375 C-39.7890625 142.7734375 -114.0390625 142.7734375 -190.5390625 142.7734375 C-189.60635999 173.55262043 -188.51887708 202.68799062 -166.84765625 225.7109375 C-162.12638544 229.92892564 -156.87065877 233.37377688 -151.5390625 236.7734375 C-150.69988281 237.31097656 -149.86070312 237.84851563 -148.99609375 238.40234375 C-146.3508638 239.87845776 -143.78731489 240.87947747 -140.9140625 241.8359375 C-139.97304688 242.15691406 -139.03203125 242.47789062 -138.0625 242.80859375 C-113.68483366 249.48407444 -85.00226665 247.54433689 -62.72265625 235.21484375 C-54.29613369 230.14017857 -46.07453875 224.73123738 -42.31529236 215.40371704 C-40.66260857 211.77549332 -38.88684023 209.02276089 -35.5390625 206.7734375 C-26.70148504 204.33232151 -17.02562519 205.46844041 -7.9765625 205.8984375 C-5.41618501 205.96870904 -2.8556233 206.03257933 -0.29492188 206.08984375 C5.96106625 206.24366914 12.21014853 206.47744515 18.4609375 206.7734375 C18.00040396 208.35115123 17.53642801 209.92786033 17.07104492 211.50415039 C16.81304611 212.38228897 16.5550473 213.26042755 16.28923035 214.16517639 C15.07405542 217.99171371 13.49712555 221.5899556 11.7734375 225.2109375 C11.25124634 226.3093396 11.25124634 226.3093396 10.71850586 227.42993164 C-3.14632424 255.76132608 -30.45399427 274.4770364 -59.6015625 284.5234375 C-97.23892192 296.81066591 -142.84016377 296.84953111 -178.8203125 278.88208008 C-206.10964234 264.3231937 -227.48458124 239.51266873 -236.5390625 209.7734375 C-239.89590212 197.31005945 -242.65806852 184.83348605 -242.7421875 171.8828125 C-242.74933777 171.14916473 -242.75648804 170.41551697 -242.76385498 169.65963745 C-243.03194749 133.88433808 -239.58968921 98.71365551 -224.5390625 65.7734375 C-224.23532715 65.10393066 -223.9315918 64.43442383 -223.61865234 63.74462891 C-216.77507565 48.89856844 -208.34352664 35.07213605 -197.5390625 22.7734375 C-196.83265625 21.94585938 -196.12625 21.11828125 -195.3984375 20.265625 C-170.11371572 -8.74813848 -134.80425807 -26.50369962 -96.4765625 -29.6015625 C-61.10279029 -32.01376203 -26.63917665 -24.62432806 0 0 Z " fill="#FDFEFE" transform="translate(469.5390625,618.2265625)"/>
<path d="M0 0 C12.77131179 10.93857067 22.16451225 27.32985841 25.3359375 43.90234375 C25.53832031 44.84980469 25.74070312 45.79726563 25.94921875 46.7734375 C33.16234436 86.86271387 22.75858635 132.91735334 -0.0546875 166.54296875 C-4.82029438 173.04152359 -10.15334925 179.03092927 -15.6640625 184.90234375 C-16.22867188 185.55460938 -16.79328125 186.206875 -17.375 186.87890625 C-33.80613645 204.94572144 -58.44893023 214.68301831 -82.35546875 216.125 C-104.08883745 216.64623825 -123.37685259 209.31669555 -139.25 194.4765625 C-157.2967273 175.23256041 -163.10318476 150.85305874 -163.0390625 125.21484375 C-163.03851868 124.39831329 -163.03797485 123.58178284 -163.03741455 122.74050903 C-162.99487562 108.81207096 -161.94004426 95.48481359 -158.6640625 81.90234375 C-158.46570801 81.05542969 -158.26735352 80.20851563 -158.06298828 79.3359375 C-149.54127978 44.24575199 -128.87608936 14.08719009 -98.3671875 -5.1796875 C-67.73534288 -22.66727044 -27.98734948 -22.03695992 0 0 Z " fill="#02262B" transform="translate(750.6640625,650.09765625)"/>
<path d="M0 0 C1.98591369 -0.01704544 3.97153898 -0.06090559 5.95703125 -0.10522461 C24.74024946 -0.22731553 41.02003156 7.16811975 54.44921875 20.16235352 C72.41921909 39.41022054 73.51953125 62.85054248 73.51953125 88.29516602 C17.74953125 88.29516602 -38.02046875 88.29516602 -95.48046875 88.29516602 C-90.90713106 60.85513986 -73.04219558 34.36614803 -51.48046875 17.29516602 C-35.57019967 6.38471353 -19.33693932 0.11498908 0 0 Z " fill="#03272C" transform="translate(381.48046875,632.704833984375)"/>
</svg>
