<?xml version="1.0" encoding="UTF-8"?>
<svg version="1.1" xmlns="http://www.w3.org/2000/svg" width="181" height="198">
<path d="M0 0 C59.73 0 119.46 0 181 0 C181 65.34 181 130.68 181 198 C121.27 198 61.54 198 0 198 C0 132.66 0 67.32 0 0 Z " fill="#FCFCFC" transform="translate(0,0)"/>
<path d="M0 0 C3.10031498 1.30533457 5.96821113 2.93801658 8.875 4.625 C9.73778564 5.11282959 10.60057129 5.60065918 11.48950195 6.10327148 C14.33561213 7.71987829 17.16874719 9.35752401 20 11 C20.99080566 11.57218262 21.98161133 12.14436523 23.00244141 12.73388672 C28.09436009 15.67746105 33.1744964 18.6399104 38.2421875 21.625 C41.87476462 23.76366012 45.52179539 25.86999288 49.1953125 27.9375 C50.37444214 28.60833618 50.37444214 28.60833618 51.57739258 29.29272461 C53.0170387 30.11059457 54.46186281 30.91944952 55.9128418 31.71704102 C59.90925387 34.00629729 62.03630061 35.84369348 64 40 C64.38095093 43.30102539 64.38095093 43.30102539 64.38818359 47.09765625 C64.39606903 48.14008987 64.39606903 48.14008987 64.40411377 49.20358276 C64.4172673 51.4901203 64.40859272 53.77595595 64.3984375 56.0625 C64.40045958 57.65763482 64.40337214 59.25276873 64.40713501 60.84790039 C64.41155205 64.18677596 64.40514745 67.52541033 64.39111328 70.86425781 C64.37402158 75.13820089 64.38386611 79.41157875 64.40183067 83.6855011 C64.41268538 86.97811114 64.40921447 90.27058778 64.4014473 93.5632019 C64.39944995 95.13882515 64.40188821 96.71446061 64.40888596 98.29006958 C64.41652847 100.49448605 64.40485828 102.69799468 64.38818359 104.90234375 C64.38579681 106.15523193 64.38341003 107.40812012 64.38095093 108.69897461 C63.96733228 112.2830731 63.15284511 114.13697975 61 117 C58.42578125 118.921875 58.42578125 118.921875 55.3125 120.75 C54.74144531 121.08870117 54.17039062 121.42740234 53.58203125 121.77636719 C51.73014209 122.86694631 49.86751672 123.93642587 48 125 C47.39462402 125.34546875 46.78924805 125.6909375 46.16552734 126.046875 C42.93815204 127.88179748 39.70023491 129.69713216 36.45703125 131.50390625 C32.26973781 133.84053582 28.10738936 136.21940774 23.94824219 138.60571289 C21.23887589 140.15806381 18.52394267 141.70033239 15.80859375 143.2421875 C13.0209175 144.82882776 10.25868191 146.43857915 7.53515625 148.1328125 C2.7944732 150.99184996 -0.95910908 153.05207838 -6.5625 151.94140625 C-10.95831009 150.2436655 -14.83766709 147.6810354 -18.76171875 145.10546875 C-22.36303831 142.76395941 -26.0570661 140.7310058 -29.83984375 138.703125 C-33.99661496 136.46288736 -38.12303517 134.1695707 -42.25 131.875 C-43.00692139 131.45492676 -43.76384277 131.03485352 -44.54370117 130.60205078 C-57.74931949 123.26285537 -57.74931949 123.26285537 -62.75 120 C-63.48734375 119.525625 -64.2246875 119.05125 -64.984375 118.5625 C-67.25569205 116.80178911 -68.5267031 115.48174126 -70 113 C-70.38768005 109.6986084 -70.38768005 109.6986084 -70.40405273 105.72460938 C-70.41091599 104.99893265 -70.41777924 104.27325592 -70.42485046 103.52558899 C-70.44312337 101.13144257 -70.43928091 98.73795105 -70.43359375 96.34375 C-70.43815497 94.67752875 -70.44346036 93.01130939 -70.44947815 91.34509277 C-70.45840991 87.85482128 -70.45598504 84.3647786 -70.44604492 80.87451172 C-70.43454831 76.4019217 -70.45477644 71.93012037 -70.48396206 67.45763397 C-70.50230715 64.01750677 -70.50203514 60.57756923 -70.49632454 57.1374054 C-70.49617115 55.4883768 -70.5022299 53.83933548 -70.51461601 52.19035339 C-70.529495 49.884862 -70.51887405 47.58083614 -70.50170898 45.27539062 C-70.50154282 43.96397095 -70.50137665 42.65255127 -70.50120544 41.3013916 C-69.91864713 37.46413657 -69.0120054 36.34787989 -66 34 C-64.16674805 32.74243164 -64.16674805 32.74243164 -62.26171875 31.66015625 C-61.535896 31.2437085 -60.81007324 30.82726074 -60.06225586 30.39819336 C-59.27858643 29.95741455 -58.49491699 29.51663574 -57.6875 29.0625 C-56.85935791 28.59013916 -56.03121582 28.11777832 -55.17797852 27.63110352 C-52.45564517 26.08086136 -49.72797408 24.54029114 -47 23 C-45.08832396 21.91444579 -43.17686826 20.82850349 -41.265625 19.7421875 C-37.3909486 17.54211528 -33.51027842 15.35316445 -29.625 13.171875 C-25.98346281 11.12632016 -22.35993928 9.0539015 -18.75 6.953125 C-17.93474854 6.48463135 -17.11949707 6.0161377 -16.27954102 5.53344727 C-14.76636108 4.66383807 -13.25857764 3.78473914 -11.75756836 2.89428711 C-7.69537137 0.57989807 -4.77804 -0.86041333 0 0 Z " fill="#0FBC93" transform="translate(94,26)"/>
<path d="M0 0 C13.35845515 -0.89056368 23.798169 4.73491621 34.18359375 12.66796875 C42.41228382 19.93423893 49.11384736 32.98638866 50 44 C50.12088175 47.02204383 50.09609727 49.97293597 50 53 C50.66 53 51.32 53 52 53 C51.95359375 52.42894531 51.9071875 51.85789063 51.859375 51.26953125 C51.22612584 37.04404117 57.55090826 23.71139233 66.9375 13.25 C74.70099548 5.88945411 86.45276163 -0.20456893 97.25 -0.0625 C98.14203125 -0.05347656 99.0340625 -0.04445313 99.953125 -0.03515625 C100.62859375 -0.02355469 101.3040625 -0.01195313 102 0 C102.54550708 15.94092916 98.97516636 29.35649211 88.3203125 41.59375 C77.9387528 52.35981191 65.5074695 57.10529396 50.75 57.375 C37.39619396 57.33707548 25.60498194 53.10326438 15.75 43.8984375 C4.70772116 32.0614492 -0.68402633 18.61478794 -0.140625 2.3515625 C-0.09421875 1.57554688 -0.0478125 0.79953125 0 0 Z " fill="#F8FCFB" transform="translate(40,88)"/>
<path d="M0 0 C5.06508622 2.35232469 8.29696266 5.20330032 10.8359375 10.28125 C11.35706921 15.50965334 11.47867284 19.92161754 9.2109375 24.71875 C4.68650361 29.60037604 0.68954153 31.93027242 -5.92578125 32.375 C-10.22490628 32.19493194 -13.58235759 30.8219781 -16.671875 27.8125 C-21.01052232 22.75487683 -21.51327907 19.54227208 -21.4453125 13.04296875 C-20.92086895 7.89322444 -18.28361908 5.26752603 -14.5390625 1.96875 C-9.93625226 -1.3016678 -5.35643766 -1.77903345 0 0 Z " fill="#F8FCFC" transform="translate(96.1640625,58.71875)"/>
<path d="M0 0 C0 0.66 0 1.32 0 2 C-2.90548882 4.04169485 -4.40142046 5 -8 5 C-8 5.66 -8 6.32 -8 7 C-8.99 7.33 -9.98 7.66 -11 8 C-13.62411288 16.02306812 -13.2745075 24.26539142 -13.23046875 32.61328125 C-13.22927434 34.11541199 -13.22882434 35.61754349 -13.2290802 37.11967468 C-13.22752465 40.25048574 -13.21930308 43.38118095 -13.20581055 46.51196289 C-13.18874836 50.52116886 -13.18499887 54.53024885 -13.18575573 58.53948689 C-13.18548379 61.63385719 -13.1799999 64.72820008 -13.17275429 67.82256126 C-13.16957836 69.3013202 -13.16760273 70.78008222 -13.16686058 72.25884438 C-13.16468973 74.32146123 -13.1559316 76.38394502 -13.14526367 78.4465332 C-13.14145187 79.61851761 -13.13764008 80.79050201 -13.13371277 81.9980011 C-13.0212904 84.52200712 -12.74096109 86.59955137 -12 89 C-14.97024112 86.66733158 -15.92429215 85.49207375 -16.50793457 81.6986084 C-16.51111694 80.38718872 -16.51429932 79.07576904 -16.51757812 77.72460938 C-16.5245874 76.99893265 -16.53159668 76.27325592 -16.53881836 75.52558899 C-16.55639717 73.13125127 -16.54477706 70.73809934 -16.53125 68.34375 C-16.53394497 66.67752862 -16.53782744 65.01130877 -16.54284668 63.34509277 C-16.54874153 59.85474662 -16.5401795 56.36481021 -16.52148438 52.87451172 C-16.49869445 48.40188737 -16.51181766 43.9302231 -16.53577423 39.45763397 C-16.55023277 36.01748427 -16.54562605 32.57756197 -16.53526306 29.1374054 C-16.53259591 27.4883869 -16.53586515 25.83934773 -16.54518127 24.19035339 C-16.55534829 21.88481008 -16.53984614 19.58081843 -16.51757812 17.27539062 C-16.51439575 15.96397095 -16.51121338 14.65255127 -16.50793457 13.3013916 C-15.91558934 9.45136112 -15.02676318 8.3533375 -12 6 C-10.32655452 4.86351678 -8.61644126 3.77926976 -6.875 2.75 C-6.00617187 2.22921875 -5.13734375 1.7084375 -4.2421875 1.171875 C-2 0 -2 0 0 0 Z " fill="#36BA96" transform="translate(40,54)"/>
<path d="M0 0 C2.84759061 2.84759061 2.26006644 4.76804218 2.2746582 8.75708008 C2.27976913 9.45159775 2.28488007 10.14611542 2.29014587 10.86167908 C2.30407858 13.16438346 2.30308192 15.46678964 2.30078125 17.76953125 C2.30466717 19.36895357 2.30900163 20.96837486 2.31376648 22.5677948 C2.32123732 25.92454366 2.32093194 29.28118737 2.31567383 32.63793945 C2.30988869 36.93548242 2.32678255 41.23259307 2.3500185 45.53006458 C2.36476903 48.83553069 2.36562557 52.14089314 2.36250877 55.44638634 C2.36302168 57.03039084 2.36825365 58.6144012 2.37832069 60.19837379 C2.39068888 62.41744423 2.38389109 64.63567877 2.37231445 66.85473633 C2.37294388 68.11667313 2.3735733 69.37860992 2.3742218 70.67878723 C1.97059072 74.26100695 1.13451553 76.13031728 -1 79 C-3.22939106 80.66607597 -5.50291506 81.72790013 -8 83 C-8.495 80.525 -8.495 80.525 -9 78 C-7.515 77.505 -7.515 77.505 -6 77 C-6 77.66 -6 78.32 -6 79 C-2.87802522 77.6910428 -2.87802522 77.6910428 -1 75 C-0.91314571 72.77440544 -0.89297374 70.54611662 -0.90234375 68.31884766 C-0.90380402 67.63247726 -0.90526428 66.94610687 -0.9067688 66.23893738 C-0.91057793 64.7465811 -0.91669778 63.25422937 -0.92483521 61.76189041 C-0.93757653 59.39987536 -0.94410899 57.03791635 -0.94897461 54.6758728 C-0.96236178 48.8075472 -0.98653539 42.93927464 -1.01037598 37.07098389 C-1.03010441 32.11617712 -1.04574836 27.16139025 -1.05593872 22.20655441 C-1.06242081 19.8799865 -1.07493087 17.55350021 -1.08764648 15.22695923 C-1.09127983 13.79795401 -1.09463146 12.36894804 -1.09765625 10.93994141 C-1.10289307 9.69354889 -1.10812988 8.44715637 -1.11352539 7.16299438 C-1.02012039 4.5605855 -0.77759429 2.4659214 0 0 Z " fill="#32BB96" transform="translate(156,64)"/>
<path d="M0 0 C-1.28813342 0.83878455 -2.58063256 1.67086783 -3.875 2.5 C-4.59429688 2.9640625 -5.31359375 3.428125 -6.0546875 3.90625 C-8 5 -8 5 -10 5 C-10.09271379 14.95311932 -10.163772 24.90613578 -10.20724869 34.85959911 C-10.22811627 39.48150583 -10.25641864 44.10311693 -10.30175781 48.72485352 C-10.34524535 53.18579829 -10.36914335 57.64645886 -10.37950897 62.10759926 C-10.38689514 63.80886623 -10.40131876 65.51011779 -10.42292023 67.21126366 C-10.4519937 69.59585454 -10.45595448 71.97927383 -10.45410156 74.36401367 C-10.46848267 75.06604416 -10.48286377 75.76807465 -10.49768066 76.49137878 C-10.45748965 81.27720079 -9.34387896 83.61846169 -6 87 C-3.87396815 88.76323505 -3.87396815 88.76323505 -2 90 C-7.49418605 90.36627907 -7.49418605 90.36627907 -9.8125 88.6875 C-12.4980865 84.87114023 -12.14802751 80.83722136 -12.14526367 76.37915039 C-12.14862228 75.60485184 -12.1519809 74.83055328 -12.15544128 74.03279114 C-12.16494677 71.47106323 -12.16689414 68.9094007 -12.16796875 66.34765625 C-12.17118141 64.56790642 -12.17454549 62.78815686 -12.17805481 61.00840759 C-12.18404492 57.27683907 -12.18589481 53.5452937 -12.18530273 49.8137207 C-12.18520107 45.0308204 -12.19885799 40.24806842 -12.21607494 35.46520329 C-12.22718959 31.78921323 -12.22922211 28.1132591 -12.22869301 24.43725395 C-12.22987375 22.67379685 -12.2343008 20.91033885 -12.24202538 19.14689827 C-12.25181526 16.68124094 -12.24895133 14.2159066 -12.24291992 11.75024414 C-12.24853943 11.0212793 -12.25415894 10.29231445 -12.25994873 9.54125977 C-12.23739723 5.91593742 -12.21306295 2.97682007 -10 0 C-6.26378474 -1.05588692 -3.68208817 -1.0440553 0 0 Z " fill="#E3FEFE" transform="translate(35,57)"/>
<path d="M0 0 C1.32 0 2.64 0 4 0 C5.20121455 3.60364365 5.15542025 6.90097969 5.16113281 10.65258789 C5.16609772 11.43009903 5.17106262 12.20761017 5.17617798 13.00868225 C5.19078135 15.5800159 5.19759687 18.15128795 5.203125 20.72265625 C5.20887587 22.50719708 5.21463361 24.2917379 5.22039795 26.07627869 C5.23090129 29.81623625 5.23674901 33.55617234 5.24023438 37.29614258 C5.24573216 42.09723834 5.26979018 46.89805235 5.29820633 51.69905949 C5.31678862 55.38354842 5.32203584 59.06796869 5.32357025 62.75250053 C5.32660492 64.52320339 5.33466069 66.29390481 5.34775543 68.06456184 C5.36473187 70.53553185 5.3629572 73.00580267 5.35644531 75.47680664 C5.3656601 76.21296204 5.37487488 76.94911743 5.3843689 77.70758057 C5.36749268 79.74256897 5.36749268 79.74256897 5 83 C3.515 83.99 3.515 83.99 2 85 C1.34 84.34 0.68 83.68 0 83 C0.48699371 82.32106186 0.97398743 81.64212372 1.47573853 80.94261169 C3.33396091 77.35528301 3.3804873 74.94849045 3.38818359 70.91821289 C3.39344055 70.22486343 3.39869751 69.53151398 3.40411377 68.81715393 C3.41726887 66.53542246 3.40859119 64.25439428 3.3984375 61.97265625 C3.40045977 60.37991706 3.40337248 58.78717878 3.40713501 57.19444275 C3.41155246 53.85976325 3.40514698 50.52532521 3.39111328 47.19067383 C3.37403548 42.92579669 3.38385705 38.66148656 3.40183067 34.39663029 C3.41269615 31.1082689 3.4092093 27.82004085 3.4014473 24.53167534 C3.3994522 22.9596697 3.40188024 21.38765178 3.40888596 19.81566048 C3.41654472 17.61384374 3.40483512 15.4129314 3.38818359 13.21118164 C3.38579681 11.96051407 3.38341003 10.7098465 3.38095093 9.42127991 C2.96528835 5.68825831 1.87008452 3.23052393 0 0 Z " fill="#E1FDFC" transform="translate(154,60)"/>
<path d="M0 0 C0.33 0 0.66 0 1 0 C0.98839844 0.74765625 0.97679688 1.4953125 0.96484375 2.265625 C0.95582031 3.25046875 0.94679688 4.2353125 0.9375 5.25 C0.92589844 6.22453125 0.91429688 7.1990625 0.90234375 8.203125 C0.89879262 10.9318117 0.89879262 10.9318117 1.56640625 13.234375 C2 15 2 15 1 17 C6.3503559 16.42978066 11.67787852 15.79265639 17 15 C12.09816161 19.90183839 3.7769314 19.18052753 -2.75 19.1875 C-3.4829126 19.18830566 -4.2158252 19.18911133 -4.97094727 19.18994141 C-8.76386114 19.15096866 -12.31262157 18.90732737 -16 18 C-16 17.67 -16 17.34 -16 17 C-12.37 17 -8.74 17 -5 17 C-4.67 13.37 -4.34 9.74 -4 6 C-3.67 6 -3.34 6 -3 6 C-3 8.97 -3 11.94 -3 15 C-2.34 15 -1.68 15 -1 15 C-1.01160156 14.33613281 -1.02320312 13.67226562 -1.03515625 12.98828125 C-1.12478032 4.21792619 -1.12478032 4.21792619 0 0 Z " fill="#D0F8F2" transform="translate(93,126)"/>
<path d="M0 0 C0.33 0.66 0.66 1.32 1 2 C0.690625 2.70125 0.38125 3.4025 0.0625 4.125 C-1.65754214 8.77923167 -1.58080974 13.25757077 0 18 C2.31 18 4.62 18 7 18 C7 18.66 7 19.32 7 20 C6.34 20 5.68 20 5 20 C5 20.99 5 21.98 5 23 C8.31070838 24.00109515 11.30084769 24.10356134 14.75 24.0625 C15.73484375 24.05347656 16.7196875 24.04445313 17.734375 24.03515625 C18.48203125 24.02355469 19.2296875 24.01195313 20 24 C20 23.34 20 22.68 20 22 C21.32 22.33 22.64 22.66 24 23 C18.55636634 26.32666501 14.78336704 27.69980601 8.40234375 26.74609375 C3.71429035 25.2901292 0.41617901 22.2545191 -2.16796875 18.140625 C-3.79994621 13.94192243 -3.45151102 9.42349924 -3 5 C-1.5 1.8125 -1.5 1.8125 0 0 Z " fill="#D4FCF7" transform="translate(78,64)"/>
<path d="M0 0 C0 0.66 0 1.32 0 2 C-0.84304687 2.34933594 -1.68609375 2.69867188 -2.5546875 3.05859375 C-3.65039062 3.51363281 -4.74609375 3.96867188 -5.875 4.4375 C-7.51082031 5.11619141 -7.51082031 5.11619141 -9.1796875 5.80859375 C-10.80558624 6.49543463 -12.42131774 7.21065887 -14 8 C-16.49841163 7.96165366 -18.94767336 7.85853282 -21.4375 7.6875 C-22.15164062 7.64117432 -22.86578125 7.59484863 -23.6015625 7.54711914 C-29.48988442 7.12359868 -35.22960396 6.25921778 -41 5 C-41 4.01 -41 3.02 -41 2 C-39.27716797 2.48533203 -39.27716797 2.48533203 -37.51953125 2.98046875 C-33.19413927 4.05634698 -29.13169515 4.34574197 -24.6875 4.3125 C-23.95128418 4.31048584 -23.21506836 4.30847168 -22.45654297 4.30639648 C-16.31101808 4.19423226 -10.79480726 3.07880632 -5 1 C-2 0 -2 0 0 0 Z " fill="#2FB294" transform="translate(115,140)"/>
<path d="M0 0 C1.32 0 2.64 0 4 0 C2.9979932 2.56996189 1.95753127 5.09010994 0.78125 7.5859375 C-2.95456877 15.71817714 -4.19115132 23.16302631 -5 32 C-5.66 32 -6.32 32 -7 32 C-7.33 27.05 -7.66 22.1 -8 17 C-7.67 17.66 -7.34 18.32 -7 19 C-6.34 19 -5.68 19 -5 19 C-5.02320312 18.37351562 -5.04640625 17.74703125 -5.0703125 17.1015625 C-5.08835937 16.28429687 -5.10640625 15.46703125 -5.125 14.625 C-5.14820312 13.81289062 -5.17140625 13.00078125 -5.1953125 12.1640625 C-5 10 -5 10 -3 8 C-0.32815426 4.91710107 0 4.31875624 0 0 Z " fill="#23AB87" transform="translate(97,109)"/>
<path d="M0 0 C0.763125 0.20625 1.52625 0.4125 2.3125 0.625 C2.6425 1.615 2.9725 2.605 3.3125 3.625 C4.96556607 4.32471051 6.63534147 4.98518637 8.3125 5.625 C10.20028182 6.91029826 12.05375688 8.24703581 13.875 9.625 C16.93587543 11.93445386 19.8114967 14.04337027 23.3125 15.625 C20.3125 16.625 20.3125 16.625 17.58520508 15.36157227 C16.51165771 14.72791748 15.43811035 14.0942627 14.33203125 13.44140625 C13.75917892 13.10705063 13.1863266 12.77269501 12.59611511 12.4282074 C10.76664557 11.35745097 8.94590314 10.27274771 7.125 9.1875 C5.88661613 8.45935293 4.64768985 7.73212752 3.40820312 7.00585938 C0.36993401 5.22289364 -2.66066618 3.42732616 -5.6875 1.625 C-2.6875 -0.375 -2.6875 -0.375 0 0 Z " fill="#CFF9F3" transform="translate(124.6875,39.375)"/>
<path d="M0 0 C5.93143988 4.50789431 9.70617042 9.29168774 13 16 C13 16.66 13 17.32 13 18 C12.01 17.67 11.02 17.34 10 17 C10 15.68 10 14.36 10 13 C9.01 12.67 8.02 12.34 7 12 C7 10.68 7 9.36 7 8 C6.01 8.33 5.02 8.66 4 9 C4 8.01 4 7.02 4 6 C3.34 6 2.68 6 2 6 C2 6.99 2 7.98 2 9 C0.68 9 -0.64 9 -2 9 C-2.33 7.68 -2.66 6.36 -3 5 C-1.68 5 -0.36 5 1 5 C0.67 3.35 0.34 1.7 0 0 Z " fill="#E2FCF9" transform="translate(72,100)"/>
<path d="M0 0 C1.32 0.99 2.64 1.98 4 3 C1.23191444 4.65048833 -1.53992091 6.29457318 -4.3125 7.9375 C-5.49102539 8.64036133 -5.49102539 8.64036133 -6.69335938 9.35742188 C-7.45068359 9.80537109 -8.20800781 10.25332031 -8.98828125 10.71484375 C-9.68477783 11.12855225 -10.38127441 11.54226074 -11.09887695 11.96850586 C-13 13 -13 13 -16 14 C-15.34 11.69 -14.68 9.38 -14 7 C-11.03 7 -8.06 7 -5 7 C-4.67 5.68 -4.34 4.36 -4 3 C-2.68 3 -1.36 3 0 3 C0 2.01 0 1.02 0 0 Z " fill="#1CB08C" transform="translate(113,162)"/>
<path d="M0 0 C0 0.66 0 1.32 0 2 C1.11375 2.103125 2.2275 2.20625 3.375 2.3125 C5.169375 2.6528125 5.169375 2.6528125 7 3 C7.99 4.485 7.99 4.485 9 6 C11.05003955 7.19232613 11.05003955 7.19232613 13 8 C13 8.66 13 9.32 13 10 C9.13452701 8.90973839 5.92586972 7.42124706 2.5 5.375 C-1.18564927 3.2653691 -3.67773419 2.38253346 -8 3 C-8.99 3.33 -9.98 3.66 -11 4 C-11 3.01 -11 2.02 -11 1 C-7.26513121 0.4254048 -3.78706732 0 0 0 Z " fill="#D6FAF6" transform="translate(96,24)"/>
<path d="M0 0 C0.66 1.32 1.32 2.64 2 4 C1.360625 4.433125 0.72125 4.86625 0.0625 5.3125 C-2.26746003 6.91239177 -2.26746003 6.91239177 -3 10 C-7.05455356 12.27175357 -10.74076985 12.2104529 -15.3125 12.125 C-16.56675781 12.10695313 -17.82101563 12.08890625 -19.11328125 12.0703125 C-20.06589844 12.04710938 -21.01851563 12.02390625 -22 12 C-22 11.01 -22 10.02 -22 9 C-21.3709375 9.11859375 -20.741875 9.2371875 -20.09375 9.359375 C-14.50149134 10.20158263 -10.65236318 10.18405568 -5.6953125 7.32421875 C-3.01932975 5.2339926 -1.61963299 2.96932715 0 0 Z " fill="#31B293" transform="translate(106,80)"/>
<path d="M0 0 C1.32 0 2.64 0 4 0 C4 0.66 4 1.32 4 2 C4.763125 2.226875 5.52625 2.45375 6.3125 2.6875 C20.64129749 7.78758046 20.64129749 7.78758046 24 12 C24 12.66 24 13.32 24 14 C19.06955068 12.73578223 15.51161876 10.45011281 11.390625 7.59765625 C7.72990446 5.15119432 3.88076659 3.07341194 0 1 C0 0.67 0 0.34 0 0 Z " fill="#2EAE8E" transform="translate(63,163)"/>
<path d="M0 0 C4.21448316 1.09943039 8.29539597 2.40764849 12.375 3.9375 C13.22835937 4.25589844 14.08171875 4.57429687 14.9609375 4.90234375 C17 6 17 6 18 9 C20.49759982 10.69882448 20.49759982 10.69882448 23 12 C22.01 12.495 22.01 12.495 21 13 C19.16821289 12.24316406 19.16821289 12.24316406 16.97265625 11.015625 C16.18052734 10.57476562 15.38839844 10.13390625 14.57226562 9.6796875 C13.74404297 9.20789063 12.91582031 8.73609375 12.0625 8.25 C11.23814453 7.79367188 10.41378906 7.33734375 9.56445312 6.8671875 C5.95993239 4.84092564 2.82580786 3.06004001 0 0 Z " fill="#30B190" transform="translate(40,150)"/>
<path d="M0 0 C7.32375979 0.48825065 7.32375979 0.48825065 10.3125 2.75 C13.97561508 7.63415344 15.37630911 10.58179931 15.1875 16.8125 C15.16042969 17.97394531 15.13335937 19.13539062 15.10546875 20.33203125 C15.07066406 21.21246094 15.03585938 22.09289062 15 23 C14.67 23 14.34 23 14 23 C13.96132812 21.91332031 13.96132812 21.91332031 13.921875 20.8046875 C13.57187364 14.83875529 13.28621167 10.50052225 9 6 C6.09612041 4.11748495 3.11489975 2.50420372 0 1 C0 0.67 0 0.34 0 0 Z " fill="#36AF90" transform="translate(93,57)"/>
<path d="M0 0 C0.66 0.66 1.32 1.32 2 2 C-0.60238792 3.48237286 -3.20678228 4.96100131 -5.8125 6.4375 C-6.55048828 6.85837891 -7.28847656 7.27925781 -8.04882812 7.71289062 C-8.76103516 8.11572266 -9.47324219 8.51855469 -10.20703125 8.93359375 C-10.8616333 9.30540771 -11.51623535 9.67722168 -12.19067383 10.06030273 C-14 11 -14 11 -17 12 C-17 11.34 -17 10.68 -17 10 C-16.34 10 -15.68 10 -15 10 C-15.33 9.01 -15.66 8.02 -16 7 C-14 6 -14 6 -10 6 C-9.34 5.01 -8.68 4.02 -8 3 C-6.34385343 2.61781233 -4.67542976 2.28604898 -3 2 C-2.01 1.34 -1.02 0.68 0 0 Z " fill="#DEFBF8" transform="translate(52,44)"/>
<path d="M0 0 C3.57364359 0.57409032 6.28384304 1.49945036 9.42578125 3.28515625 C10.22177734 3.73310547 11.01777344 4.18105469 11.83789062 4.64257812 C12.65451172 5.11115234 13.47113281 5.57972656 14.3125 6.0625 C15.14845703 6.53494141 15.98441406 7.00738281 16.84570312 7.49414062 C18.90069265 8.65667756 20.95187737 9.82542091 23 11 C23 11.33 23 11.66 23 12 C20.6875 12.1875 20.6875 12.1875 18 12 C17 11 16 10 15 9 C12.69011685 8.25613932 10.35684056 7.57809297 8 7 C8 6.01 8 5.02 8 4 C5.36 3.67 2.72 3.34 0 3 C0 2.01 0 1.02 0 0 Z " fill="#2CB090" transform="translate(131,49)"/>
<path d="M0 0 C1.9467937 3.75453071 3.46396167 7.62640177 5 11.5625 C5.90578133 13.770342 6.90202369 15.88247425 8 18 C6.68 18.33 5.36 18.66 4 19 C1.30292366 12.44995746 -0.53699151 7.11513755 0 0 Z " fill="#31B494" transform="translate(41,105)"/>
<path d="M0 0 C1.32 0.33 2.64 0.66 4 1 C2.73046875 2.49739583 1.4609375 3.99479167 0.19140625 5.4921875 C-3.12874043 9.69407805 -2.43118312 14.89048007 -2 20 C-0.68796267 23.5563993 -0.68796267 23.5563993 1 26 C-0.32 25.67 -1.64 25.34 -3 25 C-5.07596854 18.04634928 -5.31054164 9.72669709 -2 3.1875 C-1.34 2.135625 -0.68 1.08375 0 0 Z " fill="#28A989" transform="translate(78,60)"/>
<path d="M0 0 C-1 2 -1 2 -3.68359375 2.90234375 C-4.77800781 3.26457031 -5.87242188 3.62679687 -7 4 C-10.09446663 5.72445824 -13.08592151 7.57699903 -16.09765625 9.44140625 C-18.8300207 10.90871906 -20.94937501 11.59138418 -24 12 C-20.56647871 8.28844987 -16.37841554 6.18704261 -12 3.75 C-11.18015625 3.27820312 -10.3603125 2.80640625 -9.515625 2.3203125 C-8.72671875 1.87945313 -7.9378125 1.43859375 -7.125 0.984375 C-6.40570313 0.57928711 -5.68640625 0.17419922 -4.9453125 -0.24316406 C-3 -1 -3 -1 0 0 Z " fill="#38AF93" transform="translate(87,29)"/>
<path d="M0 0 C2.375 0.625 2.375 0.625 5 2 C6.3125 5.125 6.3125 5.125 7 8 C7.66 8 8.32 8 9 8 C9.70088156 9.74468372 10.38524009 11.49601161 11.0625 13.25 C11.44535156 14.22453125 11.82820313 15.1990625 12.22265625 16.203125 C13.01113787 19.04007395 13.02437812 20.29409552 12 23 C11.70867187 22.23816406 11.41734375 21.47632812 11.1171875 20.69140625 C8.68546506 14.5662186 6.05515758 9.11885577 2.234375 3.7421875 C1 2 1 2 0 0 Z " fill="#2FAC8F" transform="translate(76,103)"/>
<path d="M0 0 C0.33 0 0.66 0 1 0 C1.02578125 0.73605469 1.0515625 1.47210938 1.078125 2.23046875 C1.47414319 9.94953848 1.47414319 9.94953848 6 16 C8.12603185 17.76323505 8.12603185 17.76323505 10 19 C4.50581395 19.36627907 4.50581395 19.36627907 2.1875 17.6875 C-0.3740063 14.04746473 -0.10502663 10.60768923 -0.0625 6.3125 C-0.05347656 5.13300781 -0.04445313 3.95351562 -0.03515625 2.73828125 C-0.02355469 1.83464844 -0.01195313 0.93101562 0 0 Z " fill="#E6FDFC" transform="translate(23,128)"/>
<path d="M0 0 C0 0.33 0 0.66 0 1 C-0.79664063 1.18175781 -1.59328125 1.36351563 -2.4140625 1.55078125 C-9.15078487 3.13092385 -9.15078487 3.13092385 -15.5 5.8125 C-18 7 -18 7 -20.375 6.1875 C-20.91125 5.795625 -21.4475 5.40375 -22 5 C-20.35 5 -18.7 5 -17 5 C-16.75765625 4.35546875 -16.5153125 3.7109375 -16.265625 3.046875 C-15 1 -15 1 -13.046875 0.390625 C-12.28890625 0.34421875 -11.5309375 0.2978125 -10.75 0.25 C-9.95207031 0.19457031 -9.15414062 0.13914062 -8.33203125 0.08203125 C-5.55093641 -0.01579621 -2.78224873 -0.07133971 0 0 Z " fill="#1EAB87" transform="translate(137,87)"/>
<path d="M0 0 C6.3579019 -0.45413585 10.6939096 0.34912807 16 4 C20 8.2 20 8.2 20 11 C17.16139657 9.88483437 15.96576212 8.95582208 14.0625 6.5 C10.27133533 1.90464889 5.71151455 1.67194289 0 1 C0 0.67 0 0.34 0 0 Z " fill="#C2F5EE" transform="translate(86,58)"/>
<path d="M0 0 C1.65 0.33 3.3 0.66 5 1 C1 5 -3 9 -7 13 C-7 9.89448334 -6.4606285 8.64738916 -5 6 C-4.01 6 -3.02 6 -2 6 C-1.855625 5.38125 -1.71125 4.7625 -1.5625 4.125 C-1 2 -1 2 0 0 Z " fill="#19AB85" transform="translate(110,94)"/>
<path d="M0 0 C4.02316219 1.48536044 7.61292642 3.39876893 11.3125 5.5625 C12.38113281 6.18253906 13.44976562 6.80257812 14.55078125 7.44140625 C15.76314453 8.21291016 15.76314453 8.21291016 17 9 C17 9.33 17 9.66 17 10 C15.35 10 13.7 10 12 10 C12 9.34 12 8.68 12 8 C10.68 8 9.36 8 8 8 C8 7.34 8 6.68 8 6 C5.525 5.01 5.525 5.01 3 4 C3 3.34 3 2.68 3 2 C2.01 2 1.02 2 0 2 C0 1.34 0 0.68 0 0 Z " fill="#D4FAF6" transform="translate(35,148)"/>
<path d="M0 0 C0 0.66 0 1.32 0 2 C-2.90548882 4.04169485 -4.40142046 5 -8 5 C-8 5.66 -8 6.32 -8 7 C-8.99 7.33 -9.98 7.66 -11 8 C-12.22969878 11.51190809 -12.22969878 11.51190809 -13 15 C-14.4606285 12.35261084 -15 11.10551666 -15 8 C-12.8940354 6.44870495 -10.87244957 5.12351225 -8.625 3.8125 C-8.02171875 3.44447266 -7.4184375 3.07644531 -6.796875 2.69726562 C-2.29309195 0 -2.29309195 0 0 0 Z " fill="#35AE91" transform="translate(40,54)"/>
<path d="M0 0 C4.04301175 1.48518799 7.61146256 3.42877998 11.3125 5.625 C12.38113281 6.25664063 13.44976562 6.88828125 14.55078125 7.5390625 C15.76314453 8.26222656 15.76314453 8.26222656 17 9 C14 10 14 10 10.8125 8.5625 C9.884375 8.046875 8.95625 7.53125 8 7 C8 6.34 8 5.68 8 5 C5.36 4.34 2.72 3.68 0 3 C0 2.01 0 1.02 0 0 Z " fill="#35B091" transform="translate(105,33)"/>
<path d="M0 0 C0 0.66 0 1.32 0 2 C-3.61006321 5.3912715 -7.32842608 7.38618356 -12 9 C-14.21484375 8.57421875 -14.21484375 8.57421875 -16 8 C-13.71125827 6.66141476 -11.41930344 5.32898986 -9.125 4 C-8.47402344 3.6184375 -7.82304688 3.236875 -7.15234375 2.84375 C-2.2265625 0 -2.2265625 0 0 0 Z " fill="#CFFBF6" transform="translate(121,163)"/>
<path d="M0 0 C0.66 0 1.32 0 2 0 C5.09139896 3.40846552 7.97572366 6.83898751 10 11 C9.67 11.99 9.34 12.98 9 14 C7.86756424 12.61019248 6.74436881 11.21285323 5.625 9.8125 C4.99851562 9.03519531 4.37203125 8.25789063 3.7265625 7.45703125 C2.02192866 5.03120618 0.98012094 2.78690955 0 0 Z " fill="#CFF9F5" transform="translate(46,117)"/>
<path d="M0 0 C3.7282919 0.06962854 7.34221537 0.2458176 11 1 C13.25 3.4375 13.25 3.4375 14 6 C13.67 6.66 13.34 7.32 13 8 C11.39528272 7.04258894 9.79124671 6.08403595 8.1875 5.125 C7.29417969 4.59132813 6.40085937 4.05765625 5.48046875 3.5078125 C3.62705276 2.38116908 1.80470083 1.20313389 0 0 Z " fill="#2FB293" transform="translate(56,90)"/>
<path d="M0 0 C1.66508103 3.33016206 0.09482902 6.29041236 -0.96484375 9.7109375 C-2 12 -2 12 -4.6875 13.625 C-5.450625 13.74875 -6.21375 13.8725 -7 14 C-5.53967505 8.68972746 -3.01679014 4.53669968 0 0 Z " fill="#CBF8F3" transform="translate(103,106)"/>
<path d="M0 0 C0 1.32 0 2.64 0 4 C-1.546875 3.9690625 -1.546875 3.9690625 -3.125 3.9375 C-6.55152969 3.99276661 -9.64572414 4.34550715 -13 5 C-8.77614544 1.55834073 -5.49939416 0 0 0 Z " fill="#CDF9F3" transform="translate(132,89)"/>
<path d="M0 0 C4.34863652 0.56444825 7.17827655 2.15427964 10.8125 4.5625 C12.27623047 5.52349609 12.27623047 5.52349609 13.76953125 6.50390625 C14.50558594 6.99761719 15.24164063 7.49132812 16 8 C15.01 8.495 15.01 8.495 14 9 C9.09056248 6.89595535 4.36776963 4.0818273 0 1 C0 0.67 0 0.34 0 0 Z " fill="#D2F9F4" transform="translate(56,91)"/>
<path d="M0 0 C4.89839668 -0.34884724 7.65895937 0.53207378 11.875 3 C12.84179688 3.556875 13.80859375 4.11375 14.8046875 4.6875 C15.52914062 5.120625 16.25359375 5.55375 17 6 C17 6.33 17 6.66 17 7 C15.35 7 13.7 7 12 7 C12 6.34 12 5.68 12 5 C10.948125 4.71125 9.89625 4.4225 8.8125 4.125 C5.77181289 3.22774807 2.91287656 2.23576581 0 1 C0 0.67 0 0.34 0 0 Z " fill="#34B194" transform="translate(88,26)"/>
<path d="M0 0 C2.31 0 4.62 0 7 0 C-2.42857143 8 -2.42857143 8 -7 8 C-7.33 7.01 -7.66 6.02 -8 5 C-6.865625 4.731875 -5.73125 4.46375 -4.5625 4.1875 C-3.386875 3.795625 -2.21125 3.40375 -1 3 C-0.67 2.01 -0.34 1.02 0 0 Z " fill="#D9F9F5" transform="translate(77,28)"/>
<path d="M0 0 C0.33 0 0.66 0 1 0 C1.33 6.6 1.66 13.2 2 20 C1.01 20.33 0.02 20.66 -1 21 C-0.67 14.07 -0.34 7.14 0 0 Z " fill="#1CAB89" transform="translate(39,88)"/>
<path d="M0 0 C-4.62 2.64 -9.24 5.28 -14 8 C-14 7.01 -14 6.02 -14 5 C-11.953125 3.359375 -11.953125 3.359375 -9.25 1.75 C-8.36828125 1.20859375 -7.4865625 0.6671875 -6.578125 0.109375 C-4 -1 -4 -1 0 0 Z " fill="#D7FAF6" transform="translate(70,37)"/>
<path d="M0 0 C0.66 0 1.32 0 2 0 C0.50164772 4.66154042 -2.88463591 5.86610751 -7 8 C-7.33 6.35 -7.66 4.7 -8 3 C-7.01 2.67 -6.02 2.34 -5 2 C-5 2.66 -5 3.32 -5 4 C-1.87802522 2.6910428 -1.87802522 2.6910428 0 0 Z " fill="#23AB8B" transform="translate(155,139)"/>
<path d="M0 0 C-1.45264038 0.8638129 -2.9123163 1.71580454 -4.375 2.5625 C-5.59316406 3.27599609 -5.59316406 3.27599609 -6.8359375 4.00390625 C-7.55007812 4.33261719 -8.26421875 4.66132812 -9 5 C-9.66 4.67 -10.32 4.34 -11 4 C-10.67 2.68 -10.34 1.36 -10 0 C-6.26432828 -0.76411467 -3.65188082 -1.07174763 0 0 Z " fill="#DDF9F5" transform="translate(35,57)"/>
<path d="M0 0 C0.33 0 0.66 0 1 0 C1.08075665 2.29109597 1.13907731 4.58299267 1.1875 6.875 C1.22230469 8.15117187 1.25710937 9.42734375 1.29296875 10.7421875 C1.19628906 11.81726563 1.09960938 12.89234375 1 14 C0.01 14.66 -0.98 15.32 -2 16 C-2.66 15.34 -3.32 14.68 -4 14 C-3.525625 13.360625 -3.05125 12.72125 -2.5625 12.0625 C-0.52968613 8.07818481 -0.2789471 4.41505926 0 0 Z " fill="#D9F9F6" transform="translate(158,129)"/>
<path d="M0 0 C0.33 0 0.66 0 1 0 C1.20568145 5.75908058 0.83081979 10.50754063 -1 16 C-1.99 16.33 -2.98 16.66 -4 17 C-3.79503906 16.35933594 -3.59007812 15.71867187 -3.37890625 15.05859375 C-1.81172636 10.02712149 -0.56957826 5.24011997 0 0 Z " fill="#3FB296" transform="translate(141,99)"/>
<path d="M0 0 C-0.50603992 2.16874252 -0.99983813 3.99967627 -2 6 C-2.99 5.67 -3.98 5.34 -5 5 C-7.6569191 5.87914688 -7.6569191 5.87914688 -10 7 C-3.18421053 0 -3.18421053 0 0 0 Z " fill="#D3F9F1" transform="translate(119,94)"/>
<path d="M0 0 C3.96 1.98 7.92 3.96 12 6 C12 6.33 12 6.66 12 7 C7.6822542 6.49202991 3.96697886 5.80317221 0 4 C0 2.68 0 1.36 0 0 Z " fill="#32B092" transform="translate(60,135)"/>
<path d="M0 0 C0.33 1.32 0.66 2.64 1 4 C-4.53846154 3.38461538 -4.53846154 3.38461538 -6.875 1.4375 C-7.24625 0.963125 -7.6175 0.48875 -8 0 C-4.71023192 -1.09658936 -3.28696233 -0.79953138 0 0 Z " fill="#DDFAF7" transform="translate(127,40)"/>
<path d="M0 0 C0.53625 0.680625 1.0725 1.36125 1.625 2.0625 C4.35076561 5.43384168 7.16483178 8.72065543 10 12 C7 12 7 12 5.17578125 10.390625 C4.56089844 9.68421875 3.94601563 8.9778125 3.3125 8.25 C2.68988281 7.55390625 2.06726562 6.8578125 1.42578125 6.140625 C0 4 0 4 0 0 Z " fill="#2CAF8E" transform="translate(49,123)"/>
<path d="M0 0 C3.28465896 2.79196011 5.01321958 6.23196817 7 10 C7 10.66 7 11.32 7 12 C6.01 11.67 5.02 11.34 4 11 C4 9.68 4 8.36 4 7 C3.01 6.67 2.02 6.34 1 6 C0.67 4.02 0.34 2.04 0 0 Z " fill="#CAF7F1" transform="translate(78,106)"/>
<path d="M0 0 C2.97 0.33 5.94 0.66 9 1 C9.33 2.65 9.66 4.3 10 6 C6.40992874 4.66654496 3.20429093 3.1056769 0 1 C0 0.67 0 0.34 0 0 Z " fill="#D3F8F4" transform="translate(109,34)"/>
<path d="M0 0 C2.78211944 0.37596209 4.5879284 0.67318459 6.8125 2.4375 C8 4 8 4 8 6 C2.33846154 4.52307692 2.33846154 4.52307692 0.625 1.875 C0.41875 1.25625 0.2125 0.6375 0 0 Z " fill="#34B499" transform="translate(79,171)"/>
<path d="M0 0 C0.66 1.32 1.32 2.64 2 4 C1.01 5.32 0.02 6.64 -1 8 C-1 7.34 -1 6.68 -1 6 C-1.66 6 -2.32 6 -3 6 C-2.625 3.5625 -2.625 3.5625 -2 1 C-1.34 0.67 -0.68 0.34 0 0 Z " fill="#EBF7F8" transform="translate(133,116)"/>
<path d="M0 0 C0.99 0 1.98 0 3 0 C2.67 2.31 2.34 4.62 2 7 C-0.91517292 5.92598892 -2.77810176 5.22189824 -5 3 C-3.35 3 -1.7 3 0 3 C0 2.01 0 1.02 0 0 Z " fill="#DDFAF5" transform="translate(152,53)"/>
<path d="M0 0 C0.33 0 0.66 0 1 0 C1.12117188 0.67546875 1.24234375 1.3509375 1.3671875 2.046875 C1.53476563 2.93890625 1.70234375 3.8309375 1.875 4.75 C2.03742188 5.63171875 2.19984375 6.5134375 2.3671875 7.421875 C2.96796264 9.86947744 3.77997117 11.80599857 5 14 C3.68 13.67 2.36 13.34 1 13 C0.1276588 10.00519083 -0.10829766 7.36424089 -0.0625 4.25 C-0.05347656 3.45078125 -0.04445313 2.6515625 -0.03515625 1.828125 C-0.02355469 1.22484375 -0.01195313 0.6215625 0 0 Z " fill="#3AB194" transform="translate(74,72)"/>
<path d="M0 0 C0.66 0 1.32 0 2 0 C1 3 1 3 -0.84765625 4.16796875 C-1.57855469 4.50441406 -2.30945313 4.84085938 -3.0625 5.1875 C-3.79597656 5.53167969 -4.52945313 5.87585938 -5.28515625 6.23046875 C-6.13400391 6.61138672 -6.13400391 6.61138672 -7 7 C-6.67 5.68 -6.34 4.36 -6 3 C-4.02 2.67 -2.04 2.34 0 2 C0 1.34 0 0.68 0 0 Z " fill="#D1F9F4" transform="translate(119,134)"/>
<path d="M0 0 C1.32 0 2.64 0 4 0 C2.55049545 3.7910119 0.84827434 7.3874638 -1 11 C-2.26224414 7.21326759 -1.32806648 5.6717132 0 2 C0 1.34 0 0.68 0 0 Z " fill="#2AA687" transform="translate(97,109)"/>
<path d="M0 0 C1.65 0.33 3.3 0.66 5 1 C4.67 1.99 4.34 2.98 4 4 C2.02 4 0.04 4 -2 4 C-1.34 2.68 -0.68 1.36 0 0 Z " fill="#05C28F" transform="translate(132,83)"/>
<path d="M0 0 C1.33597652 0.80814651 2.668725 1.62163181 4 2.4375 C5.11375 3.11619141 5.11375 3.11619141 6.25 3.80859375 C6.8275 4.20175781 7.405 4.59492188 8 5 C8 5.33 8 5.66 8 6 C6.02 6 4.04 6 2 6 C1.34 4.02 0.68 2.04 0 0 Z " fill="#C5F6ED" transform="translate(25,141)"/>
<path d="M0 0 C1.65 0.99 3.3 1.98 5 3 C4.67 3.99 4.34 4.98 4 6 C2.68 5.34 1.36 4.68 0 4 C0 2.68 0 1.36 0 0 Z " fill="#11B58A" transform="translate(71,95)"/>
<path d="M0 0 C0.66 0.33 1.32 0.66 2 1 C2 1.66 2 2.32 2 3 C-1 4.5 -1 4.5 -4 6 C-4.99 5.34 -5.98 4.68 -7 4 C-1.7265625 0.77734375 -1.7265625 0.77734375 0 0 Z " fill="#2EB694" transform="translate(61,41)"/>
<path d="M0 0 C3.96 1.98 3.96 1.98 8 4 C8 4.33 8 4.66 8 5 C6.35 5 4.7 5 3 5 C3 4.34 3 3.68 3 3 C2.01 2.67 1.02 2.34 0 2 C0 1.34 0 0.68 0 0 Z " fill="#CAF7F1" transform="translate(44,153)"/>
<path d="M0 0 C0 0.66 0 1.32 0 2 C-3.13498292 3.85776765 -5.37471432 4.20140476 -9 4 C-6.10130984 1.70103884 -3.84906588 0 0 0 Z " fill="#29AF8B" transform="translate(115,140)"/>
<path d="M0 0 C1.70884005 1.62339805 3.37446717 3.29319053 5 5 C5 5.66 5 6.32 5 7 C3.0625 6.3125 3.0625 6.3125 1 5 C0.25 2.375 0.25 2.375 0 0 Z " fill="#D1FBF4" transform="translate(101,62)"/>
<path d="M0 0 C0.99 0.33 1.98 0.66 3 1 C2 3 2 3 0.15234375 3.6328125 C-0.57855469 3.79523437 -1.30945313 3.95765625 -2.0625 4.125 C-2.79597656 4.29257812 -3.52945313 4.46015625 -4.28515625 4.6328125 C-4.85105469 4.75398438 -5.41695313 4.87515625 -6 5 C-2.25 1.125 -2.25 1.125 0 0 Z " fill="#29B28E" transform="translate(84,28)"/>
</svg>
