<?xml version="1.0" encoding="UTF-8"?>
<!DOCTYPE svg PUBLIC "-//W3C//DTD SVG 1.1//EN" "http://www.w3.org/Graphics/SVG/1.1/DTD/svg11.dtd">
<svg xmlns="http://www.w3.org/2000/svg" version="1.1" width="181px" height="198px" style="shape-rendering:geometricPrecision; text-rendering:geometricPrecision; image-rendering:optimizeQuality; fill-rule:evenodd; clip-rule:evenodd" xmlns:xlink="http://www.w3.org/1999/xlink">
<g><path style="opacity:1" fill="#10bc93" d="M 154.5,62.5 C 152.459,62.8541 150.626,62.8541 149,62.5C 148,63.1667 147,63.8333 146,64.5C 145.917,74.5028 145.917,84.5028 146,94.5C 144.989,95.3366 143.822,95.67 142.5,95.5C 142.777,92.5525 142.444,89.7191 141.5,87C 130.896,86.2004 121.229,88.867 112.5,95C 108.241,99.0886 104.241,103.255 100.5,107.5C 98.8211,107.892 97.1545,108.392 95.5,109C 96.6537,109.914 96.487,110.747 95,111.5C 93.2871,108.985 93.1205,106.318 94.5,103.5C 95.2508,104.376 95.7508,105.376 96,106.5C 96.6667,104.5 98,103.167 100,102.5C 101.903,100.559 102.736,98.2257 102.5,95.5C 101.448,95.3505 100.448,95.5172 99.5,96C 98.6364,97.6965 97.3031,98.8632 95.5,99.5C 94.7952,97.3279 93.7952,95.3279 92.5,93.5C 98.9937,93.4049 103.994,90.4049 107.5,84.5C 108.098,83.0234 108.098,81.3567 107.5,79.5C 108.99,63.2888 101.657,55.7888 85.5,57C 84.4734,57.5133 83.4734,58.0133 82.5,58.5C 82.4142,57.5041 82.7476,56.6708 83.5,56C 80.1724,56.8331 78.8391,55.3331 79.5,51.5C 81.4835,51.3832 83.1502,52.0499 84.5,53.5C 84.8333,53.1667 85.1667,52.8333 85.5,52.5C 83.3171,50.1496 80.9837,47.983 78.5,46C 79.3366,44.9887 79.67,43.8221 79.5,42.5C 76.9394,42.5531 74.9394,41.5531 73.5,39.5C 74.2421,38.7132 75.0754,38.0465 76,37.5C 77.1827,38.731 78.3493,38.731 79.5,37.5C 79.1667,36.5 78.5,35.8333 77.5,35.5C 74.8854,37.3521 72.2188,38.1854 69.5,38C 68.5419,39.1475 68.8753,40.1475 70.5,41C 67.8064,40.3881 65.1397,40.5548 62.5,41.5C 62.8333,40.8333 63.1667,40.1667 63.5,39.5C 65.3356,37.412 67.6689,36.0787 70.5,35.5C 74.4381,34.7812 77.9381,33.1145 81,30.5C 82.4411,31.2598 83.9411,31.9264 85.5,32.5C 86.0653,30.4904 87.0653,28.8237 88.5,27.5C 89.6956,27.8457 89.6956,28.3457 88.5,29C 92.8333,30 97.1667,31 101.5,32C 102.648,33.6487 103.981,35.1487 105.5,36.5C 109.262,37.0303 112.929,38.197 116.5,40C 129.265,47.6123 141.932,55.1123 154.5,62.5 Z"/></g>
<g><path style="opacity:1" fill="#0fbc93" d="M 82.5,58.5 C 79.676,58.9893 78.3426,60.656 78.5,63.5C 76.3763,64.0312 74.8763,65.3645 74,67.5C 71.486,77.1552 74.3194,84.4885 82.5,89.5C 81.2317,90.787 81.565,91.787 83.5,92.5C 83,92.8333 82.5,93.1667 82,93.5C 80.125,92.7454 78.125,91.7454 76,90.5C 75.6667,91.1667 75.3333,91.8333 75,92.5C 72.9763,87.3399 69.8096,83.3399 65.5,80.5C 65.8186,78.2495 65.3186,76.2495 64,74.5C 63.6905,75.7659 63.1905,76.9326 62.5,78C 64.02,79.8847 65.02,82.0514 65.5,84.5C 66.9814,85.4803 68.3147,86.647 69.5,88C 67.1167,88.065 66.45,88.8983 67.5,90.5C 67,90.8333 66.5,91.1667 66,91.5C 63.7903,89.8891 61.2903,89.2224 58.5,89.5C 55.7471,88.9778 53.0804,88.1445 50.5,87C 46.6425,86.1901 42.9758,86.3567 39.5,87.5C 38.8022,93.6125 37.8022,99.7792 36.5,106C 37.7596,107.814 37.7596,109.647 36.5,111.5C 35.5344,109.604 35.2011,107.604 35.5,105.5C 34.5,105.5 33.5,105.5 32.5,105.5C 32.1729,103.512 31.8396,101.512 31.5,99.5C 33.5791,93.0678 33.5791,86.7344 31.5,80.5C 32.2861,75.2187 32.7861,69.8854 33,64.5C 33.7815,61.9266 35.2815,59.9266 37.5,58.5C 40.0756,59.8834 39.7423,60.7167 36.5,61C 39.9632,62.0351 42.7965,61.2017 45,58.5C 45.3333,58.8333 45.6667,59.1667 46,59.5C 48.87,55.6675 52.0367,52.1675 55.5,49C 54.244,48.5831 53.5774,47.7498 53.5,46.5C 56.2622,44.4042 59.2622,42.7375 62.5,41.5C 65.1397,40.5548 67.8064,40.3881 70.5,41C 68.8753,40.1475 68.5419,39.1475 69.5,38C 72.2188,38.1854 74.8854,37.3521 77.5,35.5C 78.5,35.8333 79.1667,36.5 79.5,37.5C 78.3493,38.731 77.1827,38.731 76,37.5C 75.0754,38.0465 74.2421,38.7132 73.5,39.5C 74.9394,41.5531 76.9394,42.5531 79.5,42.5C 79.67,43.8221 79.3366,44.9887 78.5,46C 80.9837,47.983 83.3171,50.1496 85.5,52.5C 85.1667,52.8333 84.8333,53.1667 84.5,53.5C 83.1502,52.0499 81.4835,51.3832 79.5,51.5C 78.8391,55.3331 80.1724,56.8331 83.5,56C 82.7476,56.6708 82.4142,57.5041 82.5,58.5 Z"/></g>
<g><path style="opacity:0.349" fill="#339680" d="M 63.5,39.5 C 63.1667,40.1667 62.8333,40.8333 62.5,41.5C 59.2622,42.7375 56.2622,44.4042 53.5,46.5C 46.4079,50.7127 39.0746,54.3794 31.5,57.5C 41.835,50.9968 52.5017,44.9968 63.5,39.5 Z"/></g>
<g><path style="opacity:0.337" fill="#329880" d="M 69.5,168.5 C 70.2506,167.427 71.2506,167.26 72.5,168C 77.6678,170.416 82.6678,173.083 87.5,176C 89.8333,176.667 92.1667,176.667 94.5,176C 101.528,171.822 108.528,167.655 115.5,163.5C 121.757,159.91 128.09,156.41 134.5,153C 135.381,152.292 136.047,151.458 136.5,150.5C 141.273,147.73 146.273,145.23 151.5,143C 152.667,141.833 153.833,140.667 155,139.5C 155.823,113.761 155.657,88.0944 154.5,62.5C 141.932,55.1123 129.265,47.6123 116.5,40C 112.929,38.197 109.262,37.0303 105.5,36.5C 103.981,35.1487 102.648,33.6487 101.5,32C 97.1667,31 92.8333,30 88.5,29C 89.6956,28.3457 89.6956,27.8457 88.5,27.5C 87.0653,28.8237 86.0653,30.4904 85.5,32.5C 83.9411,31.9264 82.4411,31.2598 81,30.5C 77.9381,33.1145 74.4381,34.7812 70.5,35.5C 75.7676,31.5239 81.4343,28.0239 87.5,25C 89.1667,24.3333 90.8333,24.3333 92.5,25C 113.403,36.2336 134.07,47.9002 154.5,60C 155.333,60.8333 156.167,61.6667 157,62.5C 157.297,82.8393 157.797,103.173 158.5,123.5C 158.464,128.88 157.964,134.214 157,139.5C 156.215,141.286 155.049,142.786 153.5,144C 134.029,155.572 114.362,166.906 94.5,178C 91.8333,178.667 89.1667,178.667 86.5,178C 80.8061,174.821 75.1394,171.655 69.5,168.5 Z"/></g>
<g><path style="opacity:1" fill="#12b993" d="M 53.5,46.5 C 53.5774,47.7498 54.244,48.5831 55.5,49C 52.0367,52.1675 48.87,55.6675 46,59.5C 45.6667,59.1667 45.3333,58.8333 45,58.5C 42.7965,61.2017 39.9632,62.0351 36.5,61C 39.7423,60.7167 40.0756,59.8834 37.5,58.5C 35.2815,59.9266 33.7815,61.9266 33,64.5C 32.7861,69.8854 32.2861,75.2187 31.5,80.5C 33.5791,86.7344 33.5791,93.0678 31.5,99.5C 31.8396,101.512 32.1729,103.512 32.5,105.5C 33.5,105.5 34.5,105.5 35.5,105.5C 35.2011,107.604 35.5344,109.604 36.5,111.5C 37.7596,109.647 37.7596,107.814 36.5,106C 37.8022,99.7792 38.8022,93.6125 39.5,87.5C 38.5842,101.396 41.9175,114.062 49.5,125.5C 47.8762,125.36 46.7096,126.027 46,127.5C 44.0662,123.669 42.5662,119.669 41.5,115.5C 39.1408,112.962 37.6408,113.629 37,117.5C 33.6837,107.955 31.5171,108.289 30.5,118.5C 32.4461,124.074 32.4461,129.741 30.5,135.5C 29.5159,132.572 29.1826,129.572 29.5,126.5C 26.0504,126.573 24.717,128.406 25.5,132C 25.6856,134.853 26.6856,137.353 28.5,139.5C 29.325,140.386 30.325,140.719 31.5,140.5C 31.5,141.5 31.5,142.5 31.5,143.5C 28.5722,142.409 26.4055,140.409 25,137.5C 24.3418,112.812 24.8418,88.1449 26.5,63.5C 29.285,62.3857 30.9517,60.3857 31.5,57.5C 39.0746,54.3794 46.4079,50.7127 53.5,46.5 Z"/></g>
<g><path style="opacity:0.631" fill="#34917b" d="M 107.5,79.5 C 105.485,81.6761 103.818,84.1761 102.5,87C 96.3668,91.8855 89.7001,92.7188 82.5,89.5C 74.3194,84.4885 71.486,77.1552 74,67.5C 74.8763,65.3645 76.3763,64.0312 78.5,63.5C 78.3426,60.656 79.676,58.9893 82.5,58.5C 83.4734,58.0133 84.4734,57.5133 85.5,57C 101.657,55.7888 108.99,63.2888 107.5,79.5 Z M 78.5,63.5 C 84.3518,58.3068 91.0185,57.1401 98.5,60C 106.4,67.1414 107.566,75.3081 102,84.5C 95.6813,90.2831 88.848,90.9498 81.5,86.5C 74.8429,79.5767 73.8429,71.9101 78.5,63.5 Z"/></g>
<g><path style="opacity:1" fill="#319b7f" d="M 31.5,57.5 C 30.9517,60.3857 29.285,62.3857 26.5,63.5C 24.8418,88.1449 24.3418,112.812 25,137.5C 26.4055,140.409 28.5722,142.409 31.5,143.5C 34.3283,145.47 37.3283,147.303 40.5,149C 41.7383,149.69 41.7383,150.19 40.5,150.5C 34.4456,148.057 28.9456,144.724 24,140.5C 23.6667,139.167 23.3333,137.833 23,136.5C 22.3333,113.833 22.3333,91.1667 23,68.5C 23.0163,62.6509 25.8497,58.9843 31.5,57.5 Z"/></g>
<g><path style="opacity:1" fill="#15b992" d="M 82.5,89.5 C 89.7001,92.7188 96.3668,91.8855 102.5,87C 103.818,84.1761 105.485,81.6761 107.5,79.5C 108.098,81.3567 108.098,83.0234 107.5,84.5C 103.994,90.4049 98.9937,93.4049 92.5,93.5C 93.7952,95.3279 94.7952,97.3279 95.5,99.5C 97.3031,98.8632 98.6364,97.6965 99.5,96C 100.448,95.5172 101.448,95.3505 102.5,95.5C 102.736,98.2257 101.903,100.559 100,102.5C 98,103.167 96.6667,104.5 96,106.5C 95.7508,105.376 95.2508,104.376 94.5,103.5C 93.1205,106.318 93.2871,108.985 95,111.5C 96.487,110.747 96.6537,109.914 95.5,109C 97.1545,108.392 98.8211,107.892 100.5,107.5C 98.4715,109.713 96.8049,112.213 95.5,115C 96.0944,115.464 96.7611,115.631 97.5,115.5C 97.6716,116.492 97.3382,117.158 96.5,117.5C 93.0991,120.989 91.2658,125.323 91,130.5C 89.0346,125.991 87.3679,121.324 86,116.5C 85.3292,115.748 84.4959,115.414 83.5,115.5C 79.668,107.993 74.3346,101.66 67.5,96.5C 66.5251,94.8073 65.1918,93.3073 63.5,92C 61.5087,91.6264 59.842,90.793 58.5,89.5C 61.2903,89.2224 63.7903,89.8891 66,91.5C 66.5,91.1667 67,90.8333 67.5,90.5C 66.45,88.8983 67.1167,88.065 69.5,88C 68.3147,86.647 66.9814,85.4803 65.5,84.5C 65.02,82.0514 64.02,79.8847 62.5,78C 63.1905,76.9326 63.6905,75.7659 64,74.5C 65.3186,76.2495 65.8186,78.2495 65.5,80.5C 69.8096,83.3399 72.9763,87.3399 75,92.5C 75.3333,91.8333 75.6667,91.1667 76,90.5C 78.125,91.7454 80.125,92.7454 82,93.5C 82.5,93.1667 83,92.8333 83.5,92.5C 81.565,91.787 81.2317,90.787 82.5,89.5 Z"/></g>
<g><path style="opacity:0.078" fill="#318c74" d="M 142.5,95.5 C 141.833,97.1667 141.167,98.8333 140.5,100.5C 140.5,96.5 140.5,92.5 140.5,88.5C 120.815,89.1666 106.481,98.1666 97.5,115.5C 96.7611,115.631 96.0944,115.464 95.5,115C 96.8049,112.213 98.4715,109.713 100.5,107.5C 104.241,103.255 108.241,99.0886 112.5,95C 121.229,88.867 130.896,86.2004 141.5,87C 142.444,89.7191 142.777,92.5525 142.5,95.5 Z"/></g>
<g><path style="opacity:0.643" fill="#37927d" d="M 139.5,101.5 C 140.586,101.62 141.253,102.287 141.5,103.5C 140.109,108.611 138.442,113.611 136.5,118.5C 130.639,128.192 122.639,135.692 112.5,141C 110.527,141.495 108.527,141.662 106.5,141.5C 125.016,134.52 136.016,121.187 139.5,101.5 Z"/></g>
<g><path style="opacity:1" fill="#10bc93" d="M 154.5,62.5 C 155.657,88.0944 155.823,113.761 155,139.5C 153.833,140.667 152.667,141.833 151.5,143C 146.273,145.23 141.273,147.73 136.5,150.5C 134.856,150.286 133.356,150.62 132,151.5C 132,150.167 132,148.833 132,147.5C 130.667,146.833 129.333,146.167 128,145.5C 127.872,142.486 127.872,139.486 128,136.5C 126.511,140.218 125.678,140.218 125.5,136.5C 125.833,135.5 126.167,134.5 126.5,133.5C 128.382,132.907 130.215,132.24 132,131.5C 132.72,129.888 132.554,128.388 131.5,127C 132.685,125.647 134.019,124.48 135.5,123.5C 136.452,121.955 136.785,120.288 136.5,118.5C 138.442,113.611 140.109,108.611 141.5,103.5C 141.253,102.287 140.586,101.62 139.5,101.5C 139.5,100.833 139.833,100.5 140.5,100.5C 141.167,98.8333 141.833,97.1667 142.5,95.5C 143.822,95.67 144.989,95.3366 146,94.5C 145.917,84.5028 145.917,74.5028 146,64.5C 147,63.8333 148,63.1667 149,62.5C 150.626,62.8541 152.459,62.8541 154.5,62.5 Z"/></g>
<g><path style="opacity:0.42" fill="#298569" d="M 83.5,115.5 C 84.4959,115.414 85.3292,115.748 86,116.5C 87.3679,121.324 89.0346,125.991 91,130.5C 91.2658,125.323 93.0991,120.989 96.5,117.5C 93.766,124.903 92.4326,132.57 92.5,140.5C 90.8762,140.64 89.7096,139.973 89,138.5C 88.498,130.485 86.6647,122.818 83.5,115.5 Z"/></g>
<g><path style="opacity:1" fill="#12bb93" d="M 136.5,118.5 C 136.785,120.288 136.452,121.955 135.5,123.5C 134.019,124.48 132.685,125.647 131.5,127C 132.554,128.388 132.72,129.888 132,131.5C 130.215,132.24 128.382,132.907 126.5,133.5C 126.167,134.5 125.833,135.5 125.5,136.5C 125.678,140.218 126.511,140.218 128,136.5C 127.872,139.486 127.872,142.486 128,145.5C 129.333,146.167 130.667,146.833 132,147.5C 132,148.833 132,150.167 132,151.5C 133.356,150.62 134.856,150.286 136.5,150.5C 136.047,151.458 135.381,152.292 134.5,153C 128.09,156.41 121.757,159.91 115.5,163.5C 115.423,162.25 114.756,161.417 113.5,161C 114.167,160.667 114.833,160.333 115.5,160C 114.207,159.51 112.873,159.343 111.5,159.5C 111.67,158.178 111.337,157.011 110.5,156C 108.167,155.667 105.833,155.333 103.5,155C 106.273,153.518 108.94,151.852 111.5,150C 112.833,149 112.833,148 111.5,147C 106.917,146.117 102.583,146.784 98.5,149C 96.6707,150.113 95.8374,151.613 96,153.5C 98.2421,152.825 100.409,153.325 102.5,155C 100.782,155.346 99.1151,155.846 97.5,156.5C 91.561,155.543 85.561,155.21 79.5,155.5C 79.5,153.5 79.5,151.5 79.5,149.5C 81.5273,149.662 83.5273,149.495 85.5,149C 84.8333,148.667 84.1667,148.333 83.5,148C 84.8333,147.667 86.1667,147.333 87.5,147C 85.9419,146.79 84.6085,146.29 83.5,145.5C 90.2217,145.71 96.8883,145.21 103.5,144C 104.942,143.623 105.942,142.79 106.5,141.5C 108.527,141.662 110.527,141.495 112.5,141C 122.639,135.692 130.639,128.192 136.5,118.5 Z"/></g>
<g><path style="opacity:1" fill="#10bc93" d="M 49.5,125.5 C 58.0084,136.617 69.3417,143.283 83.5,145.5C 84.6085,146.29 85.9419,146.79 87.5,147C 86.1667,147.333 84.8333,147.667 83.5,148C 84.1667,148.333 84.8333,148.667 85.5,149C 83.5273,149.495 81.5273,149.662 79.5,149.5C 79.5,151.5 79.5,153.5 79.5,155.5C 85.561,155.21 91.561,155.543 97.5,156.5C 99.1151,155.846 100.782,155.346 102.5,155C 100.409,153.325 98.2421,152.825 96,153.5C 95.8374,151.613 96.6707,150.113 98.5,149C 102.583,146.784 106.917,146.117 111.5,147C 112.833,148 112.833,149 111.5,150C 108.94,151.852 106.273,153.518 103.5,155C 105.833,155.333 108.167,155.667 110.5,156C 111.337,157.011 111.67,158.178 111.5,159.5C 112.873,159.343 114.207,159.51 115.5,160C 114.833,160.333 114.167,160.667 113.5,161C 114.756,161.417 115.423,162.25 115.5,163.5C 108.528,167.655 101.528,171.822 94.5,176C 92.1667,176.667 89.8333,176.667 87.5,176C 82.6678,173.083 77.6678,170.416 72.5,168C 71.2506,167.26 70.2506,167.427 69.5,168.5C 68.5,168.167 67.8333,167.5 67.5,166.5C 68.2389,166.631 68.9056,166.464 69.5,166C 60.7215,160.613 51.7215,155.78 42.5,151.5C 41.5084,151.672 40.8417,151.338 40.5,150.5C 41.7383,150.19 41.7383,149.69 40.5,149C 37.3283,147.303 34.3283,145.47 31.5,143.5C 31.5,142.5 31.5,141.5 31.5,140.5C 30.325,140.719 29.325,140.386 28.5,139.5C 26.6856,137.353 25.6856,134.853 25.5,132C 24.717,128.406 26.0504,126.573 29.5,126.5C 29.1826,129.572 29.5159,132.572 30.5,135.5C 32.4461,129.741 32.4461,124.074 30.5,118.5C 31.5171,108.289 33.6837,107.955 37,117.5C 37.6408,113.629 39.1408,112.962 41.5,115.5C 42.5662,119.669 44.0662,123.669 46,127.5C 46.7096,126.027 47.8762,125.36 49.5,125.5 Z"/></g>
<g><path style="opacity:0.664" fill="#37927c" d="M 58.5,89.5 C 59.842,90.793 61.5087,91.6264 63.5,92C 65.1918,93.3073 66.5251,94.8073 67.5,96.5C 59.2595,91.4213 50.2595,88.7546 40.5,88.5C 40.0825,110.839 49.4159,127.672 68.5,139C 80.8882,143.929 93.5549,144.762 106.5,141.5C 105.942,142.79 104.942,143.623 103.5,144C 96.8883,145.21 90.2217,145.71 83.5,145.5C 69.3417,143.283 58.0084,136.617 49.5,125.5C 41.9175,114.062 38.5842,101.396 39.5,87.5C 42.9758,86.3567 46.6425,86.1901 50.5,87C 53.0804,88.1445 55.7471,88.9778 58.5,89.5 Z"/></g>
<g><path style="opacity:0.592" fill="#2e8974" d="M 42.5,151.5 C 51.7215,155.78 60.7215,160.613 69.5,166C 68.9056,166.464 68.2389,166.631 67.5,166.5C 58.6614,162.251 50.3281,157.251 42.5,151.5 Z"/></g>
</svg>
