<?xml version="1.0" encoding="UTF-8"?>
<svg version="1.1" xmlns="http://www.w3.org/2000/svg" width="1858" height="1867">
<path d="M0 0 C0.69941711 0.17017639 1.39883423 0.34035278 2.1194458 0.51568604 C24.47183192 5.95899329 46.24926854 12.749361 67.97442627 20.29876709 C71.0192999 21.3528712 74.07091173 22.38715472 77.12109375 23.42578125 C108.83164403 34.35680808 139.64319423 47.77936341 170 62 C171.13598633 62.53077148 172.27197266 63.06154297 173.44238281 63.60839844 C206.07615495 78.91124074 236.71896758 96.3398781 266.6875 116.3125 C267.59023651 116.91409943 268.49297302 117.51569885 269.42306519 118.13552856 C283.6894537 127.65916953 297.74795137 137.3878078 311.375 147.8125 C312.26638672 148.4933667 313.15777344 149.1742334 314.07617188 149.87573242 C322.18142185 156.09319019 330.14502087 162.46977777 338 169 C338.58749023 169.48839355 339.17498047 169.97678711 339.78027344 170.47998047 C346.22134413 175.85114782 352.55098535 181.33098748 358.7578125 186.97265625 C360.71208424 188.73967199 362.69059737 190.46913529 364.6875 192.1875 C376.38082975 202.40623185 387.45921807 213.29519642 398.41894531 224.28857422 C400.52293737 226.39799657 402.63232035 228.50192439 404.7421875 230.60546875 C406.10969622 231.97363735 407.4768952 233.34211561 408.84375 234.7109375 C409.46052612 235.32568939 410.07730225 235.94044128 410.71276855 236.57382202 C414.439801 240.32070879 417.97946252 244.1852069 421.4281311 248.1900177 C423.83826476 250.96524868 426.36073963 253.63200405 428.875 256.3125 C433.33504356 261.1064914 437.56309553 266.02510996 441.6640625 271.1328125 C444.33875799 274.41579994 447.10240701 277.61233702 449.875 280.8125 C472.09871013 306.60574893 490.72007277 334.72906593 508 364 C508.694582 365.17218132 509.3894091 366.34421744 510.08447266 367.51611328 C520.35819486 384.84473867 530.39979612 402.28676436 540 420 C540.5887793 421.0842627 541.17755859 422.16852539 541.78417969 423.28564453 C563.8252203 464.12782652 579.914124 507.54161042 593 552 C593.52835449 553.78857422 593.52835449 553.78857422 594.06738281 555.61328125 C599.08596361 572.87289894 602.94568284 590.3784289 606.75 607.9375 C606.98283691 609.00911377 607.21567383 610.08072754 607.45556641 611.18481445 C609.02649058 618.44546789 610.5436313 625.71549093 612 633 C612.18897858 633.94316071 612.37795715 634.88632141 612.57266235 635.85806274 C615.79540768 652.24877621 617.34958841 668.67497391 618.6875 685.3125 C618.90081381 687.84968342 619.11500332 690.38679337 619.33007812 692.92382812 C619.91964041 699.94681792 620.47303823 706.97204782 621 714 C621.06330505 714.83232147 621.12661011 715.66464294 621.1918335 716.52218628 C622.29294783 731.46986429 622.24552925 746.45675617 622.25 761.4375 C622.25044186 762.1181036 622.25088371 762.7987072 622.25133896 763.49993515 C622.25968131 788.09919268 621.47889794 812.51365621 619 837 C618.91278687 837.86566589 618.82557373 838.73133179 618.73571777 839.62322998 C612.21105761 903.5939046 595.10516343 965.40307791 574 1026 C573.56977539 1027.23943359 573.13955078 1028.47886719 572.69628906 1029.75585938 C567.18235021 1045.50136157 560.78691839 1060.66494144 553.57519531 1075.70556641 C551.96652182 1079.07001775 550.38402058 1082.44590705 548.8046875 1085.82421875 C542.25600021 1099.74129162 535.16869561 1113.2078159 527.43994141 1126.50341797 C525.7575759 1129.42031687 524.12929351 1132.36437831 522.50610352 1135.31445312 C504.89529395 1167.21267068 483.28783912 1197.24497489 461 1226 C460.47245117 1226.68352539 459.94490234 1227.36705078 459.40136719 1228.07128906 C453.64929266 1235.51806903 447.71816234 1242.77969449 441.6015625 1249.9296875 C439.25742299 1252.67734045 437.00116684 1255.48800228 434.75 1258.3125 C430.30646967 1263.77900134 425.51697547 1268.88760347 420.66699219 1273.99145508 C417.28170954 1277.55398003 413.95765731 1281.15580535 410.69140625 1284.828125 C405.78692715 1290.2987468 400.6430355 1295.50458088 395.4375 1300.6875 C394.09655273 1302.03424805 394.09655273 1302.03424805 392.72851562 1303.40820312 C388.21525398 1307.91486161 383.64758565 1312.28401721 378.80737305 1316.43774414 C376.02845983 1318.83977922 373.36594202 1321.36229583 370.6875 1323.875 C365.86231115 1328.36949491 360.89036681 1332.59379848 355.74609375 1336.72265625 C352.73678327 1339.21828642 349.86101756 1341.83806559 347 1344.5 C342.47254198 1348.70205376 337.82928583 1352.70266011 333.015625 1356.57421875 C330.80357784 1358.35359865 328.60793161 1360.14630553 326.421875 1361.95703125 C302.92434844 1381.35999833 277.70706905 1398.67054427 252 1415 C251.18418457 1415.52126465 250.36836914 1416.0425293 249.52783203 1416.57958984 C230.56633023 1428.66220793 210.91153101 1439.59372332 190.90966797 1449.85620117 C187.73397135 1451.49606204 184.84163832 1453.11259937 181.91796875 1455.19140625 C178.5660661 1457.26895769 176.01933948 1457.7731421 172.125 1458.25 C170.97257812 1458.39953125 169.82015625 1458.5490625 168.6328125 1458.703125 C167.76398437 1458.80109375 166.89515625 1458.8990625 166 1459 C162.37319033 1448.11957099 166.92314979 1439.45727419 171.63586426 1429.78945923 C172.83519366 1427.32843257 174.00813479 1424.85629965 175.17480469 1422.37963867 C176.73115245 1419.07883372 178.29545589 1415.78204314 179.86767578 1412.48876953 C195.15552423 1380.39532747 206.81822872 1347.03156577 218.15435791 1313.39237976 C221.14909879 1304.52292399 224.23511151 1295.68652429 227.33599854 1286.85372925 C233.92892461 1268.07236499 240.34837176 1249.23506002 246.72439575 1230.37905884 C252.26392366 1214.001908 257.87736635 1197.65385645 263.59863281 1181.33935547 C268.47882439 1167.41953942 273.26226596 1153.46891695 278 1139.5 C283.09618293 1124.47478962 288.25410063 1109.47359968 293.5 1094.5 C300.50315598 1074.50665724 307.33813719 1054.45808744 314.14407349 1034.3968811 C316.2168078 1028.2920425 318.30485884 1022.19268599 320.40625 1016.09765625 C325.78559233 1000.48341103 331.04823481 984.84315362 336.11355591 969.12387085 C378.88088839 836.50200031 378.88088839 836.50200031 426.49609375 811.57421875 C435.93013744 806.86648142 445.57167089 803.21648765 455.6328125 800.09375 C458.80693539 799.34441995 458.80693539 799.34441995 460 798 C460.50042146 795.08461971 460.50042146 795.08461971 460 792 C456.22939596 789.02825345 453.29699125 788.62636186 448.57539368 788.63250732 C447.27665817 788.62693817 445.97792267 788.62136902 444.63983154 788.6156311 C443.20690736 788.62465397 441.773985 788.63397176 440.34106445 788.64355469 C438.82588076 788.64276337 437.31069727 788.64066475 435.79551697 788.63735962 C431.67839942 788.63222402 427.56153184 788.64577597 423.44445443 788.66288662 C419.1111033 788.67797658 414.77775473 788.67675035 410.44438171 788.67755127 C403.14492573 788.68124684 395.84556357 788.69620845 388.54614258 788.71875 C379.25684297 788.74738319 369.96761979 788.75795383 360.67828083 788.7624321 C352.62136999 788.76646069 344.56447493 788.77897116 336.50757575 788.79277897 C333.9574212 788.7968248 331.40726717 788.79977749 328.85711098 788.80257416 C313.30084763 788.8227621 297.7427469 788.86833419 282.19213867 789.32519531 C281.16048993 789.34689159 280.12884119 789.36858788 279.06593037 789.39094162 C273.11097628 789.60583016 268.38517564 790.36533293 263 793 C262.67 793.99 262.34 794.98 262 796 C264.4918776 799.7378164 265.74574838 799.76079344 270.01171875 800.8671875 C271.23769775 801.19275635 272.46367676 801.5183252 273.72680664 801.85375977 C274.37424835 802.02046173 275.02169006 802.1871637 275.68875122 802.35891724 C279.02094897 803.21930041 282.3415517 804.12261227 285.6640625 805.01953125 C286.31188187 805.19336838 286.95970123 805.36720551 287.62715149 805.54631042 C306.00293236 810.48363549 323.41323704 817.00724833 333.7109375 834.01953125 C337.31313912 842.34825802 338.50517307 850.35415604 338.375 859.375 C338.35977295 860.93855225 338.35977295 860.93855225 338.34423828 862.53369141 C338.14183313 872.8689066 336.94010209 882.85614234 335 893 C334.83322754 893.89090332 334.66645508 894.78180664 334.49462891 895.69970703 C329.92668323 919.26134508 322.18087888 942.13925732 315 965 C314.70414001 965.94367432 314.40828003 966.88734863 314.10345459 967.85961914 C297.23104302 1021.64712153 279.56272383 1075.2278648 261.2832489 1128.55317688 C260.96934708 1129.46890976 260.65544525 1130.38464264 260.33203125 1131.328125 C260.01116043 1132.26403976 259.69028961 1133.19995453 259.35969543 1134.16423035 C254.0493781 1149.67363236 248.81849792 1165.21013976 243.57608795 1180.74259186 C242.69233002 1183.36069125 241.80821715 1185.97867053 240.92401123 1188.59661865 C234.98408917 1206.18502044 229.05877844 1223.77787959 223.21484375 1241.3984375 C222.76966543 1242.73974163 222.32447018 1244.08104014 221.8792572 1245.42233276 C219.85357519 1251.5271716 217.83366571 1257.63385034 215.82299805 1263.74365234 C206.16222722 1293.00371675 206.16222722 1293.00371675 199 1299 C192.04295908 1295.9161827 188.19366464 1290.11926493 185.43969727 1283.20629883 C184.62984861 1280.96322481 183.83978887 1278.71293799 183.06640625 1276.45703125 C182.6316095 1275.23711487 182.19681274 1274.01719849 181.74884033 1272.76031494 C180.57582196 1269.46839093 179.42526461 1266.16903061 178.27887344 1262.86775589 C177.06942242 1259.39787384 175.83878801 1255.93552115 174.61010742 1252.47241211 C172.63654663 1246.90255314 170.67410307 1241.32891319 168.72070312 1235.75195312 C166.3946517 1229.11261036 164.04250775 1222.4829249 161.671875 1215.859375 C157.75695003 1204.91480427 153.87228339 1193.95972577 150 1183 C149.63495361 1181.9669574 149.26990723 1180.93391479 148.89379883 1179.86956787 C133.60773028 1136.60165543 133.60773028 1136.60165543 126.6484375 1116.40234375 C119.57698243 1095.88398828 112.39161332 1075.42264753 104.875 1055.0625 C104.10733821 1052.9816903 103.3396787 1050.90087975 102.57202148 1048.82006836 C101.44326861 1045.76118785 100.31448155 1042.70231997 99.18562317 1039.64347839 C88.49601306 1010.66625756 78.38885869 981.50590022 68.49200439 952.24964905 C67.63965997 949.73082275 66.78623294 947.21236542 65.93261719 944.69396973 C60.07373135 927.39943269 54.27896666 910.09809934 48.99649048 892.61723328 C45.95843936 882.61502914 42.40863624 872.8246506 38.75 863.03515625 C35.07475072 852.88473212 35.11630774 844.0229787 39 834 C43.58985657 825.00388112 52.06233498 819.11488522 60.875 814.6875 C61.80940918 814.21787842 61.80940918 814.21787842 62.76269531 813.73876953 C74.3574446 808.20719403 86.48848731 805.76586462 99.03735352 803.57006836 C101.07727062 803.20994279 103.11474293 802.83781664 105.15234375 802.46484375 C106.34851318 802.254646 107.54468262 802.04444824 108.77709961 801.82788086 C112.04805805 800.98765511 114.31027989 800.03338734 117 798 C117.83333333 795 117.83333333 795 117 792 C112.37028129 787.78803723 106.67616926 788.65363469 100.8125 788.78125 C99.10030273 788.80016296 99.10030273 788.80016296 97.35351562 788.81945801 C93.5686559 788.86494424 89.78452037 788.93219065 86 789 C83.39975697 789.03641981 80.79949569 789.07155631 78.19921875 789.10546875 C72.55577184 789.18103639 66.91252182 789.26600424 61.26928711 789.35595703 C29.1589819 789.86419504 -2.94816918 790.12043141 -35.0625 790.125 C-35.99895481 790.12529457 -36.93540962 790.12558914 -37.90024185 790.12589264 C-59.31346807 790.1306764 -80.7219337 790.03054794 -102.1328125 789.703125 C-103.01432669 789.68988567 -103.89584087 789.67664635 -104.80406761 789.66300583 C-113.18846079 789.53646426 -121.57247719 789.40126724 -129.95603561 789.22745514 C-132.96128227 789.166712 -135.96663659 789.11387258 -138.97205734 789.06255341 C-141.00469335 789.02473119 -143.03710694 788.97548867 -145.06948853 788.92584229 C-153.73602076 788.75679184 -153.73602076 788.75679184 -162 791 C-163.94321211 792.97343865 -163.94321211 792.97343865 -165 795 C-161.80964888 800.03383972 -158.35510402 801.20075825 -152.7890625 802.46484375 C-151.58218277 802.76582726 -151.58218277 802.76582726 -150.35092163 803.07289124 C-147.7796037 803.71226569 -145.20327896 804.32685498 -142.625 804.9375 C-118.94118963 810.61500168 -98.50616439 818.07627335 -84.87109375 839.66796875 C-78.7117857 850.63642338 -73.80137817 862.13077368 -68.875 873.6875 C-68.49370941 874.57929962 -68.11241882 875.47109924 -67.71957397 876.3899231 C-61.11437624 891.8497335 -54.67661713 907.37706781 -48.3125 922.9375 C-47.89538757 923.95500336 -47.47827515 924.97250671 -47.04852295 926.02084351 C-44.69122224 931.77785734 -42.36590423 937.54620601 -40.07330322 943.32928467 C-39.03215648 945.91998458 -37.95180021 948.4912817 -36.86474609 951.06298828 C-29.42448425 969.12237857 -31.31843599 982.55847385 -37.6875 1000.625 C-38.31058296 1002.45420849 -38.93101359 1004.28432215 -39.54907227 1006.11523438 C-40.92013221 1010.16717817 -42.30483787 1014.21414107 -43.69726562 1018.25878906 C-46.21220251 1025.58936033 -48.64794627 1032.94571694 -51.078125 1040.3046875 C-60.22467084 1067.97864146 -69.53371361 1095.58835185 -79.21777344 1123.0796051 C-82.6695227 1132.88527172 -86.0681358 1142.70931851 -89.46981812 1152.53244019 C-94.93132192 1168.30223689 -100.41430387 1184.06420697 -105.9375 1199.8125 C-111.01342587 1214.28707331 -116.05026386 1228.77493962 -121.06680298 1243.27020264 C-122.23751605 1246.65144398 -123.40998446 1250.03207247 -124.58276367 1253.41259766 C-127.81624139 1262.74043459 -131.04065636 1272.06954297 -134.15625 1281.4375 C-134.61010482 1282.79215626 -135.06419458 1284.14673384 -135.51855469 1285.5012207 C-136.30149469 1287.84491838 -137.07416951 1290.19208933 -137.83300781 1292.54370117 C-140.02989004 1299.09724543 -142.85405868 1304.46250533 -147 1310 C-154.92479033 1302.75447741 -158.41367529 1293.98809032 -162.125 1284.0625 C-162.91178494 1281.98826325 -163.70159002 1279.91518946 -164.49131775 1277.84207153 C-165.06611795 1276.33226617 -165.63986772 1274.82206054 -166.21266174 1273.31149292 C-168.4819451 1267.33267314 -170.79741687 1261.37277506 -173.12890625 1255.41796875 C-190.30297528 1211.5111411 -206.6347449 1167.28834773 -222.95370483 1123.05822754 C-233.77136976 1093.74171162 -244.72123316 1064.47593432 -255.93478394 1035.30841064 C-276.70836934 981.27224102 -296.67012214 927.005219 -313.1875 871.5 C-313.42614777 870.69887787 -313.66479553 869.89775574 -313.91067505 869.07235718 C-314.58305066 866.80960701 -315.25150804 864.54574862 -315.91796875 862.28125 C-316.11528595 861.61527298 -316.31260315 860.94929596 -316.51589966 860.26313782 C-319.937515 848.55533355 -319.76707878 839.43531399 -315 828 C-306.48504114 812.68232944 -288.96787279 808.75099854 -273.31933594 804.22460938 C-269.35272022 803.09892809 -265.37853241 802.00765149 -261.39453125 800.9453125 C-258.16626537 800.16266171 -258.16626537 800.16266171 -256 799 C-255.0557408 797.22915167 -255.0557408 797.22915167 -255 795 C-255.84600439 792.25691513 -255.84600439 792.25691513 -258 790 C-260.98509281 789.5066844 -263.40324056 789.35797793 -266.39082336 789.41891479 C-267.25738892 789.41675937 -268.12395448 789.41460394 -269.0167796 789.4123832 C-271.93274005 789.41116843 -274.84719534 789.44575205 -277.76293945 789.47998047 C-279.8490088 789.48629991 -281.93508598 789.49037617 -284.02116394 789.49237061 C-288.5213764 789.50141423 -293.02113386 789.52622115 -297.52120399 789.5630455 C-304.64532525 789.62104904 -311.7692801 789.64316772 -318.89360046 789.66018677 C-331.45996125 789.69480106 -344.02602801 789.75980456 -356.59222412 789.83154297 C-375.47195565 789.93914976 -394.35176101 790.02399868 -413.23171967 790.07891381 C-420.30382849 790.1006339 -427.37561035 790.13846202 -434.44756758 790.18928885 C-438.86551352 790.21819888 -443.28344587 790.23457066 -447.7014637 790.24785614 C-449.73872615 790.25661089 -451.77597452 790.27056437 -453.81315994 790.29032516 C-472.35289037 790.46559832 -490.1751275 789.13292463 -504.453125 775.703125 C-518.85878159 759.84235158 -520.25354234 740.85065974 -520.5625 720.4375 C-520.59774573 718.49754981 -520.63349194 716.55760866 -520.66967773 714.61767578 C-520.77060727 709.01521873 -520.85713629 703.41260487 -520.94140625 697.80987549 C-521.00313428 693.79620297 -521.06944268 689.78262525 -521.13671875 685.76904297 C-521.71186062 651.23114312 -522.12006736 616.68998292 -522.23117065 582.14727783 C-522.24221653 578.81285718 -522.26002567 575.47858029 -522.28372192 572.14422607 C-522.31092605 568.24002742 -522.32334596 564.33606113 -522.32413673 560.43177032 C-522.32676389 558.99973945 -522.33445862 557.56770753 -522.34760094 556.13573456 C-522.36460657 554.17796369 -522.36103095 552.22004639 -522.35644531 550.26220703 C-522.36191376 548.61963425 -522.36191376 548.61963425 -522.36749268 546.94387817 C-521.94806609 543.58397235 -520.99294292 541.71300979 -519 539 C-514.54652624 536.26262045 -509.32988292 536.58339403 -504.25 536.4375 C-503.22342285 536.40068115 -502.1968457 536.3638623 -501.13916016 536.32592773 C-493.47223894 536.06639633 -485.80337401 535.90197051 -478.13401794 535.73449707 C-389.64640623 533.79515883 -291.99505666 529.8681326 -213.64746094 459.74780273 C-211.1558899 457.10447774 -208.90156598 454.31470004 -206.6875 451.4375 C-205.98874756 450.53523682 -205.98874756 450.53523682 -205.27587891 449.61474609 C-203.84115221 447.75013511 -202.41833315 445.87710386 -201 444 C-200.34330322 443.1344751 -200.34330322 443.1344751 -199.67333984 442.25146484 C-171.84086686 405.29289825 -160.41438769 360.23213418 -166.640625 314.43408203 C-172.30758388 276.05121513 -187.24661058 242.24456194 -214 214 C-214.86882812 213.06671875 -215.73765625 212.1334375 -216.6328125 211.171875 C-229.51849601 197.61459575 -244.80338271 187.20768878 -261 178 C-261.8038916 177.53851563 -262.6077832 177.07703125 -263.43603516 176.6015625 C-303.79987266 153.67673932 -348.43538597 147.75338475 -394 145 C-395.31275909 144.9200882 -395.31275909 144.9200882 -396.65203857 144.83856201 C-463.19962754 140.86327649 -530.08841976 142.94349983 -596.69191742 144.21653366 C-623.76951834 144.73326116 -650.83956198 145.09978549 -677.921875 145.125 C-679.21143349 145.1275882 -680.50099197 145.13017639 -681.82962799 145.13284302 C-685.45513259 145.13864748 -689.08054964 145.13715618 -692.70605469 145.1328125 C-693.78093895 145.13479141 -694.85582321 145.13677032 -695.96327972 145.1388092 C-697.44890285 145.13414894 -697.44890285 145.13414894 -698.96453857 145.12939453 C-699.82134594 145.12859894 -700.67815331 145.12780334 -701.56092453 145.12698364 C-704.1226199 144.99361614 -706.5003097 144.56268657 -709 144 C-709.13720966 142.62790336 -709.23299075 141.25164591 -709.3125 139.875 C-709.37050781 139.10929688 -709.42851563 138.34359375 -709.48828125 137.5546875 C-708.55722933 132.68342387 -705.48658609 130.05533838 -701.60229492 127.29785156 C-698.58110749 125.36627704 -695.52094527 123.51805342 -692.4375 121.6875 C-691.28145171 120.99076069 -690.12602795 120.29298422 -688.97119141 119.59423828 C-686.54792097 118.12991974 -684.12121512 116.67154287 -681.69189453 115.21728516 C-678.08303766 113.05420555 -674.49086554 110.86457529 -670.90234375 108.66796875 C-628.36334805 82.64881376 -585.27006828 59.6427164 -539 41 C-538.17487915 40.66681763 -537.3497583 40.33363525 -536.49963379 39.99035645 C-512.64175892 30.36547385 -488.64891743 21.4448308 -464.12194824 13.67388916 C-462.02925415 13.00929055 -459.93873347 12.33823254 -457.84863281 11.66552734 C-375.77022221 -14.67964889 -286.88228488 -25.9888481 0 0 Z " fill="#000000" transform="translate(1139,172)"/>
<path d="M0 0 C3.00037461 1.08381733 5.85095529 2.38632523 8.7578125 3.69921875 C16.03479191 6.61877796 23.92436663 7.57083317 31.65234375 8.671875 C52.19646173 11.62071186 70.55792558 17.62068809 84.0390625 34.5625 C91.92407545 46.10481683 94.00591314 58.85566559 94.5 72.52734375 C94.54060547 73.58377579 94.58121094 74.64020782 94.62304688 75.72865295 C94.70893273 77.99066143 94.79286259 80.25274489 94.875 82.51489258 C94.99440337 85.78425955 95.12159645 89.05324166 95.25 92.32226562 C96.76971797 132.27252058 97.15621723 172.22752798 97.1343255 212.20313287 C97.13171242 218.52451629 97.13416481 224.8458986 97.13571167 231.1672821 C97.13762926 242.49628417 97.13459084 253.82527747 97.12945233 265.15427776 C97.12504394 275.17699298 97.12581172 285.19969618 97.13037109 295.22241211 C97.15386288 348.32524264 97.12203604 401.42580315 96.5860877 454.52638984 C96.5553498 457.57876276 96.52556566 460.63114394 96.49585342 463.68352699 C96.19304293 494.24586824 95.54321865 524.78067104 94.12417603 555.31414795 C93.99721103 558.06032383 93.87685405 560.80674594 93.7565918 563.55322266 C93.67540471 565.3271685 93.5937995 567.10109528 93.51171875 568.875 C93.47784058 569.65797455 93.4439624 570.4409491 93.40905762 571.24765015 C92.41140375 591.91170887 88.43454608 615.41751582 72.8125 630.25 C57.95884775 642.4618953 40.56116966 646.79094057 22.05957031 650.35205078 C21.0847168 650.54009277 20.10986328 650.72813477 19.10546875 650.921875 C18.24074951 651.08268555 17.37603027 651.24349609 16.48510742 651.40917969 C13.85734301 652.0339159 11.48054583 652.93924941 9 654 C7.80103269 658.6063381 7.80103269 658.6063381 9.1875 662.875 C12.62736249 665.01008707 15.93598622 665.11485573 19.91079712 665.02668762 C20.90704227 665.00759401 21.90328743 664.9885004 22.92972183 664.9688282 C24.02493023 664.94277945 25.12013863 664.91673069 26.24853516 664.88989258 C28.68516616 664.8423628 31.12180177 664.79506852 33.55844116 664.74797058 C34.87053936 664.72081656 36.18263756 664.69366253 37.53449631 664.66568565 C44.78207752 664.51676594 52.03015412 664.39623495 59.27832031 664.27978516 C60.05712799 664.26724823 60.83593566 664.2547113 61.63834357 664.24179447 C91.4260461 663.77065129 121.21896983 663.74055448 151.00982285 663.71072197 C161.75680144 663.69985112 172.50354409 663.67479449 183.25044191 663.63125581 C190.96307908 663.6011104 198.6756533 663.58629354 206.38834822 663.58297569 C210.94072703 663.58064486 215.492864 663.5719255 220.04517746 663.54651451 C224.27645374 663.5232235 228.50732742 663.51900419 232.73865128 663.52927589 C234.27934873 663.52976928 235.82006667 663.52350743 237.36070251 663.50971985 C250.47107821 663.39895161 260.34378939 665.80267504 270.25 674.8125 C294.92172417 700.72049793 306.0705381 740.9738714 318.00234985 773.90655518 C323.1829674 788.20303352 328.5929029 802.39857677 334.125 816.5625 C341.06036022 834.32277084 347.83481534 852.13659955 354.5 870 C361.11871129 887.73140088 367.82190664 905.42514342 374.6875 923.0625 C375.07744141 924.06427277 375.46738281 925.06604553 375.86914062 926.09817505 C377.42873958 930.10414431 378.9884308 934.11007763 380.5484314 938.1158905 C384.73556541 948.87572523 388.87335757 959.65434318 393 970.4375 C393.55270569 971.88171326 393.55270569 971.88171326 394.11657715 973.35510254 C401.91440163 993.73820151 409.66485908 1014.13930176 417.40730286 1034.54348755 C420.19273467 1041.88120227 422.98886318 1049.21478494 425.7890625 1056.546875 C437.98520282 1088.49865408 449.85044111 1120.56394201 461.52854919 1152.70848083 C473.89295576 1186.7401225 486.4256159 1220.70087561 499.91796875 1254.3046875 C500.32439102 1255.31715042 500.73081329 1256.32961334 501.14955139 1257.37275696 C503.08554967 1262.18953115 505.02984004 1267.00270919 506.98852539 1271.81030273 C507.69647946 1273.55672217 508.40345311 1275.3035394 509.109375 1277.05078125 C509.44738632 1277.88586716 509.78539764 1278.72095306 510.13365173 1279.5813446 C512.70184114 1286.02290506 514.92495135 1292.55034842 516.84759521 1299.21418762 C518.31656267 1303.99273331 520.1181403 1306.84272928 524 1310 C527.44336774 1311.32548832 527.44336774 1311.32548832 531 1311 C535.12276716 1307.58755545 537.35825753 1303.84358435 539.4609375 1299.015625 C539.76830338 1298.33552368 540.07566925 1297.65542236 540.39234924 1296.95471191 C541.39736725 1294.7244786 542.3862544 1292.48748906 543.375 1290.25 C544.07778603 1288.68083482 544.78166041 1287.11215667 545.48657227 1285.54394531 C546.94211505 1282.30347313 548.3921632 1279.06061527 549.83935547 1275.81640625 C551.88242709 1271.24777399 553.96766964 1266.69952609 556.06640625 1262.15625 C557.04540681 1260.03020879 558.02397234 1257.90396774 559.00250244 1255.77770996 C559.60775566 1254.46510976 560.21470159 1253.1532882 560.82366943 1251.84240723 C570.73558756 1230.47695062 578.53097226 1208.24901144 586.44203186 1186.08705902 C587.71581604 1182.52089353 588.99332979 1178.9560644 590.27050781 1175.39111328 C592.04312605 1170.44238858 593.81465235 1165.49327604 595.58462334 1160.5436039 C598.02811374 1153.710794 600.47907895 1146.88073432 602.94140625 1140.0546875 C614.59415958 1107.740522 625.94516776 1075.31953556 637.28515625 1042.89453125 C637.61515216 1041.95098093 637.61515216 1041.95098093 637.95181465 1040.98836899 C639.95543698 1035.25935458 641.95895559 1029.53030393 643.96182251 1023.80102539 C650.1911975 1005.98282327 656.46676244 988.18162886 662.78652954 970.39529419 C667.83176786 956.19136624 672.79927147 941.96204927 677.72241211 927.71536255 C688.32793609 897.04099247 688.32793609 897.04099247 692.99276733 883.99874878 C693.48848566 882.60844797 693.98051543 881.21682512 694.46841431 879.82376099 C699.404993 865.75005325 699.404993 865.75005325 704 861 C707.15917969 860.83544922 707.15917969 860.83544922 710 861 C719.900808 888.27451886 729.64879481 915.59707329 739.1875 943 C741.0554319 948.36607977 742.92350367 953.73211038 744.79296875 959.09765625 C745.13132122 960.0687735 745.13132122 960.0687735 745.47650909 961.05950928 C749.59395879 972.8727221 753.77645106 984.66184263 758 996.4375 C766.83510062 1021.08750753 775.51006634 1045.78996525 783.99609375 1070.5625 C784.44317806 1071.86749889 784.8902657 1073.17249664 785.33735657 1074.47749329 C785.5618193 1075.13267283 785.78628202 1075.78785238 786.01754665 1076.46288586 C803.42051845 1127.25803908 821.27061812 1177.880931 839.96679688 1228.21679688 C840.99639667 1230.99029348 842.02384867 1233.76457734 843.05078125 1236.5390625 C849.97866567 1255.24666054 856.99996206 1273.8949364 864.6328125 1292.328125 C865.20950684 1293.72321289 865.20950684 1293.72321289 865.79785156 1295.14648438 C866.6490591 1297.16697863 867.52315067 1299.17790248 868.41308594 1301.18164062 C868.87231445 1302.23029297 869.33154297 1303.27894531 869.8046875 1304.359375 C870.22476074 1305.29749023 870.64483398 1306.23560547 871.07763672 1307.20214844 C872.15020552 1310.45562607 872.51652809 1312.60022446 872 1316 C868.46914816 1320.70349916 864.39784115 1322.40231688 859.05078125 1324.3046875 C858.26657303 1324.59640839 857.48236481 1324.88812927 856.6743927 1325.18869019 C854.9893427 1325.81413753 853.30207919 1326.43364792 851.612854 1327.04772949 C849.00839737 1327.99693953 846.41235162 1328.96626333 843.81787109 1329.94238281 C838.28158927 1332.02278596 832.73587432 1334.07709269 827.1875 1336.125 C826.19332062 1336.49206055 825.19914124 1336.85912109 824.17483521 1337.23730469 C740.58317029 1368.07004328 657.17185974 1388.91599722 167.0625 1323.1875 C162.69843075 1321.14555355 158.34829064 1319.07529154 154 1317 C152.87045898 1316.46536133 151.74091797 1315.93072266 150.57714844 1315.37988281 C122.86880508 1302.25814147 95.49344167 1288.44469904 69 1273 C68.21608887 1272.54979492 67.43217773 1272.09958984 66.62451172 1271.63574219 C38.12748662 1255.25731284 10.87658044 1236.23722605 -15 1216 C-16.13902648 1215.1194081 -17.27835756 1214.23921007 -18.41796875 1213.359375 C-25.08148174 1208.19406241 -31.57435487 1202.87369983 -37.9453125 1197.35131836 C-41.55454137 1194.22437474 -45.21631866 1191.18172925 -48.9375 1188.1875 C-52.62838263 1185.19270488 -56.03280595 1182.0886499 -59.33203125 1178.671875 C-61.10800591 1176.89174115 -62.96548949 1175.26065144 -64.875 1173.625 C-67.8846753 1171.03365795 -70.71088616 1168.32745217 -73.5 1165.5 C-76.22829407 1162.73439592 -78.98516834 1160.08712969 -81.9375 1157.5625 C-88.90507161 1151.56650212 -95.25320906 1144.97683552 -101.22265625 1137.99609375 C-103.23268777 1135.73867374 -105.34832953 1133.62264287 -107.5 1131.5 C-110.89268399 1128.14743221 -114.09100684 1124.70524318 -117.1953125 1121.0859375 C-119.21651276 1118.74974499 -121.29378839 1116.47035149 -123.375 1114.1875 C-127.25033743 1109.89391368 -130.9222131 1105.46911998 -134.55859375 1100.97265625 C-137.27720803 1097.6624715 -140.07121916 1094.42538578 -142.875 1091.1875 C-148.26336577 1084.93570651 -153.41932565 1078.53814533 -158.45263672 1071.99804688 C-160.11113328 1069.85649815 -161.79162214 1067.73326958 -163.47265625 1065.609375 C-197.42326556 1022.31298472 -224.61776396 973.62935914 -247.33203125 923.65527344 C-248.72921593 920.58537104 -250.14665622 917.52529071 -251.56988525 914.46739197 C-287.17264167 837.90268124 -309.20303789 754.19678835 -317.16796875 635.40625 C-317.17119905 633.64489721 -317.17456429 631.88354467 -317.17805481 630.12219238 C-317.18399812 626.44457379 -317.18590007 622.76697851 -317.18530273 619.08935547 C-317.18522209 615.3917139 -317.19207394 611.69419784 -317.20581055 607.99658203 C-317.40887595 552.46985875 -310.99859525 499.51637528 -298.86135864 445.34580994 C-297.73111289 440.30066929 -296.62043396 435.2526091 -295.54678345 430.19512939 C-276.90639813 342.70580564 -235.50359285 257.88633179 -144.48388672 129.81591797 C-143.19366805 128.23700279 -141.91064412 126.65221373 -140.62890625 125.06640625 C-130.50133451 112.56024886 -119.82560864 100.59792668 -108.78369141 88.89697266 C-106.9658804 86.96371348 -105.15913646 85.02067481 -103.35546875 83.07421875 C-94.87582686 73.92630386 -86.42116936 64.83015692 -76.9296875 56.7109375 C-74.86691479 54.88200137 -72.9340928 52.96419542 -71 51 C-67.16450552 47.12007895 -63.14802568 43.54083113 -59 40 C-57.95810756 39.10573172 -56.91646037 38.21117767 -55.875 37.31640625 C-53.4929475 35.27101808 -51.10857952 33.22837135 -48.72265625 31.1875 C-46.26836295 29.08768 -43.8179562 26.98347363 -41.37109375 24.875 C-10.9267549 -1.34188218 -10.9267549 -1.34188218 0 0 Z " fill="#000000" transform="translate(417,323)"/>
<path d="M0 0 C0.65068451 -0.0065712 1.30136902 -0.0131424 1.97177124 -0.01991272 C4.13010779 -0.03965689 6.28837452 -0.05131418 8.44677734 -0.0612793 C9.55436968 -0.06739259 9.55436968 -0.06739259 10.68433762 -0.07362938 C14.59684724 -0.09450051 18.50932173 -0.10879449 22.421875 -0.11816406 C26.45016481 -0.12919687 30.47789739 -0.16355671 34.50599098 -0.20333576 C37.61340306 -0.22957952 40.72068435 -0.237863 43.82819748 -0.24144554 C45.31206374 -0.24629596 46.79592477 -0.25786572 48.27968216 -0.27648354 C56.27669981 -0.37054487 62.83585163 -0.43275731 69.65771484 4.17700195 C75.95961533 10.38896913 79.0477635 19.08913549 82.5748291 27.04998779 C84.4248387 31.21767089 86.3132216 35.36780077 88.20458984 39.5168457 C88.58234558 40.34577332 88.96010132 41.17470093 89.3493042 42.02874756 C97.86555803 60.61831603 107.76348371 78.51830251 117.96289062 96.22875977 C119.74472587 99.32836253 121.51232409 102.4358155 123.27880859 105.54418945 C138.31902839 131.92460115 154.37501095 157.78425314 172.30029297 182.31616211 C173.83833084 184.4246018 175.36461163 186.54136976 176.89208984 188.6574707 C184.2912478 198.85538176 192.02485922 208.68693089 200.12255859 218.33764648 C202.26713612 220.90718323 204.36698408 223.5110236 206.47021484 226.11450195 C210.03737455 230.48245262 213.75555036 234.68751238 217.55224609 238.85668945 C219.3868917 240.87854379 221.18540271 242.92378718 222.97021484 244.98950195 C232.22624178 255.58201298 241.98091919 265.66291505 251.94091797 275.59057617 C253.92321728 277.56746206 255.90004117 279.54971234 257.87646484 281.5324707 C266.21255803 289.8796688 266.21255803 289.8796688 274.98876953 297.75756836 C277.79263517 300.14224871 280.46548454 302.66796461 283.15771484 305.17700195 C287.92299155 309.59310184 292.72623559 313.94626576 297.65771484 318.17700195 C298.14288574 318.59385254 298.62805664 319.01070312 299.12792969 319.44018555 C302.06092169 321.95980871 304.99677865 324.47604767 307.93505859 326.98950195 C310.38935189 329.08932196 312.83975864 331.19352832 315.28662109 333.30200195 C322.32816378 339.36536557 329.4419835 345.32091138 336.65771484 351.17700195 C338.42862402 352.63524319 340.19945602 354.09357814 341.97021484 355.55200195 C379.77591614 386.44986265 420.18316014 412.77808775 463.203125 435.85571289 C465.41726632 437.04757014 467.62269911 438.25375542 469.82568359 439.46606445 C482.50796711 446.38935662 495.66018667 452.33212371 508.79827881 458.32672119 C511.79229914 459.69582335 514.78098019 461.07652463 517.77099609 462.4543457 C599.5234664 499.93318295 681.66299325 527.08808806 846.15771484 549.48950195 C847.12852997 549.57099487 848.09934509 549.65248779 849.09957886 549.7364502 C872.30301386 551.65437177 895.44031428 552.38600249 918.72021484 552.36450195 C920.55196259 552.36359558 920.55196259 552.36359558 922.42071533 552.3626709 C943.55937154 552.33446722 964.58227804 551.82490718 985.65771484 550.17700195 C986.47123413 550.11383789 987.28475342 550.05067383 988.1229248 549.9855957 C1072.42902421 543.35710631 1155.55431057 525.84551665 1321.65771484 460.17700195 C1322.69299316 459.69021973 1323.72827148 459.2034375 1324.79492188 458.7019043 C1348.07790222 447.74117134 1370.79642224 435.99619214 1392.90283203 422.81323242 C1395.40817805 421.32521142 1397.92435724 419.8584772 1400.44677734 418.3996582 C1431.54422272 400.27501901 1461.23765621 379.21059756 1489.65771484 357.17700195 C1490.3199707 356.66540527 1490.98222656 356.15380859 1491.66455078 355.62670898 C1510.72008481 340.88995456 1529.17075922 325.38774836 1546.76196289 308.92919922 C1548.19070647 307.6086464 1549.63184883 306.30148958 1551.07885742 305.00097656 C1559.85055134 297.08018314 1568.21446866 288.77276543 1576.55932617 280.40576172 C1578.97966011 277.98003565 1581.40533705 275.55974398 1583.83154297 273.13989258 C1585.39501497 271.57576021 1586.95817697 270.01131789 1588.52099609 268.4465332 C1589.5915197 267.37904594 1589.5915197 267.37904594 1590.68367004 266.28999329 C1594.6530822 262.30222092 1598.45327254 258.22057642 1602.12031555 253.95251465 C1604.51578724 251.18603075 1607.02955601 248.53313453 1609.53271484 245.86450195 C1613.97559364 241.08942594 1618.18094391 236.18880462 1622.26318359 231.09887695 C1624.53872955 228.32219118 1626.88035091 225.62392027 1629.25341797 222.93115234 C1635.61467981 215.70526209 1641.55232155 208.24565313 1647.34130859 200.5559082 C1649.56937769 197.59728126 1651.83178909 194.67102677 1654.13037109 191.7668457 C1661.89597061 181.95080915 1669.15445107 171.90308038 1676.10498047 161.49438477 C1677.59373061 159.27249541 1679.09945806 157.06322614 1680.61083984 154.85668945 C1702.89428568 122.14649757 1721.04497841 86.95315047 1738.34521484 51.42700195 C1738.75437134 50.58811432 1739.16352783 49.74922668 1739.58508301 48.88491821 C1743.47860707 40.89720384 1747.35307633 32.90648747 1751.03271484 24.81762695 C1751.51909424 23.75898437 1752.00547363 22.7003418 1752.5065918 21.60961914 C1753.35855771 19.74315652 1754.19485656 17.86940361 1755.01000977 15.98657227 C1757.68505591 10.1397932 1761.03283471 5.49321036 1766.65771484 2.17700195 C1773.86021568 -0.3111912 1780.97818103 -0.11269766 1788.53662109 -0.08862305 C1789.87605357 -0.08997317 1791.21548557 -0.09191658 1792.55491638 -0.09442139 C1795.34956571 -0.09735532 1798.14408643 -0.09313049 1800.9387207 -0.08374023 C1804.50493618 -0.07233551 1808.07085087 -0.07892245 1811.6370554 -0.09088516 C1814.39871961 -0.09814131 1817.16031348 -0.09579887 1819.9219799 -0.09062958 C1821.87113009 -0.08866388 1823.82028311 -0.09469272 1825.76942444 -0.10089111 C1840.45731443 -0.02339846 1840.45731443 -0.02339846 1844.65771484 4.17700195 C1847.20923305 16.99280724 1841.18310091 27.73677052 1835.90771484 38.98950195 C1835.0223874 40.92472974 1834.13901973 42.86085524 1833.25756836 44.79785156 C1831.12479428 49.46671821 1828.9615251 54.12053253 1826.78375244 58.76855469 C1825.80513127 60.86169749 1824.83443156 62.95810054 1823.87011719 65.05786133 C1812.0422663 90.7821966 1798.4349684 115.78594678 1784.30566406 140.31079102 C1782.49744114 143.45575948 1780.70433913 146.60910905 1778.91162109 149.76293945 C1772.19450258 161.54245515 1765.34967258 173.1715971 1757.81298828 184.44702148 C1756.76504888 186.01627309 1755.73015179 187.59421483 1754.69677734 189.1730957 C1741.05355646 209.9257587 1726.44428977 230.09634424 1710.97119141 249.52075195 C1709.64667571 251.19092193 1708.33405769 252.86977125 1707.02490234 254.55200195 C1696.68500567 267.82857318 1685.93951373 280.77633347 1675.01855469 293.57788086 C1673.60793182 295.23550192 1672.20483696 296.89930023 1670.80224609 298.5637207 C1663.88855575 306.73737191 1656.68532793 314.59359335 1649.34082031 322.38061523 C1647.26268187 324.59862259 1645.21531628 326.84350407 1643.16845703 329.09033203 C1634.2187616 338.89546868 1625.02405119 348.68553209 1614.86474609 357.2512207 C1612.28770135 359.49986329 1609.80863991 361.8397551 1607.3215332 364.18701172 C1601.52413703 369.65783437 1595.67679745 374.94306561 1589.44287109 379.91918945 C1586.8363893 382.03215786 1584.30244469 384.20568351 1581.77416992 386.41040039 C1574.75794313 392.52070472 1567.49427026 398.22258801 1560.07177734 403.8293457 C1556.35738646 406.63531682 1552.68374016 409.48964372 1549.02001953 412.36132812 C1539.04915834 420.17459245 1528.90087474 427.7253051 1518.65771484 435.17700195 C1517.89426758 435.73274902 1517.13082031 436.28849609 1516.34423828 436.86108398 C1511.1293585 440.65261096 1505.89810648 444.42083517 1500.65771484 448.17700195 C1499.98095703 448.66346191 1499.30419922 449.14992188 1498.60693359 449.65112305 C1472.94408716 468.06982133 1446.45869681 484.6409647 1418.63037109 499.57739258 C1415.51930108 501.25148347 1412.41640556 502.94010332 1409.31396484 504.63012695 C1360.57386189 531.08547841 1310.26118105 554.44669659 1257.65771484 572.17700195 C1256.9475824 572.41700928 1256.23744995 572.6570166 1255.50579834 572.90429688 C1173.81714836 600.47275512 1090.43119972 618.82716336 971.44815445 628.28384399 C969.59344623 628.42053769 967.73876812 628.55764052 965.88412094 628.69515991 C960.54102787 629.09122381 955.19753973 629.48093361 949.85329247 629.86112022 C948.20994244 629.97851192 946.56669884 630.0974053 944.92357826 630.21796608 C935.14319435 630.93256338 925.47019467 631.33766818 915.65771484 631.17700195 C915.65771484 630.18700195 915.65771484 629.19700195 915.65771484 628.17700195 C914.66771484 628.50700195 913.67771484 628.83700195 912.65771484 629.17700195 C911.20833602 629.2780563 909.75484266 629.32529612 908.30200195 629.33813477 C907.41505646 629.34759125 906.52811096 629.35704773 905.61428833 629.36679077 C904.64764252 629.37119171 903.6809967 629.37559265 902.68505859 629.38012695 C901.67200653 629.38718658 900.65895447 629.39424622 899.61520386 629.40151978 C800.74846064 629.92938663 703.99240445 611.35242018 415.66552734 499.91186523 C412.37117825 498.01173174 409.06281728 496.13710281 405.75146484 494.2668457 C392.3535249 486.68972335 379.1006693 478.92627187 366.08398438 470.70629883 C363.66520423 469.18172257 361.23866435 467.67024209 358.81005859 466.16137695 C330.01067516 448.21159837 302.63201061 428.15502866 276.41796875 406.62133789 C274.838759 405.32555358 273.25442198 404.03602397 271.66943359 402.74731445 C265.16013409 397.45320979 258.74064052 392.05867472 252.35351562 386.6184082 C250.65536638 385.1750058 248.95181292 383.73818773 247.24755859 382.30200195 C240.37808273 376.49048949 233.69794355 370.51702344 227.15820312 364.3359375 C223.91339064 361.26966733 220.62880135 358.26887018 217.27880859 355.31762695 C210.18141907 348.94936595 203.49291755 342.16137261 196.76147461 335.41113281 C194.46824736 333.11252986 192.16970245 330.81934165 189.87060547 328.52661133 C188.38916484 327.04451008 186.90803434 325.56209875 185.42724609 324.0793457 C184.75103714 323.40516098 184.07482819 322.73097626 183.37812805 322.03636169 C179.48417734 318.12346614 175.76743457 314.10620992 172.16529846 309.92269897 C170.09086153 307.5206177 167.93623093 305.19566499 165.78271484 302.86450195 C161.33819397 297.98620652 157.13629253 292.95886281 152.99462891 287.82299805 C150.88061124 285.22023926 148.73738876 282.64176335 146.59863281 280.05932617 C139.81919692 271.86530511 133.15298364 263.59800371 126.65771484 255.17700195 C125.75666016 254.00911133 125.75666016 254.00911133 124.83740234 252.81762695 C115.55418753 240.76054317 106.48047548 228.57467035 97.65771484 216.17700195 C97.14225098 215.45528809 96.62678711 214.73357422 96.09570312 213.98999023 C74.19217427 183.30584223 54.84186255 151.1902151 36.65771484 118.17700195 C36.05749512 117.08774414 35.45727539 115.99848633 34.83886719 114.8762207 C23.03356565 93.38103672 12.65888197 71.56545926 3.18530273 48.96044922 C-1.4285357 38.00274729 -6.6208581 27.43213147 -12.04589844 16.85571289 C-13.99574591 12.82676251 -13.90719862 10.6256955 -13.34228516 6.17700195 C-9.09634674 0.92544654 -6.54864863 0.05465828 0 0 Z " fill="#000000" transform="translate(13.34228515625,1235.822998046875)"/>
<path d="M0 0 C2.428019 0.19897783 4.85674294 0.38712414 7.28570557 0.57421875 C96.65534432 7.52868748 184.55596567 25.9004775 428.24029541 126.18359375 C429.18791748 126.71098145 430.13553955 127.23836914 431.11187744 127.78173828 C471.7399113 150.43457365 510.49465412 175.64765968 547.24029541 204.18359375 C547.87483643 204.67633789 548.50937744 205.16908203 549.16314697 205.67675781 C559.76629289 213.92734807 570.17581081 222.39386982 580.40679932 231.10205078 C583.78879667 233.97559751 587.21501997 236.78227159 590.67779541 239.55859375 C596.37095398 244.18636592 601.69072303 249.177504 607.03717041 254.1953125 C609.37642633 256.38819629 611.744819 258.53190748 614.17779541 260.62109375 C625.83158157 270.69825917 636.78755213 281.56709913 647.65924072 292.47216797 C649.76323278 294.58159032 651.87261576 296.68551814 653.98248291 298.7890625 C655.34999163 300.1572311 656.71719061 301.52570936 658.08404541 302.89453125 C658.70082153 303.50928314 659.31759766 304.12403503 659.95306396 304.75741577 C663.68009641 308.50430254 667.21975793 312.36880065 670.66842651 316.37361145 C673.07856017 319.14884243 675.60103504 321.8155978 678.11529541 324.49609375 C682.57533897 329.29008515 686.80339094 334.20870371 690.90435791 339.31640625 C693.57904014 342.59937741 696.34234103 345.79625963 699.11529541 348.99609375 C704.07854181 354.74466395 708.81395175 360.63859155 713.47076416 366.63671875 C715.79961134 369.63390128 718.17722374 372.58820363 720.56793213 375.53613281 C755.67829537 418.92473691 785.20586923 466.84144923 810.51373291 516.49609375 C810.97487488 517.40018478 811.43601685 518.30427582 811.91113281 519.23576355 C814.21039917 523.74674439 816.50205529 528.26134567 818.78131104 532.7824707 C823.1125058 541.33638202 827.55892343 549.67207336 832.74859619 557.73901367 C835.35823503 562.01566076 835.97621935 566.25091439 835.24029541 571.18359375 C833.0328886 574.15217532 831.75432168 575.01225166 828.24029541 576.18359375 C826.0902283 576.28813322 823.9370557 576.33224143 821.78448486 576.34472656 C821.13365433 576.34969147 820.48282379 576.35465637 819.81227112 576.35977173 C817.65936216 576.3743732 815.506527 576.38119353 813.35357666 576.38671875 C811.85245259 576.39247383 810.35132852 576.39823152 808.85020447 576.4039917 C805.70036477 576.41449732 802.55055055 576.4203422 799.4006958 576.42382812 C795.38038364 576.42929835 791.36041263 576.45329634 787.3402071 576.48180008 C784.23708645 576.50050424 781.13404649 576.50563627 778.03087425 576.507164 C776.54981823 576.51017581 775.06876313 576.5181542 773.58776283 576.53134918 C756.55530916 576.67221202 756.55530916 576.67221202 749.92657471 571.31298828 C745.08557898 565.60572294 741.46311806 559.70768486 738.05279541 553.05859375 C736.92312279 550.91699832 735.79156415 548.77639684 734.65826416 546.63671875 C734.090271 545.55841797 733.52227783 544.48011719 732.93707275 543.36914062 C728.77751495 535.55994491 724.35658948 527.8934168 719.96881104 520.2109375 C718.77258262 518.11584818 717.57872799 516.01940239 716.38677979 513.921875 C709.05789148 501.03081712 701.64695787 488.2582576 693.40435791 475.92675781 C692.33003027 474.31797019 691.26891949 472.70037745 690.20904541 471.08203125 C673.79272334 446.1211481 655.49774486 422.47008762 636.11090088 399.75488281 C633.36014376 396.52916763 630.69173465 393.25097483 628.05279541 389.93359375 C622.86113049 383.54887118 617.17283598 377.64135987 611.49810791 371.6875 C608.40055973 368.43622734 605.37858489 365.12588586 602.36920166 361.79296875 C595.32124756 354.04447614 587.88372172 346.67702346 580.46905518 339.28198242 C578.04332911 336.86164849 575.62303743 334.43597155 573.20318604 332.00976562 C571.63905366 330.44629363 570.07461135 328.88313163 568.50982666 327.3203125 C567.79816849 326.6066301 567.08651031 325.89294769 566.35328674 325.15763855 C562.35846437 321.18120884 558.2688496 317.37453648 553.9944458 313.69963074 C551.41072034 311.46662758 548.92664892 309.13619716 546.42779541 306.80859375 C541.80729992 302.53964181 537.04922789 298.50328081 532.14654541 294.55859375 C529.43857208 292.3456263 526.78805924 290.08182777 524.14654541 287.79077148 C517.59210777 282.1068451 510.8978944 276.69019243 503.96051025 271.47851562 C502.15862197 270.12211264 500.3652284 268.75497352 498.57232666 267.38671875 C425.80541379 212.06462572 342.19235291 164.72654558 -203.39910889 83.05493164 C-286.24199287 94.58750703 -366.69447356 117.77452202 -500.75970459 177.18359375 C-501.68263306 177.64505798 -501.68263306 177.64505798 -502.62420654 178.11584473 C-518.43437818 186.03788743 -533.85814405 194.49227424 -549.03704834 203.56347656 C-551.52843437 205.04597636 -554.03133102 206.50569534 -556.54095459 207.95703125 C-572.46560313 217.23721134 -587.67243993 227.64619771 -602.94042969 237.95599365 C-604.58903148 239.06842791 -606.23944976 240.178169 -607.89007568 241.28759766 C-617.17307212 247.52833662 -626.24600487 253.91233218 -635.03314209 260.83544922 C-637.72034157 262.93368388 -640.43951615 264.98948918 -643.15472412 267.05126953 C-653.32822575 274.78330897 -663.20302148 282.82358754 -672.93133545 291.10693359 C-676.2667883 293.94224098 -679.64943848 296.7035914 -683.07220459 299.43359375 C-688.60418831 303.9273166 -693.76665298 308.78218652 -698.92694092 313.69238281 C-699.88636597 314.60455566 -699.88636597 314.60455566 -700.86517334 315.53515625 C-701.70278198 316.33687256 -701.70278198 316.33687256 -702.55731201 317.15478516 C-704.47174755 318.91833236 -706.4222989 320.61542977 -708.39544678 322.31225586 C-713.3002442 326.59181464 -717.88658438 331.16678615 -722.48236084 335.7734375 C-723.38667343 336.67679337 -724.29098602 337.58014923 -725.22270203 338.51087952 C-727.12405402 340.41155443 -729.02438012 342.31318983 -730.92303467 344.21655273 C-733.3355632 346.63477767 -735.7525554 349.04848333 -738.17092228 351.46086788 C-740.50635034 353.79177776 -742.83792636 356.12653331 -745.16986084 358.4609375 C-746.02733414 359.31638657 -746.88480743 360.17183563 -747.76826477 361.0532074 C-752.10250058 365.4042165 -756.29838849 369.81612628 -760.29475403 374.48052979 C-762.50608698 377.05129331 -764.82346003 379.51480267 -767.13470459 381.99609375 C-771.42845839 386.64397917 -775.49502299 391.42775723 -779.46282959 396.359375 C-781.48539782 398.84630838 -783.55218062 401.28726151 -785.64276123 403.71704102 C-792.16536892 411.31141136 -798.22512816 419.22388185 -804.25775146 427.20996094 C-805.57101005 428.93564078 -806.8999272 430.64601652 -808.24407959 432.34765625 C-819.97380385 447.26566127 -830.66218706 463.01181004 -840.54241943 479.20703125 C-842.2831725 482.03357293 -844.0703787 484.82978795 -845.85516357 487.62866211 C-848.51060471 491.80074062 -851.13671367 495.99106019 -853.75970459 500.18359375 C-854.39295654 501.19405762 -855.0262085 502.20452148 -855.6786499 503.24560547 C-865.09708819 518.33553225 -873.88175272 533.63239663 -882.05145264 549.4362793 C-894.12622956 572.73145483 -894.12622956 572.73145483 -904.75970459 576.18359375 C-907.90214539 576.44429016 -907.90214539 576.44429016 -911.4743042 576.45825195 C-912.12863937 576.46336288 -912.78297455 576.46847382 -913.45713806 576.47373962 C-915.60886922 576.48758006 -917.7602781 576.48668315 -919.91204834 576.484375 C-921.41510638 576.48826491 -922.91816333 576.49260019 -924.42121887 576.49736023 C-927.567531 576.50481044 -930.71373089 576.50453985 -933.86004639 576.49926758 C-937.88276981 576.49347364 -941.9050327 576.51040756 -945.92768002 576.53361225 C-949.03073288 576.54837672 -952.13367551 576.54921764 -955.23675728 576.54610252 C-956.71945673 576.54661435 -958.20216258 576.55182592 -959.6848278 576.56191444 C-961.76208921 576.57431523 -963.83846221 576.56746663 -965.91571045 576.5559082 C-967.68512245 576.55685234 -967.68512245 576.55685234 -969.49028015 576.55781555 C-973.20295353 576.132859 -975.58933901 575.1397409 -978.75970459 573.18359375 C-981.27322749 569.4133094 -981.16486947 567.66360948 -980.75970459 563.18359375 C-979.70568043 560.58157737 -978.63801598 558.28658187 -977.30267334 555.84375 C-976.56148914 554.42765777 -975.8211203 553.01113853 -975.08148193 551.59423828 C-974.69667664 550.86746887 -974.31187134 550.14069946 -973.91540527 549.39190674 C-972.04222446 545.81263264 -970.27514879 542.18230398 -968.49798584 538.5546875 C-960.05925901 521.46743648 -951.40624027 504.62847883 -941.75970459 488.18359375 C-940.93978131 486.76485009 -940.1207243 485.34560532 -939.30267334 483.92578125 C-936.82966609 479.65333853 -934.30281976 475.41460955 -931.75970459 471.18359375 C-931.2210376 470.28463379 -930.68237061 469.38567383 -930.12738037 468.45947266 C-921.87135477 454.72827863 -913.27150922 441.2626665 -904.38470459 427.93359375 C-903.92865845 427.24861816 -903.4726123 426.56364258 -903.00274658 425.85791016 C-894.98187542 413.82841203 -886.71624385 401.97932723 -878.00970459 390.43359375 C-877.27409302 389.45652466 -877.27409302 389.45652466 -876.52362061 388.4597168 C-867.70903556 376.78941077 -858.8004888 365.21980139 -849.26751709 354.125 C-846.90077458 351.34905435 -844.60588428 348.52796182 -842.32220459 345.68359375 C-837.94285581 340.29785961 -833.25925621 335.23542576 -828.52532959 330.1640625 C-826.43059535 327.91760686 -824.3864079 325.63885947 -822.38470459 323.30859375 C-811.33745881 310.58352995 -799.40418056 298.66831859 -787.48040771 286.77392578 C-784.86399819 284.1629302 -782.25304913 281.54655815 -779.64251709 278.9296875 C-777.95533801 277.24316847 -776.26784917 275.55695926 -774.58001709 273.87109375 C-773.81214874 273.10120117 -773.0442804 272.33130859 -772.25314331 271.53808594 C-768.12494933 267.42759594 -763.91482875 263.47573155 -759.49449158 259.68026733 C-756.91570461 257.45543952 -754.43940503 255.13000003 -751.94720459 252.80859375 C-747.25075805 248.46479162 -742.39695505 244.37942949 -737.41204834 240.3671875 C-734.76702822 238.18962307 -732.22757934 235.93040612 -729.69720459 233.62109375 C-724.88479534 229.24686305 -719.87770584 225.19281711 -714.75970459 221.18359375 C-713.76841553 220.39726562 -712.77712646 219.6109375 -711.75579834 218.80078125 C-678.04333889 192.0884172 -642.71796893 167.2277518 -605.75970459 145.18359375 C-604.85623291 144.64395996 -603.95276123 144.10432617 -603.02191162 143.54833984 C-595.97480634 139.35578877 -588.87984427 135.25068732 -581.75970459 131.18359375 C-580.72039795 130.58772461 -579.68109131 129.99185547 -578.61029053 129.37792969 C-504.66744877 87.18608555 -425.22513817 54.4280153 -342.88916016 32.74560547 C-340.84643001 32.20648256 -338.80554212 31.66090108 -336.76507568 31.11328125 C-252.31968696 8.59164558 -165.50452744 -1.86579535 0 0 Z " fill="#000000" transform="translate(1002.7597045898438,1.81640625)"/>
<path d="M0 0 C1.86467554 1.78072698 3.71942077 3.57192972 5.5625 5.375 C6.42230469 6.18453125 7.28210938 6.9940625 8.16796875 7.828125 C38.38429092 36.8732719 57.75122708 80.71454787 58.765625 122.5703125 C59.38285364 176.32743361 43.27356812 225.56392441 5.75 264.5 C-0.22934427 270.32844599 -6.71720273 275.43561752 -13.4375 280.375 C-14.00533203 280.79249512 -14.57316406 281.20999023 -15.15820312 281.64013672 C-46.93049124 304.63036012 -82.84674551 315.05513671 -121.6875 317.4375 C-122.99726807 317.51983887 -124.30703613 317.60217773 -125.65649414 317.68701172 C-136.0563288 318.31723452 -146.46076363 318.70429164 -156.875 319 C-157.59022827 319.0205545 -158.30545654 319.04110901 -159.0423584 319.06228638 C-163.15236207 319.17694033 -167.26220128 319.27060193 -171.37322998 319.33947754 C-172.79243675 319.36389959 -174.21158855 319.39167394 -175.63067627 319.42224121 C-177.80715142 319.46685312 -179.98339297 319.49696096 -182.16015625 319.5234375 C-183.43769775 319.54325684 -184.71523926 319.56307617 -186.03149414 319.58349609 C-190.27340763 319.32383054 -193.20290661 318.65368601 -196.1875 315.5625 C-198.74287483 311.09059405 -198.56593403 306.36514441 -198.57794189 301.318573 C-198.58091744 300.61812681 -198.58389299 299.91768063 -198.58695871 299.1960088 C-198.59563415 296.84924744 -198.59716536 294.50253787 -198.59863281 292.15576172 C-198.60320069 290.4646189 -198.60815451 288.77347708 -198.6134634 287.08233643 C-198.62645583 282.46103015 -198.63276508 277.83973716 -198.63737273 273.21841574 C-198.6406359 270.29492089 -198.64544688 267.37143261 -198.65076637 264.44794083 C-198.67530017 250.80587889 -198.68416748 237.16384122 -198.68668985 223.52175903 C-198.6874975 220.26011107 -198.68896253 216.99846404 -198.69062424 213.73681641 C-198.71604946 160.93500694 -198.66525226 108.15508543 -197 55.375 C-196.96622757 54.29968773 -196.93245514 53.22437546 -196.8976593 52.11647797 C-196.47728641 38.86667329 -196.00879176 25.61918732 -195.4375 12.375 C-195.39911263 11.47010771 -195.36072525 10.56521542 -195.32117462 9.63290215 C-195.19920823 6.78887124 -195.07258945 3.94508316 -194.94458008 1.10131836 C-194.90708177 0.22611794 -194.86958345 -0.64908249 -194.83094883 -1.55080414 C-194.53999501 -7.82734992 -193.86387539 -13.90828582 -192.5625 -20.0625 C-192.40136719 -20.91908203 -192.24023438 -21.77566406 -192.07421875 -22.65820312 C-190.47984241 -30.64862407 -188.12516454 -35.84809675 -181.4375 -40.625 C-177.53438149 -42.0265563 -173.3279365 -41.9701053 -169.22265625 -42.171875 C-168.39314957 -42.21350769 -167.56364288 -42.25514038 -166.70899963 -42.29803467 C-107.55324836 -45.01899825 -45.90981841 -42.28516117 0 0 Z " fill="#000000" transform="translate(814.4375,372.625)"/>
</svg>
