<?xml version="1.0" encoding="UTF-8"?>
<svg version="1.1" xmlns="http://www.w3.org/2000/svg" width="306" height="198">
<path d="M0 0 C100.98 0 201.96 0 306 0 C306 65.34 306 130.68 306 198 C205.02 198 104.04 198 0 198 C0 132.66 0 67.32 0 0 Z " fill="#FCFCFC" transform="translate(0,0)"/>
<path d="M0 0 C8.58 0 17.16 0 26 0 C26.0093457 2.10890625 26.01869141 4.2178125 26.02832031 6.390625 C26.06217619 13.37967709 26.11777267 20.36843658 26.18390274 27.35725403 C26.22331362 31.5921884 26.25553319 35.82691683 26.27099609 40.06201172 C26.28620513 44.15363413 26.32072493 48.24469013 26.36830902 52.33605957 C26.38307928 53.89240581 26.39103851 55.44883293 26.39188385 57.00524902 C26.40269048 66.93048534 26.86491015 73.83113768 33.25 81.8125 C39.08958496 86.4576244 44.92165684 87.5894782 52.32421875 87.34375 C59.12911692 86.4695441 63.42854252 83.09819848 67.7734375 77.9765625 C70.750992 73.17833773 71.25872944 68.44398174 71.31884766 62.89306641 C71.32889328 62.20944031 71.3389389 61.52581421 71.34928894 60.82147217 C71.37996409 58.58151015 71.39711185 56.34166678 71.4140625 54.1015625 C71.43278681 52.54071035 71.45236116 50.97986819 71.4727478 49.41903687 C71.52394174 45.32564193 71.56363532 41.23221423 71.60089111 37.13867188 C71.64101093 32.95564756 71.69206677 28.77275807 71.7421875 24.58984375 C71.8387959 16.39331475 71.92223697 8.19672948 72 0 C80.58 0 89.16 0 98 0 C98.06808154 9.31076095 98.12299117 18.62135352 98.15543652 27.9323082 C98.17101747 32.25688764 98.19211533 36.58128629 98.22631836 40.90576172 C98.25918454 45.08792113 98.27690976 49.26990788 98.28463173 53.45218658 C98.29012677 55.03879764 98.30085557 56.62540046 98.31719017 58.21193695 C98.4627457 72.95065455 96.90955476 87.08969456 86.60546875 98.53515625 C74.50148631 109.57893585 59.26831736 113.02535335 43.359375 112.35546875 C29.6396083 111.42217132 17.74722105 105.55293204 8.53515625 95.3828125 C1.58792142 86.55623451 -0.13274479 75.53178361 -0.11352539 64.59594727 C-0.11367142 63.892668 -0.11381744 63.18938873 -0.1139679 62.46479797 C-0.11327726 60.16530149 -0.1055251 57.86588839 -0.09765625 55.56640625 C-0.09578905 53.96215357 -0.09436657 52.35790031 -0.09336853 50.75364685 C-0.08956715 46.55004273 -0.0797574 42.34647366 -0.06866455 38.1428833 C-0.05839906 33.8459114 -0.05385994 29.54893378 -0.04882812 25.25195312 C-0.03813281 16.83461761 -0.0205555 8.41731722 0 0 Z " fill="#030303" transform="translate(107,84)"/>
<path d="M0 0 C3.94891481 2.00533943 7.65218046 4.38397875 11.38183594 6.76586914 C16.42746353 9.9513638 21.4076568 12.7000916 26.87109375 15.11328125 C40.62020856 21.54959288 40.62020856 21.54959288 45 27 C47.92305311 36.34335373 46.5558602 46.49345484 45 56 C43.72769531 55.27296875 43.72769531 55.27296875 42.4296875 54.53125 C41.87071777 54.21188477 41.31174805 53.89251953 40.73583984 53.56347656 C39.47298495 52.84175052 38.21029511 52.11973559 36.94775391 51.39746094 C33.85421456 49.62819763 30.75845715 47.86342671 27.65625 46.109375 C26.5734375 45.49578125 25.490625 44.8821875 24.375 44.25 C22.67150391 43.28707031 22.67150391 43.28707031 20.93359375 42.3046875 C17.85495651 40.53137952 14.8498516 38.65746328 11.84765625 36.7578125 C10.95320801 36.19932617 10.05875977 35.64083984 9.13720703 35.06542969 C7.36165639 33.9536633 5.59530539 32.82704327 3.83935547 31.68457031 C3.0248291 31.17764648 2.21030273 30.67072266 1.37109375 30.1484375 C0.2871936 29.45500244 0.2871936 29.45500244 -0.81860352 28.74755859 C-3.05135286 27.74781685 -3.05135286 27.74781685 -5.55688477 28.75024414 C-8.87353454 30.44684954 -12.13835585 32.21917058 -15.375 34.0625 C-16.07399414 34.45808105 -16.77298828 34.85366211 -17.49316406 35.26123047 C-24.13750974 39.04070645 -30.68316586 42.97876531 -37.22607422 46.93017578 C-40.08166551 48.65233392 -42.94337587 50.36291157 -45.8125 52.0625 C-46.76769531 52.63097656 -47.72289063 53.19945312 -48.70703125 53.78515625 C-51 55 -51 55 -53 55 C-54.78369841 45.76495049 -56.20464515 36.03848442 -53 27 C-46.6504602 19.67409625 -37.27156885 15.75634209 -28.62158203 11.74267578 C-22.74683487 8.98486572 -17.35095208 5.40127829 -11.86401367 1.95483398 C-7.52942659 -0.60511978 -4.99009374 -1.79361521 0 0 Z " fill="#BC31F3" transform="translate(160,4)"/>
<path d="M0 0 C1.32 0.66 2.64 1.32 4 2 C4 2.66 4 3.32 4 4 C4.99 4 5.98 4 7 4 C7 4.66 7 5.32 7 6 C7.886875 6.103125 8.77375 6.20625 9.6875 6.3125 C13.19250661 7.0399542 15.18072283 7.81170532 18 10 C18.56762695 12.54370117 18.56762695 12.54370117 18.48828125 15.54296875 C18.47216797 16.61611328 18.45605469 17.68925781 18.43945312 18.79492188 C18.39755859 19.91447266 18.35566406 21.03402344 18.3125 22.1875 C18.28994141 23.31865234 18.26738281 24.44980469 18.24414062 25.61523438 C18.18514811 28.41147976 18.1028824 31.20508097 18 34 C11.07283708 32.38517117 3.00061324 29.19420119 -1.9375 23.9375 C-4.11559816 21.89140779 -5.39488238 21.44385804 -8.1875 20.5625 C-10.29296875 19.859375 -10.29296875 19.859375 -12 19 C-13 16.3125 -13 16.3125 -13 14 C-12.34 14 -11.68 14 -11 14 C-11 13.34 -11 12.68 -11 12 C-11.66 11.67 -12.32 11.34 -13 11 C-11.68 10.67 -10.36 10.34 -9 10 C-8.95875 9.236875 -8.9175 8.47375 -8.875 7.6875 C-8 5 -8 5 -5.0625 3.3125 C-3.5465625 2.6628125 -3.5465625 2.6628125 -2 2 C-1.34 1.34 -0.68 0.68 0 0 Z " fill="#BC31F3" transform="translate(185,21)"/>
<path d="M0 0 C10.27571546 3.33652954 22.07177781 7.29314269 29 16 C31.84224338 25.35968892 30.31572985 35.47843811 29 45 C25.04 42.69 21.08 40.38 17 38 C17.99 37.505 17.99 37.505 19 37 C21.64 37.99 24.28 38.98 27 40 C27 32.08 27 24.16 27 16 C23.3441622 14.53766488 19.7372512 13.21677946 16 12 C16 11.34 16 10.68 16 10 C15.01 10 14.02 10 13 10 C13 9.34 13 8.68 13 8 C12.34 7.773125 11.68 7.54625 11 7.3125 C7.09257775 5.60300277 3.47578462 3.47531064 0 1 C0 0.67 0 0.34 0 0 Z " fill="#A33DCD" transform="translate(176,15)"/>
<path d="M0 0 C2.90666539 1.49923878 5.63556985 3.21664584 8.375 5 C9.11105469 5.4640625 9.84710938 5.928125 10.60546875 6.40625 C12.426801 7.56865871 14.21668896 8.78006275 16 10 C16 10.33 16 10.66 16 11 C14.35 11 12.7 11 11 11 C10.67 10.01 10.34 9.02 10 8 C7.03 7.505 7.03 7.505 4 7 C4 7.99 4 8.98 4 10 C1.36 10 -1.28 10 -4 10 C-4 10.66 -4 11.32 -4 12 C-5.32 12 -6.64 12 -8 12 C-8 11.34 -8 10.68 -8 10 C-7.360625 9.71125 -6.72125 9.4225 -6.0625 9.125 C-3.84793921 8.17176549 -3.84793921 8.17176549 -3 6 C-2.01 6 -1.02 6 0 6 C-0.66 5.01 -1.32 4.02 -2 3 C-6.79022546 3.49130517 -10.55951503 5.01436506 -14.8515625 7.0625 C-16.89349603 7.95352554 -18.82737745 8.52811818 -21 9 C-18.42037007 6.12783471 -15.47424951 4.25098964 -12.1875 2.25 C-11.17042969 1.61578125 -10.15335938 0.9815625 -9.10546875 0.328125 C-5.30958166 -1.29527325 -3.91304336 -1.26698789 0 0 Z " fill="#B934EB" transform="translate(160,4)"/>
<path d="M0 0 C-1 3 -1 3 -3.125 4.625 C-6 6 -6 6 -13 7 C-13 14.92 -13 22.84 -13 31 C-9.7 30.01 -6.4 29.02 -3 28 C-6.25809569 31.25809569 -8.95266218 32.86594915 -13 35 C-13.66 35 -14.32 35 -15 35 C-17.06574576 10.53374726 -17.06574576 10.53374726 -13.75634766 4.87255859 C-10.39451033 1.57926661 -4.58368391 -2.29184195 0 0 Z " fill="#A94DCB" transform="translate(122,24)"/>
<path d="M0 0 C0.495 0.99 0.495 0.99 1 2 C0.14929932 1.76249023 -0.70140137 1.52498047 -1.57788086 1.28027344 C-5.87215917 0.92856968 -8.23861237 2.31677044 -11.75390625 4.515625 C-12.68891212 5.07307404 -12.68891212 5.07307404 -13.64280701 5.64178467 C-15.62588549 6.82900171 -17.59396506 8.0388534 -19.5625 9.25 C-20.88904649 10.04971756 -22.21651295 10.8479112 -23.54492188 11.64453125 C-25.99092083 13.11470187 -28.43153607 14.59296295 -30.86547852 16.08300781 C-31.89987061 16.71561523 -32.9342627 17.34822266 -34 18 C-34.92031006 18.5990918 -35.84062012 19.19818359 -36.78881836 19.81542969 C-37.5185083 20.20633789 -38.24819824 20.59724609 -39 21 C-39.66 20.67 -40.32 20.34 -41 20 C-35.25 16 -35.25 16 -33 16 C-33 15.34 -33 14.68 -33 14 C-32.15695313 13.60167969 -31.31390625 13.20335937 -30.4453125 12.79296875 C-29.34960938 12.26316406 -28.25390625 11.73335937 -27.125 11.1875 C-26.03445312 10.66542969 -24.94390625 10.14335938 -23.8203125 9.60546875 C-20.77778598 8.15275103 -20.77778598 8.15275103 -19 5 C-17.125 4.4375 -17.125 4.4375 -15 4 C-11.84026754 2.7251888 -11.84026754 2.7251888 -10 0 C-6.53350847 -1.41227433 -3.57021582 -0.87271942 0 0 Z " fill="#9735C0" transform="translate(160,31)"/>
<path d="M0 0 C0.49113281 0.36609375 0.98226562 0.7321875 1.48828125 1.109375 C0.5625 3.09375 0.5625 3.09375 -1.51171875 5.109375 C-4.58005497 5.63276518 -7.59780273 5.48410325 -10.69921875 5.359375 C-11.54419922 5.34132812 -12.38917969 5.32328125 -13.25976562 5.3046875 C-15.34423448 5.25758086 -17.42812019 5.18583733 -19.51171875 5.109375 C-19.18171875 4.449375 -18.85171875 3.789375 -18.51171875 3.109375 C-15.90119224 2.24804874 -13.36014531 1.52053261 -10.69921875 0.859375 C-9.61157227 0.56160156 -9.61157227 0.56160156 -8.50195312 0.2578125 C-3.11160388 -1.10333699 -3.11160388 -1.10333699 0 0 Z " fill="#F0F0F0" transform="translate(178.51171875,192.890625)"/>
<path d="M0 0 C2.05078125 0.03255208 4.1015625 0.06510417 6.15234375 0.09765625 C5.82234375 0.75765625 5.49234375 1.41765625 5.15234375 2.09765625 C3.80342041 2.31603149 3.80342041 2.31603149 2.42724609 2.53881836 C-1.09664001 3.14014349 -3.20485385 4.19642891 -6.24609375 6.0390625 C-7.21933594 6.62236328 -8.19257813 7.20566406 -9.1953125 7.80664062 C-10.19433594 8.41830078 -11.19335938 9.02996094 -12.22265625 9.66015625 C-13.24488281 10.27568359 -14.26710937 10.89121094 -15.3203125 11.52539062 C-17.83468699 13.04106497 -20.34341865 14.56531193 -22.84765625 16.09765625 C-23.50765625 15.43765625 -24.16765625 14.77765625 -24.84765625 14.09765625 C-22.49925748 12.08474302 -20.45225586 10.33846259 -17.5625 9.1875 C-14.37805461 7.90913991 -11.55226203 6.27808257 -8.59765625 4.53515625 C-7.540625 3.91511719 -6.48359375 3.29507812 -5.39453125 2.65625 C-1.15362921 0.06097406 -1.15362921 0.06097406 0 0 Z " fill="#F8DEFB" transform="translate(152.84765625,1.90234375)"/>
<path d="M0 0 C2.45049229 1.28093915 4.01450059 2.31633406 5.75 4.4375 C-0.59823202 6.74594801 -6.54481414 6.63568283 -13.25 6.4375 C-9.44007612 2.44341062 -5.71943378 -0.989902 0 0 Z " fill="#FAECFC" transform="translate(158.25,31.5625)"/>
<path d="M0 0 C3.64816235 1.37629229 6.97909504 3.02547901 10.375 4.9375 C13.57824841 6.7209302 16.70783081 8.36016982 20.125 9.6875 C21.07375 10.120625 22.0225 10.55375 23 11 C23.33 11.99 23.66 12.98 24 14 C25.65438613 14.69658363 27.32254318 15.36096883 29 16 C30.8125 17.625 30.8125 17.625 32 19 C27.1543119 17.59749609 23.07449464 15.45158808 18.8125 12.8125 C18.16337646 12.41611328 17.51425293 12.01972656 16.84545898 11.61132812 C14.89241051 10.41477083 12.94554875 9.20870472 11 8 C10.41798828 7.64083496 9.83597656 7.28166992 9.23632812 6.91162109 C2.52074235 2.76085121 2.52074235 2.76085121 0 1 C0 0.67 0 0.34 0 0 Z " fill="#A243C9" transform="translate(161,33)"/>
<path d="M0 0 C0.33 0.66 0.66 1.32 1 2 C0.18208984 2.14695312 0.18208984 2.14695312 -0.65234375 2.296875 C-5.78192031 3.31402181 -10.24774969 4.82450577 -14.95703125 7.09765625 C-16.95891817 7.98185487 -18.86585123 8.53480353 -21 9 C-18.42037007 6.12783471 -15.47424951 4.25098964 -12.1875 2.25 C-11.17042969 1.61578125 -10.15335938 0.9815625 -9.10546875 0.328125 C-5.49785159 -1.2147553 -3.7139836 -1.14943726 0 0 Z " fill="#A542CD" transform="translate(160,4)"/>
<path d="M0 0 C-1.63412443 1.70840281 -2.86906094 2.93453047 -5 4 C-5.33 12.91 -5.66 21.82 -6 31 C-6.33 31 -6.66 31 -7 31 C-7.21690267 26.90733909 -7.41378687 22.81425802 -7.59204102 18.71972656 C-7.65552913 17.32656029 -7.72451436 15.93363335 -7.79907227 14.54101562 C-7.90519436 12.54107702 -7.99001904 10.54004394 -8.07421875 8.5390625 C-8.13182373 7.33459473 -8.18942871 6.13012695 -8.2487793 4.88916016 C-8.16668213 3.9357373 -8.08458496 2.98231445 -8 2 C-4.77208445 -0.1519437 -3.71599191 -0.20086443 0 0 Z " fill="#FCE8FD" transform="translate(113,27)"/>
<path d="M0 0 C-1.88530059 4.20567055 -3.46272286 6.38508915 -7.8125 8.125 C-10.8696318 8.96421265 -13.86353226 9.55193318 -17 10 C-5.46153846 0 -5.46153846 0 0 0 Z " fill="#FADBFD" transform="translate(145,38)"/>
<path d="M0 0 C0 1.32 0 2.64 0 4 C-4.77357872 6.71391278 -8.34388537 8.56561146 -14 8 C-4.57142857 0 -4.57142857 0 0 0 Z " fill="#FBE4F9" transform="translate(128,48)"/>
<path d="M0 0 C0.33 0 0.66 0 1 0 C1 9.57 1 19.14 1 29 C-0.65 28.01 -2.3 27.02 -4 26 C-3.01 25.67 -2.02 25.34 -1 25 C-0.67 16.75 -0.34 8.5 0 0 Z " fill="#9949BC" transform="translate(204,31)"/>
<path d="M0 0 C0.66 0 1.32 0 2 0 C2.226875 0.94875 2.45375 1.8975 2.6875 2.875 C3.69083714 6.19323388 3.69083714 6.19323388 6.625 7.375 C7.40875 7.58125 8.1925 7.7875 9 8 C8.34 8.66 7.68 9.32 7 10 C3.04 7.69 -0.92 5.38 -5 3 C-3.68 2.34 -2.36 1.68 -1 1 C-0.67 0.67 -0.34 0.34 0 0 Z " fill="#F9E3FD" transform="translate(165,2)"/>
<path d="M0 0 C5.73199571 1.46974249 10.33583399 4.44486902 15 8 C15 8.33 15 8.66 15 9 C13.35 9 11.7 9 10 9 C9.67 8.01 9.34 7.02 9 6 C6.98491642 5.26676204 6.98491642 5.26676204 5 5 C5 4.34 5 3.68 5 3 C2.525 2.01 2.525 2.01 0 1 C0 0.67 0 0.34 0 0 Z " fill="#A143CE" transform="translate(161,6)"/>
<path d="M0 0 C1.79398267 0.95399078 3.58511655 1.91334026 5.375 2.875 C6.37273437 3.40867188 7.37046875 3.94234375 8.3984375 4.4921875 C11 6 11 6 13 8 C7.60713425 7.56857074 4.19513682 6.47889394 0 3 C0 2.01 0 1.02 0 0 Z " fill="#F8DBFD" transform="translate(173,41)"/>
<path d="M0 0 C0.99 0.33 1.98 0.66 3 1 C3 1.66 3 2.32 3 3 C5.97 3.495 5.97 3.495 9 4 C8.67 5.32 8.34 6.64 8 8 C4.7 6.02 1.4 4.04 -2 2 C-1.34 1.34 -0.68 0.68 0 0 Z " fill="#F9DDFB" transform="translate(196,23)"/>
<path d="M0 0 C0.86625 0.556875 0.86625 0.556875 1.75 1.125 C1.75 1.785 1.75 2.445 1.75 3.125 C2.41 3.125 3.07 3.125 3.75 3.125 C3.75 4.115 3.75 5.105 3.75 6.125 C-0.24455527 5.51045304 -2.99466336 3.41853263 -6.25 1.125 C-2.80384615 -1.09038462 -2.80384615 -1.09038462 0 0 Z " fill="#F3FBF3" transform="translate(191.25,15.875)"/>
<path d="M0 0 C2.69082872 0.17635452 5.32851446 0.61835921 8 1 C5.45543849 3.96865509 2.51005335 5.3619751 -1 7 C-1.04254356 5.00045254 -1.04080783 2.99958364 -1 1 C-0.67 0.67 -0.34 0.34 0 0 Z " fill="#F6E7F8" transform="translate(120,17)"/>
<path d="M0 0 C0.33 1.32 0.66 2.64 1 4 C5.95 2.515 5.95 2.515 11 1 C7.73093793 4.26906207 5.09304414 5.91626844 1 8 C0.34 7.67 -0.32 7.34 -1 7 C-0.67 4.69 -0.34 2.38 0 0 Z " fill="#9738C5" transform="translate(108,51)"/>
<path d="M0 0 C0.7734375 0.61875 0.7734375 0.61875 1.5625 1.25 C0.593125 1.53875 -0.37625 1.8275 -1.375 2.125 C-4.54414203 2.89214682 -4.54414203 2.89214682 -5.4375 5.25 C-7.75906597 5.65729228 -10.0943787 5.99438677 -12.4375 6.25 C-9.47126771 2.76031496 -4.66236549 -1.434574 0 0 Z " fill="#F7CFFB" transform="translate(157.4375,31.75)"/>
<path d="M0 0 C2.375 1.3125 2.375 1.3125 3.1875 3.4375 C3.249375 4.05625 3.31125 4.675 3.375 5.3125 C-0.40045388 4.22181332 -3.09543472 3.4041909 -5.625 0.3125 C-2.625 -0.6875 -2.625 -0.6875 0 0 Z " fill="#F5DAF9" transform="translate(178.625,11.6875)"/>
<path d="M0 0 C3.125 0.375 3.125 0.375 6 1 C5.67 1.99 5.34 2.98 5 4 C2.69 4.33 0.38 4.66 -2 5 C-2 2 -2 2 0 0 Z " fill="#F7F9F2" transform="translate(131,8)"/>
<path d="M0 0 C2.1875 -0.375 2.1875 -0.375 5 0 C6.99022836 1.83961648 8.38989899 3.79186148 10 6 C6.40992874 4.66654496 3.20429093 3.1056769 0 1 C0 0.67 0 0.34 0 0 Z " fill="#FADEFD" transform="translate(184,18)"/>
<path d="M0 0 C1.31602523 0.61754259 2.62773556 1.24428742 3.9375 1.875 C4.66839844 2.22304688 5.39929688 2.57109375 6.15234375 2.9296875 C8 4 8 4 9 6 C8.01 6.33 7.02 6.66 6 7 C5.34 6.01 4.68 5.02 4 4 C3.01 4 2.02 4 1 4 C1 3.34 1 2.68 1 2 C0.34 1.67 -0.32 1.34 -1 1 C-0.67 0.67 -0.34 0.34 0 0 Z " fill="#F4CFF9" transform="translate(195,54)"/>
<path d="M0 0 C0.66 0.33 1.32 0.66 2 1 C2 1.99 2 2.98 2 4 C0.35 3.67 -1.3 3.34 -3 3 C-2.01 2.01 -1.02 1.02 0 0 Z M-7 3 C-5.68 3 -4.36 3 -3 3 C-3 3.66 -3 4.32 -3 5 C-4.32 5 -5.64 5 -7 5 C-7 4.34 -7 3.68 -7 3 Z " fill="#C22EFB" transform="translate(119,27)"/>
<path d="M0 0 C0.33 0.99 0.66 1.98 1 3 C-1 5 -1 5 -4.125 5.125 C-5.548125 5.063125 -5.548125 5.063125 -7 5 C-2.25 1.125 -2.25 1.125 0 0 Z " fill="#F8D5FA" transform="translate(121,51)"/>
<path d="M0 0 C2.25 0.25 2.25 0.25 4 1 C4 1.66 4 2.32 4 3 C-0.625 5.125 -0.625 5.125 -4 4 C-2.25 1.9375 -2.25 1.9375 0 0 Z " fill="#C42DF9" transform="translate(181,21)"/>
<path d="M0 0 C2.475 0.495 2.475 0.495 5 1 C5 1.99 5 2.98 5 4 C4.01 4.33 3.02 4.66 2 5 C2 4.34 2 3.68 2 3 C1.34 3 0.68 3 0 3 C0 2.01 0 1.02 0 0 Z " fill="#ECECEC" transform="translate(112,178)"/>
<path d="M0 0 C0.66 0.33 1.32 0.66 2 1 C0.9375 2.9375 0.9375 2.9375 -1 5 C-4.6875 5.75 -4.6875 5.75 -8 6 C-5.38485683 3.87961365 -2.80362384 1.86908256 0 0 Z " fill="#B638E6" transform="translate(136,15)"/>
</svg>
