<?xml version="1.0" encoding="UTF-8"?>
<!DOCTYPE svg PUBLIC "-//W3C//DTD SVG 1.1//EN" "http://www.w3.org/Graphics/SVG/1.1/DTD/svg11.dtd">
<svg xmlns="http://www.w3.org/2000/svg" version="1.1" width="306px" height="198px" style="shape-rendering:geometricPrecision; text-rendering:geometricPrecision; image-rendering:optimizeQuality; fill-rule:evenodd; clip-rule:evenodd" xmlns:xlink="http://www.w3.org/1999/xlink">
<g><path style="opacity:0.275" fill="#7f2e9b" d="M 177.5,13.5 C 177.631,14.3764 177.298,15.0431 176.5,15.5C 169.635,11.2349 162.635,7.23487 155.5,3.5C 141.963,11.0977 128.629,18.931 115.5,27C 113.655,28.128 111.655,28.628 109.5,28.5C 124.274,18.7653 139.607,9.76535 155.5,1.5C 162.86,5.51235 170.194,9.51235 177.5,13.5 Z"/></g>
<g><path style="opacity:1" fill="#bc31f2" d="M 177.5,13.5 C 178.167,13.5 178.5,13.8333 178.5,14.5C 178.511,16.0174 179.177,17.1841 180.5,18C 187.889,21.5648 194.889,25.7315 201.5,30.5C 202.437,38.445 202.77,46.445 202.5,54.5C 200.167,54.5 197.833,54.5 195.5,54.5C 194.323,52.9685 192.989,51.4685 191.5,50C 187.835,48.503 184.502,46.503 181.5,44C 179.866,43.5065 178.199,43.3398 176.5,43.5C 175.972,42.2794 175.305,41.1127 174.5,40C 169.077,37.5403 163.91,34.707 159,31.5C 158.235,31.5699 157.735,31.9033 157.5,32.5C 156.609,31.8902 155.609,31.5569 154.5,31.5C 153.127,31.3433 151.793,31.51 150.5,32C 144.79,35.8548 138.79,39.1881 132.5,42C 130.234,43.4264 128.568,45.2598 127.5,47.5C 121.343,49.1089 115.677,51.9422 110.5,56C 109.552,56.4828 108.552,56.6495 107.5,56.5C 107.81,53.2869 107.477,50.2869 106.5,47.5C 105.833,47.5 105.5,47.1667 105.5,46.5C 106.835,40.5445 108.169,34.5445 109.5,28.5C 111.655,28.628 113.655,28.128 115.5,27C 128.629,18.931 141.963,11.0977 155.5,3.5C 162.635,7.23487 169.635,11.2349 176.5,15.5C 177.298,15.0431 177.631,14.3764 177.5,13.5 Z"/></g>
<g><path style="opacity:0.561" fill="#973fa8" d="M 109.5,28.5 C 108.169,34.5445 106.835,40.5445 105.5,46.5C 105.149,40.7383 105.649,35.0716 107,29.5C 107.671,28.7476 108.504,28.4142 109.5,28.5 Z"/></g>
<g><path style="opacity:0.38" fill="#8c30a9" d="M 157.5,32.5 C 157.735,31.9033 158.235,31.5699 159,31.5C 163.91,34.707 169.077,37.5403 174.5,40C 175.305,41.1127 175.972,42.2794 176.5,43.5C 170.031,40.0976 163.697,36.4309 157.5,32.5 Z"/></g>
<g><path style="opacity:0.978" fill="#9a2ebf" d="M 201.5,30.5 C 202.117,30.6107 202.617,30.944 203,31.5C 203.333,38.8333 203.667,46.1667 204,53.5C 204.383,52.944 204.883,52.6107 205.5,52.5C 205.087,54.8901 204.421,57.2235 203.5,59.5C 200.432,58.3087 197.765,56.642 195.5,54.5C 197.833,54.5 200.167,54.5 202.5,54.5C 202.77,46.445 202.437,38.445 201.5,30.5 Z"/></g>
<g><path style="opacity:0.675" fill="#832da1" d="M 178.5,14.5 C 187.113,19.2733 195.613,24.2733 204,29.5C 205.432,37.0542 205.932,44.7208 205.5,52.5C 204.883,52.6107 204.383,52.944 204,53.5C 203.667,46.1667 203.333,38.8333 203,31.5C 202.617,30.944 202.117,30.6107 201.5,30.5C 194.889,25.7315 187.889,21.5648 180.5,18C 179.177,17.1841 178.511,16.0174 178.5,14.5 Z"/></g>
<g><path style="opacity:0.569" fill="#852a99" d="M 154.5,31.5 C 145.971,37.5992 136.971,42.9325 127.5,47.5C 128.568,45.2598 130.234,43.4264 132.5,42C 138.79,39.1881 144.79,35.8548 150.5,32C 151.793,31.51 153.127,31.3433 154.5,31.5 Z"/></g>
<g><path style="opacity:0.353" fill="#903bac" d="M 176.5,43.5 C 178.199,43.3398 179.866,43.5065 181.5,44C 184.502,46.503 187.835,48.503 191.5,50C 192.989,51.4685 194.323,52.9685 195.5,54.5C 188.903,51.2247 182.57,47.558 176.5,43.5 Z"/></g>
<g><path style="opacity:0.545" fill="#862ca0" d="M 106.5,47.5 C 107.477,50.2869 107.81,53.2869 107.5,56.5C 108.552,56.6495 109.552,56.4828 110.5,56C 115.677,51.9422 121.343,49.1089 127.5,47.5C 121.135,51.8356 114.468,55.8356 107.5,59.5C 106.509,55.5546 106.176,51.5546 106.5,47.5 Z"/></g>
<g><path style="opacity:0.982" fill="#020202" d="M 129.5,82.5 C 131.103,82.3118 132.437,82.8118 133.5,84C 132.873,95.0432 132.539,106.377 132.5,118C 132.399,130.206 132.899,142.373 134,154.5C 136.817,165.903 144.15,171.236 156,170.5C 166.69,169.986 173.856,164.652 177.5,154.5C 178.742,131.065 178.742,107.565 177.5,84C 178.108,83.1301 178.941,82.6301 180,82.5C 186.766,83.6887 193.766,83.6887 201,82.5C 203.13,83.1408 204.63,84.4741 205.5,86.5C 205.447,108.118 205.28,129.784 205,151.5C 203.912,173.59 192.746,187.757 171.5,194C 151.247,199.053 133.247,194.886 117.5,181.5C 111.881,175.595 108.381,168.595 107,160.5C 106.5,134.835 106.333,109.169 106.5,83.5C 114.352,83.8254 122.018,83.492 129.5,82.5 Z"/></g>
</svg>
